SplineFontDB: 3.0
FontName: Cambo-Regular
FullName: Cambo
FamilyName: Cambo
Weight: Book
Copyright: Copyright (c) 2011, Carolina Giovagnoli (caro@huertatipografica.com.ar),\nCopyright (c) 2011, Andres Torresi (andres@huertatipografica.com.ar),\nwith Reserved Font Name Cambo.
Version: 2.001
ItalicAngle: 0
UnderlinePosition: -50
UnderlineWidth: 50
Ascent: 800
Descent: 200
sfntRevision: 0x00020042
LayerCount: 2
Layer: 0 1 "Back"  1
Layer: 1 1 "Fore"  0
XUID: [1021 631 251252331 7845117]
FSType: 0
OS2Version: 2
OS2_WeightWidthSlopeOnly: 0
OS2_UseTypoMetrics: 1
CreationTime: 1324165731
ModificationTime: 1324195034
PfmFamily: 17
TTFWeight: 400
TTFWidth: 5
LineGap: 0
VLineGap: 0
Panose: 2 0 0 0 0 0 0 0 0 0
OS2TypoAscent: 79
OS2TypoAOffset: 1
OS2TypoDescent: -43
OS2TypoDOffset: 1
OS2TypoLinegap: 0
OS2WinAscent: 0
OS2WinAOffset: 1
OS2WinDescent: 0
OS2WinDOffset: 1
HheadAscent: 0
HheadAOffset: 1
HheadDescent: 0
HheadDOffset: 1
OS2SubXSize: 700
OS2SubYSize: 650
OS2SubXOff: 0
OS2SubYOff: 140
OS2SupXSize: 700
OS2SupYSize: 650
OS2SupXOff: 0
OS2SupYOff: 477
OS2StrikeYSize: 50
OS2StrikeYPos: 250
OS2CodePages: 20000111.40000000
OS2UnicodeRanges: 8000002f.10000002.00000000.00000000
Lookup: 258 0 0 "'kern' Horizontal Kerning in Latin lookup 0"  {"'kern' Horizontal Kerning in Latin lookup 0 subtable"  } ['kern' ('DFLT' <'dflt' > 'latn' <'dflt' > ) ]
DEI: 91125
TtTable: prep
PUSHW_1
 511
SCANCTRL
PUSHB_1
 4
SCANTYPE
EndTTInstrs
ShortTable: maxp 16
  1
  0
  235
  69
  5
  0
  0
  2
  0
  1
  1
  0
  64
  0
  0
  0
EndShort

StartChar: exclam
Encoding: 33 33 4
Width: 217
GlyphClass: 2
Flags: W
LayerCount: 2
Fore
SplineSet
75 196 m 1,0,-1
 78 415 l 1,1,2
 78 586 78 586 58 674 c 1,3,4
 81 692 81 692 122 692 c 0,5,6
 182 692 182 692 182 611 c 0,7,8
 182 574 182 574 159 424 c 128,-1,9
 136 274 136 274 131 206 c 1,10,-1
 75 196 l 1,0,-1
101 -7 m 128,-1,12
 77 -7 77 -7 63 9 c 128,-1,13
 49 25 49 25 49 48 c 128,-1,14
 49 71 49 71 63.5 86.5 c 128,-1,15
 78 102 78 102 101.5 102 c 128,-1,16
 125 102 125 102 139.5 86.5 c 128,-1,17
 154 71 154 71 154 48 c 128,-1,18
 154 25 154 25 139.5 9 c 128,-1,11
 125 -7 125 -7 101 -7 c 128,-1,12
EndSplineSet
EndChar

StartChar: quotedbl
Encoding: 34 34 5
Width: 294
GlyphClass: 2
Flags: W
LayerCount: 2
Fore
SplineSet
64 513 m 1,0,1
 35 653 35 653 35 679 c 0,2,3
 35 728 35 728 79 728 c 0,4,5
 98 728 98 728 110.5 716 c 128,-1,6
 123 704 123 704 123 688 c 0,7,8
 123 657 123 657 95 513 c 1,9,-1
 64 513 l 1,0,1
200 513 m 1,10,11
 171 653 171 653 171 679 c 0,12,13
 171 728 171 728 215 728 c 0,14,15
 234 728 234 728 246.5 716 c 128,-1,16
 259 704 259 704 259 688 c 0,17,18
 259 657 259 657 231 513 c 1,19,-1
 200 513 l 1,10,11
EndSplineSet
EndChar

StartChar: numbersign
Encoding: 35 35 6
Width: 608
GlyphClass: 2
Flags: W
LayerCount: 2
Fore
SplineSet
117 5 m 1,0,-1
 150 130 l 1,1,-1
 27 130 l 1,2,-1
 38 187 l 1,3,-1
 166 187 l 1,4,-1
 202 323 l 1,5,-1
 83 323 l 1,6,-1
 94 380 l 1,7,-1
 218 380 l 1,8,-1
 254 514 l 1,9,-1
 309 501 l 1,10,-1
 276 380 l 1,11,-1
 409 380 l 1,12,-1
 445 514 l 1,13,-1
 500 501 l 1,14,-1
 467 380 l 1,15,-1
 577 380 l 1,16,-1
 566 323 l 1,17,-1
 452 323 l 1,18,-1
 415 187 l 1,19,-1
 521 187 l 1,20,-1
 510 130 l 1,21,-1
 399 130 l 1,22,-1
 362 -9 l 1,23,-1
 308 5 l 1,24,-1
 341 130 l 1,25,-1
 208 130 l 1,26,-1
 171 -9 l 1,27,-1
 117 5 l 1,0,-1
224 187 m 1,28,-1
 357 187 l 1,29,-1
 393 323 l 1,30,-1
 261 323 l 1,31,-1
 224 187 l 1,28,-1
EndSplineSet
EndChar

StartChar: dollar
Encoding: 36 36 7
Width: 531
GlyphClass: 2
Flags: W
LayerCount: 2
Fore
SplineSet
258 23 m 1,0,1
 165 23 165 23 112.5 59 c 128,-1,2
 60 95 60 95 60 159 c 0,3,4
 60 183 60 183 77.5 198.5 c 128,-1,5
 95 214 95 214 122 214 c 128,-1,6
 149 214 149 214 166 195 c 1,7,8
 159 174 159 174 159 157 c 0,9,10
 159 121 159 121 186.5 98.5 c 128,-1,11
 214 76 214 76 258 74 c 1,12,-1
 258 294 l 1,13,14
 230 305 230 305 221 308.5 c 128,-1,15
 212 312 212 312 187.5 323 c 128,-1,16
 163 334 163 334 153 341.5 c 128,-1,17
 143 349 143 349 125.5 363.5 c 128,-1,18
 108 378 108 378 101 392 c 0,19,20
 81 432 81 432 81 468 c 0,21,22
 81 532 81 532 130.5 573.5 c 128,-1,23
 180 615 180 615 258 619 c 1,24,-1
 258 692 l 1,25,-1
 264 699 l 1,26,27
 281 699 281 699 301 694 c 1,28,-1
 301 618 l 1,29,30
 369 612 369 612 414.5 580 c 128,-1,31
 460 548 460 548 460 505 c 0,32,33
 460 475 460 475 447 457 c 128,-1,34
 434 439 434 439 409 439 c 128,-1,35
 384 439 384 439 360 457 c 1,36,37
 371 474 371 474 371 498.5 c 128,-1,38
 371 523 371 523 352 542 c 128,-1,39
 333 561 333 561 301 567 c 1,40,-1
 301 369 l 1,41,42
 402 330 402 330 436 293 c 0,43,44
 471 254 471 254 471 189.5 c 128,-1,45
 471 125 471 125 425.5 80 c 128,-1,46
 380 35 380 35 301 25 c 1,47,-1
 301 -47 l 1,48,-1
 295 -54 l 1,49,50
 278 -54 278 -54 258 -49 c 1,51,-1
 258 23 l 1,0,1
170 473 m 0,52,53
 170 443 170 443 192.5 423.5 c 128,-1,54
 215 404 215 404 258 386 c 1,55,-1
 258 568 l 1,56,57
 170 560 170 560 170 473 c 0,52,53
382 173 m 0,58,59
 382 237 382 237 301 276 c 1,60,-1
 301 78 l 1,61,62
 382 95 382 95 382 173 c 0,58,59
EndSplineSet
EndChar

StartChar: percent
Encoding: 37 37 8
Width: 762
GlyphClass: 2
Flags: W
LayerCount: 2
Fore
SplineSet
165 22 m 1,0,-1
 534 668 l 1,1,-1
 592 640 l 1,2,-1
 220 -11 l 1,3,-1
 165 22 l 1,0,-1
137.5 374 m 128,-1,5
 151 340 151 340 187.5 340 c 128,-1,6
 224 340 224 340 237.5 374 c 128,-1,7
 251 408 251 408 251 475 c 128,-1,8
 251 542 251 542 237.5 575.5 c 128,-1,9
 224 609 224 609 187.5 609 c 128,-1,10
 151 609 151 609 137.5 575.5 c 128,-1,11
 124 542 124 542 124 475 c 128,-1,4
 124 408 124 408 137.5 374 c 128,-1,5
297 345 m 128,-1,13
 260 298 260 298 187.5 298 c 128,-1,14
 115 298 115 298 78 345 c 128,-1,15
 41 392 41 392 41 475 c 128,-1,16
 41 558 41 558 77.5 604 c 128,-1,17
 114 650 114 650 187 650 c 128,-1,18
 260 650 260 650 297 604 c 128,-1,19
 334 558 334 558 334 475 c 128,-1,12
 334 392 334 392 297 345 c 128,-1,13
524.5 69 m 128,-1,21
 538 35 538 35 574.5 35 c 128,-1,22
 611 35 611 35 624.5 69 c 128,-1,23
 638 103 638 103 638 170 c 128,-1,24
 638 237 638 237 624.5 270.5 c 128,-1,25
 611 304 611 304 574.5 304 c 128,-1,26
 538 304 538 304 524.5 270.5 c 128,-1,27
 511 237 511 237 511 170 c 128,-1,20
 511 103 511 103 524.5 69 c 128,-1,21
564 -7 m 0,28,29
 428 -7 428 -7 428 170 c 0,30,31
 428 253 428 253 464.5 299 c 128,-1,32
 501 345 501 345 574 345 c 128,-1,33
 647 345 647 345 684 299 c 128,-1,34
 721 253 721 253 721 170.5 c 128,-1,35
 721 88 721 88 679.5 40.5 c 128,-1,36
 638 -7 638 -7 564 -7 c 0,28,29
EndSplineSet
EndChar

StartChar: ampersand
Encoding: 38 38 9
Width: 762
GlyphClass: 2
Flags: W
LayerCount: 2
Fore
SplineSet
160 208 m 0,0,1
 160 49 160 49 360 49 c 0,2,3
 459 49 459 49 521 102 c 128,-1,4
 583 155 583 155 583 259 c 0,5,6
 583 330 583 330 553 392 c 1,7,8
 504 390 504 390 483 379 c 128,-1,9
 462 368 462 368 462 344 c 128,-1,10
 462 320 462 320 483 302 c 1,11,12
 463 282 463 282 437 282 c 128,-1,13
 411 282 411 282 396 299.5 c 128,-1,14
 381 317 381 317 381 345 c 0,15,16
 381 390 381 390 426.5 414 c 128,-1,17
 472 438 472 438 558 438 c 0,18,19
 665 438 665 438 665 487 c 0,20,21
 665 512 665 512 644 530 c 1,22,23
 664 550 664 550 690 550 c 128,-1,24
 716 550 716 550 731 534 c 128,-1,25
 746 518 746 518 746 492 c 0,26,27
 746 396 746 396 592 393 c 1,28,29
 628 323 628 323 628 245 c 0,30,31
 628 126 628 126 551.5 60.5 c 128,-1,32
 475 -5 475 -5 344.5 -5 c 128,-1,33
 214 -5 214 -5 137 51.5 c 128,-1,34
 60 108 60 108 60 203 c 0,35,36
 60 349 60 349 202 396 c 1,37,38
 116 435 116 435 116 530 c 0,39,40
 116 594 116 594 173 637.5 c 128,-1,41
 230 681 230 681 312.5 681 c 128,-1,42
 395 681 395 681 450 645 c 128,-1,43
 505 609 505 609 505 554 c 0,44,45
 505 522 505 522 490.5 502.5 c 128,-1,46
 476 483 476 483 449 483 c 128,-1,47
 422 483 422 483 399 502 c 1,48,49
 410 522 410 522 410 551.5 c 128,-1,50
 410 581 410 581 383 604 c 128,-1,51
 356 627 356 627 311.5 627 c 128,-1,52
 267 627 267 627 238.5 600.5 c 128,-1,53
 210 574 210 574 210 531 c 128,-1,54
 210 488 210 488 238 456.5 c 128,-1,55
 266 425 266 425 329 424 c 1,56,-1
 329 372 l 1,57,58
 251 363 251 363 205.5 319.5 c 128,-1,59
 160 276 160 276 160 208 c 0,0,1
EndSplineSet
EndChar

StartChar: quotesingle
Encoding: 39 39 10
Width: 158
GlyphClass: 2
Flags: W
LayerCount: 2
Fore
SplineSet
64 513 m 1,0,1
 35 653 35 653 35 679 c 0,2,3
 35 728 35 728 79 728 c 0,4,5
 98 728 98 728 110.5 716 c 128,-1,6
 123 704 123 704 123 688 c 0,7,8
 123 657 123 657 95 513 c 1,9,-1
 64 513 l 1,0,1
EndSplineSet
EndChar

StartChar: parenleft
Encoding: 40 40 11
Width: 291
GlyphClass: 2
Flags: W
LayerCount: 2
Fore
SplineSet
40 314 m 128,-1,1
 40 396 40 396 60.5 471.5 c 128,-1,2
 81 547 81 547 110 596 c 0,3,4
 170 695 170 695 220 736 c 1,5,-1
 241 752 l 1,6,-1
 266 726 l 1,7,8
 114 567 114 567 114 314.5 c 128,-1,9
 114 62 114 62 266 -97 c 1,10,-1
 241 -123 l 1,11,12
 213 -102 213 -102 174.5 -57.5 c 128,-1,13
 136 -13 136 -13 109.5 33.5 c 128,-1,14
 83 80 83 80 61.5 156 c 128,-1,0
 40 232 40 232 40 314 c 128,-1,1
EndSplineSet
EndChar

StartChar: parenright
Encoding: 41 41 12
Width: 291
GlyphClass: 2
Flags: W
LayerCount: 2
Fore
SplineSet
25 -97 m 1,0,1
 177 62 177 62 177 314.5 c 128,-1,2
 177 567 177 567 25 726 c 1,3,-1
 50 752 l 1,4,5
 78 731 78 731 116.5 686.5 c 128,-1,6
 155 642 155 642 181.5 595.5 c 128,-1,7
 208 549 208 549 229.5 472.5 c 128,-1,8
 251 396 251 396 251 325 c 128,-1,9
 251 254 251 254 240 197.5 c 128,-1,10
 229 141 229 141 211 98.5 c 128,-1,11
 193 56 193 56 172 18.5 c 128,-1,12
 151 -19 151 -19 130 -44 c 0,13,14
 84 -96 84 -96 50 -123 c 1,15,-1
 25 -97 l 1,0,1
EndSplineSet
EndChar

StartChar: asterisk
Encoding: 42 42 13
Width: 373
GlyphClass: 2
Flags: W
LayerCount: 2
Fore
SplineSet
109.5 557.5 m 128,-1,1
 79 544 79 544 65.5 544 c 128,-1,2
 52 544 52 544 41 555 c 128,-1,3
 30 566 30 566 30 583 c 128,-1,4
 30 600 30 600 41 611 c 128,-1,5
 52 622 52 622 65 622 c 128,-1,6
 78 622 78 622 109 608.5 c 128,-1,7
 140 595 140 595 171 592 c 1,8,9
 155 614 155 614 132.5 630.5 c 128,-1,10
 110 647 110 647 99 658.5 c 128,-1,11
 88 670 88 670 88 686 c 128,-1,12
 88 702 88 702 99.5 713 c 128,-1,13
 111 724 111 724 131.5 724 c 128,-1,14
 152 724 152 724 158.5 710.5 c 128,-1,15
 165 697 165 697 169.5 662.5 c 128,-1,16
 174 628 174 628 186 601 c 1,17,18
 198 629 198 629 203 663.5 c 128,-1,19
 208 698 208 698 214.5 711 c 128,-1,20
 221 724 221 724 241 724 c 128,-1,21
 261 724 261 724 272.5 712 c 128,-1,22
 284 700 284 700 284 684 c 128,-1,23
 284 668 284 668 273 657.5 c 128,-1,24
 262 647 262 647 240 630 c 128,-1,25
 218 613 218 613 202 592 c 1,26,27
 230 595 230 595 262 608.5 c 128,-1,28
 294 622 294 622 307.5 622 c 128,-1,29
 321 622 321 622 332 611 c 128,-1,30
 343 600 343 600 343 583 c 128,-1,31
 343 566 343 566 331.5 555 c 128,-1,32
 320 544 320 544 307 544 c 128,-1,33
 294 544 294 544 262 557.5 c 128,-1,34
 230 571 230 571 202 574 c 1,35,36
 219 550 219 550 241 534 c 128,-1,37
 263 518 263 518 273.5 508 c 128,-1,38
 284 498 284 498 284 481.5 c 128,-1,39
 284 465 284 465 272.5 453 c 128,-1,40
 261 441 261 441 241.5 441 c 128,-1,41
 222 441 222 441 211 462 c 0,42,43
 206 470 206 470 202.5 503 c 128,-1,44
 199 536 199 536 186 565 c 1,45,46
 172 536 172 536 169 502.5 c 128,-1,47
 166 469 166 469 162 462 c 0,48,49
 149 441 149 441 130 441 c 128,-1,50
 111 441 111 441 99.5 453.5 c 128,-1,51
 88 466 88 466 88 479.5 c 128,-1,52
 88 493 88 493 95.5 503 c 128,-1,53
 103 513 103 513 113 519 c 0,54,55
 145 538 145 538 170 574 c 1,56,0
 140 571 140 571 109.5 557.5 c 128,-1,1
EndSplineSet
EndChar

StartChar: plus
Encoding: 43 43 14
Width: 545
GlyphClass: 2
Flags: W
LayerCount: 2
Fore
SplineSet
237 87 m 1,0,-1
 237 268 l 1,1,-1
 62 268 l 1,2,-1
 62 325 l 1,3,-1
 237 325 l 1,4,-1
 237 506 l 1,5,-1
 302 506 l 1,6,-1
 302 325 l 1,7,-1
 483 325 l 1,8,-1
 483 268 l 1,9,-1
 302 268 l 1,10,-1
 302 87 l 1,11,-1
 237 87 l 1,0,-1
EndSplineSet
EndChar

StartChar: comma
Encoding: 44 44 15
Width: 208
GlyphClass: 2
Flags: W
LayerCount: 2
Fore
SplineSet
118 -18 m 0,0,1
 118 18 118 18 87 18 c 0,2,3
 84 18 84 18 68 14 c 1,4,5
 55 27 55 27 55 51 c 128,-1,6
 55 75 55 75 72 89.5 c 128,-1,7
 89 104 89 104 116.5 104 c 128,-1,8
 144 104 144 104 161 83 c 128,-1,9
 178 62 178 62 178 28 c 0,10,11
 178 -74 178 -74 75 -137 c 1,12,-1
 57 -112 l 1,13,14
 118 -71 118 -71 118 -18 c 0,0,1
EndSplineSet
EndChar

StartChar: hyphen
Encoding: 45 45 16
Width: 359
GlyphClass: 2
Flags: W
LayerCount: 2
Fore
SplineSet
30 241 m 1,0,-1
 30 299 l 1,1,-1
 329 299 l 1,2,-1
 329 241 l 1,3,-1
 30 241 l 1,0,-1
EndSplineSet
EndChar

StartChar: period
Encoding: 46 46 17
Width: 198
GlyphClass: 2
Flags: W
LayerCount: 2
Fore
SplineSet
101 -5 m 128,-1,1
 77 -5 77 -5 63 11 c 128,-1,2
 49 27 49 27 49 50 c 128,-1,3
 49 73 49 73 63.5 88.5 c 128,-1,4
 78 104 78 104 101.5 104 c 128,-1,5
 125 104 125 104 139.5 88.5 c 128,-1,6
 154 73 154 73 154 50 c 128,-1,7
 154 27 154 27 139.5 11 c 128,-1,0
 125 -5 125 -5 101 -5 c 128,-1,1
EndSplineSet
EndChar

StartChar: slash
Encoding: 47 47 18
Width: 387
GlyphClass: 2
Flags: W
LayerCount: 2
Fore
SplineSet
-10 -115 m 1,0,-1
 327 759 l 1,1,-1
 387 737 l 1,2,-1
 50 -137 l 1,3,-1
 -10 -115 l 1,0,-1
EndSplineSet
EndChar

StartChar: zero
Encoding: 48 48 19
Width: 594
GlyphClass: 2
Flags: W
LayerCount: 2
Fore
SplineSet
297 47 m 128,-1,1
 384 47 384 47 415 116 c 128,-1,2
 446 185 446 185 446 323.5 c 128,-1,3
 446 462 446 462 415 530.5 c 128,-1,4
 384 599 384 599 297 599 c 128,-1,5
 210 599 210 599 179 530.5 c 128,-1,6
 148 462 148 462 148 323.5 c 128,-1,7
 148 185 148 185 179 116 c 128,-1,0
 210 47 210 47 297 47 c 128,-1,1
297 -6 m 128,-1,9
 174 -6 174 -6 112 81.5 c 128,-1,10
 50 169 50 169 50 324 c 128,-1,11
 50 479 50 479 112 565.5 c 128,-1,12
 174 652 174 652 297 652 c 128,-1,13
 420 652 420 652 482 565.5 c 128,-1,14
 544 479 544 479 544 324 c 128,-1,15
 544 169 544 169 482 81.5 c 128,-1,8
 420 -6 420 -6 297 -6 c 128,-1,9
EndSplineSet
EndChar

StartChar: one
Encoding: 49 49 20
Width: 429
GlyphClass: 2
Flags: W
LayerCount: 2
Fore
SplineSet
189 545 m 1,0,-1
 47 545 l 1,1,-1
 47 591 l 1,2,3
 155 602 155 602 247 650 c 1,4,-1
 283 636 l 1,5,-1
 283 68 l 1,6,7
 321 48 321 48 416 37 c 1,8,-1
 412 0 l 1,9,-1
 42 0 l 1,10,-1
 45 37 l 1,11,12
 139 47 139 47 189 68 c 1,13,-1
 189 545 l 1,0,-1
EndSplineSet
EndChar

StartChar: two
Encoding: 50 50 21
Width: 533
GlyphClass: 2
Flags: W
LayerCount: 2
Fore
SplineSet
51 0 m 1,0,-1
 51 61 l 1,1,2
 230 215 230 215 297.5 305.5 c 128,-1,3
 365 396 365 396 365 479 c 0,4,5
 365 602 365 602 256 602 c 0,6,7
 208 602 208 602 179 573.5 c 128,-1,8
 150 545 150 545 150 507.5 c 128,-1,9
 150 470 150 470 172 441 c 1,10,11
 151 418 151 418 120 418 c 128,-1,12
 89 418 89 418 70.5 437 c 128,-1,13
 52 456 52 456 52 497 c 0,14,15
 52 558 52 558 112.5 605 c 128,-1,16
 173 652 173 652 263 652 c 128,-1,17
 353 652 353 652 409 603 c 128,-1,18
 465 554 465 554 465 470.5 c 128,-1,19
 465 387 465 387 396 296 c 128,-1,20
 327 205 327 205 164 79 c 1,21,-1
 491 79 l 1,22,-1
 491 0 l 1,23,-1
 51 0 l 1,0,-1
EndSplineSet
EndChar

StartChar: three
Encoding: 51 51 22
Width: 521
GlyphClass: 2
Flags: W
LayerCount: 2
Fore
SplineSet
191 316 m 1,0,-1
 191 363 l 1,1,2
 272 365 272 365 315.5 399 c 128,-1,3
 359 433 359 433 359 490.5 c 128,-1,4
 359 548 359 548 333 575.5 c 128,-1,5
 307 603 307 603 259 603 c 128,-1,6
 211 603 211 603 184.5 577 c 128,-1,7
 158 551 158 551 158 512 c 0,8,9
 158 490 158 490 169 471 c 1,10,11
 144 452 144 452 118 452 c 128,-1,12
 92 452 92 452 78 471 c 128,-1,13
 64 490 64 490 64 521 c 0,14,15
 64 576 64 576 120 614.5 c 128,-1,16
 176 653 176 653 262.5 653 c 128,-1,17
 349 653 349 653 403.5 609.5 c 128,-1,18
 458 566 458 566 458 497 c 0,19,20
 458 385 458 385 320 341 c 1,21,22
 466 306 466 306 466 176 c 0,23,24
 466 96 466 96 407 44.5 c 128,-1,25
 348 -7 348 -7 250 -7 c 128,-1,26
 152 -7 152 -7 95 32 c 128,-1,27
 38 71 38 71 38 139 c 0,28,29
 38 167 38 167 56 182.5 c 128,-1,30
 74 198 74 198 101 198 c 128,-1,31
 128 198 128 198 151 180 c 1,32,33
 142 156 142 156 142 134 c 0,34,35
 142 93 142 93 172.5 68 c 128,-1,36
 203 43 203 43 257 43 c 128,-1,37
 311 43 311 43 341.5 79 c 128,-1,38
 372 115 372 115 372 178 c 128,-1,39
 372 241 372 241 326 278.5 c 128,-1,40
 280 316 280 316 191 316 c 1,0,-1
EndSplineSet
EndChar

StartChar: four
Encoding: 52 52 23
Width: 538
GlyphClass: 2
Flags: W
LayerCount: 2
Fore
SplineSet
330 222 m 1,0,-1
 330 396 l 1,1,2
 356 397 356 397 375.5 409 c 128,-1,3
 395 421 395 421 401 441 c 1,4,-1
 425 441 l 1,5,-1
 425 223 l 1,6,-1
 518 203 l 1,7,-1
 518 162 l 1,8,-1
 421 162 l 1,9,-1
 421 1 l 1,10,-1
 330 1 l 1,11,-1
 330 162 l 1,12,-1
 28 162 l 1,13,-1
 20 198 l 1,14,-1
 241 642 l 1,15,16
 303 642 303 642 331 617 c 1,17,-1
 105 222 l 1,18,-1
 330 222 l 1,0,-1
EndSplineSet
EndChar

StartChar: five
Encoding: 53 53 24
Width: 532
GlyphClass: 2
Flags: W
LayerCount: 2
Fore
SplineSet
132 646 m 1,0,1
 219 643 219 643 286 643 c 128,-1,2
 353 643 353 643 425 645 c 1,3,-1
 446 629 l 1,4,5
 444 590 444 590 438 567 c 1,6,-1
 168 567 l 1,7,-1
 150 382 l 1,8,9
 214 410 214 410 276 410 c 0,10,11
 373 410 373 410 429.5 357 c 128,-1,12
 486 304 486 304 486 209.5 c 128,-1,13
 486 115 486 115 424.5 53 c 128,-1,14
 363 -9 363 -9 267 -9 c 128,-1,15
 171 -9 171 -9 111 30 c 128,-1,16
 51 69 51 69 51 130 c 0,17,18
 51 161 51 161 67.5 178.5 c 128,-1,19
 84 196 84 196 113 196 c 128,-1,20
 142 196 142 196 164 178 c 1,21,22
 155 157 155 157 155 135 c 0,23,24
 155 94 155 94 185.5 67.5 c 128,-1,25
 216 41 216 41 264 41 c 0,26,27
 392 41 392 41 392 207 c 0,28,29
 392 279 392 279 357 318 c 128,-1,30
 322 357 322 357 255.5 357 c 128,-1,31
 189 357 189 357 113 314 c 1,32,-1
 84 344 l 1,33,-1
 112 630 l 1,34,-1
 132 646 l 1,0,1
EndSplineSet
EndChar

StartChar: six
Encoding: 54 54 25
Width: 542
GlyphClass: 2
Flags: W
LayerCount: 2
Fore
SplineSet
293 392 m 0,0,1
 384 392 384 392 440.5 340 c 128,-1,2
 497 288 497 288 497 199 c 128,-1,3
 497 110 497 110 436.5 52 c 128,-1,4
 376 -6 376 -6 270.5 -6 c 128,-1,5
 165 -6 165 -6 107.5 59.5 c 128,-1,6
 50 125 50 125 50 245 c 0,7,8
 50 405 50 405 146.5 509 c 128,-1,9
 243 613 243 613 408 660 c 1,10,-1
 425 622 l 1,11,12
 314 577 314 577 249 514 c 128,-1,13
 184 451 184 451 161 354 c 1,14,15
 222 392 222 392 293 392 c 0,0,1
150 245 m 0,16,17
 150 44 150 44 278 44 c 0,18,19
 335 44 335 44 366 85.5 c 128,-1,20
 397 127 397 127 397 197.5 c 128,-1,21
 397 268 397 268 367.5 305 c 128,-1,22
 338 342 338 342 283 342 c 0,23,24
 206 342 206 342 151 281 c 1,25,26
 150 269 150 269 150 245 c 0,16,17
EndSplineSet
EndChar

StartChar: seven
Encoding: 55 55 26
Width: 481
GlyphClass: 2
Flags: W
LayerCount: 2
Fore
SplineSet
232 115 m 0,0,1
 232 61 232 61 269 34 c 1,2,3
 233 -8 233 -8 201.5 -8 c 128,-1,4
 170 -8 170 -8 149 20 c 128,-1,5
 128 48 128 48 128 91 c 0,6,7
 128 146 128 146 148 190 c 0,8,9
 182 264 182 264 227.5 330 c 128,-1,10
 273 396 273 396 289 419 c 128,-1,11
 305 442 305 442 337.5 488.5 c 128,-1,12
 370 535 370 535 392 567 c 1,13,-1
 106 567 l 1,14,15
 88 515 88 515 83 452 c 1,16,17
 72 449 72 449 62 449 c 128,-1,18
 52 449 52 449 41 452 c 1,19,20
 38 497 38 497 31.5 556.5 c 128,-1,21
 25 616 25 616 25 628 c 1,22,-1
 40 645 l 1,23,24
 135 643 135 643 242 643 c 1,25,-1
 448 645 l 1,26,-1
 467 598 l 1,27,28
 444 566 444 566 394.5 484 c 128,-1,29
 345 402 345 402 314 343.5 c 128,-1,30
 283 285 283 285 257.5 219 c 128,-1,31
 232 153 232 153 232 115 c 0,0,1
EndSplineSet
EndChar

StartChar: eight
Encoding: 56 56 27
Width: 566
GlyphClass: 2
Flags: W
LayerCount: 2
Fore
SplineSet
81 489 m 0,0,1
 81 563 81 563 137 607.5 c 128,-1,2
 193 652 193 652 284 652 c 128,-1,3
 375 652 375 652 427.5 610.5 c 128,-1,4
 480 569 480 569 480 497 c 0,5,6
 480 456 480 456 450.5 418.5 c 128,-1,7
 421 381 421 381 371 353 c 1,8,9
 437 324 437 324 474 283 c 128,-1,10
 511 242 511 242 511 166.5 c 128,-1,11
 511 91 511 91 449.5 42.5 c 128,-1,12
 388 -6 388 -6 283 -6 c 128,-1,13
 178 -6 178 -6 116.5 39 c 128,-1,14
 55 84 55 84 55 169 c 0,15,16
 55 271 55 271 182 344 c 1,17,18
 81 394 81 394 81 489 c 0,0,1
152 174 m 0,19,20
 152 114 152 114 187.5 79 c 128,-1,21
 223 44 223 44 284.5 44 c 128,-1,22
 346 44 346 44 380 79 c 128,-1,23
 414 114 414 114 414 174 c 0,24,25
 414 216 414 216 392 240 c 0,26,27
 380 253 380 253 370 262 c 128,-1,28
 360 271 360 271 338 281.5 c 128,-1,29
 316 292 316 292 304.5 296.5 c 128,-1,30
 293 301 293 301 265.5 311 c 128,-1,31
 238 321 238 321 228 325 c 1,32,33
 152 275 152 275 152 174 c 0,19,20
388 498 m 0,34,35
 388 547 388 547 358.5 575 c 128,-1,36
 329 603 329 603 280 603 c 128,-1,37
 231 603 231 603 202 574.5 c 128,-1,38
 173 546 173 546 173 496 c 0,39,40
 173 443 173 443 236 411 c 0,41,42
 265 396 265 396 319 375 c 1,43,44
 388 420 388 420 388 498 c 0,34,35
EndSplineSet
EndChar

StartChar: nine
Encoding: 57 57 28
Width: 537
GlyphClass: 2
Flags: W
LayerCount: 2
Fore
SplineSet
245 257 m 0,0,1
 154 257 154 257 97.5 309 c 128,-1,2
 41 361 41 361 41 450 c 128,-1,3
 41 539 41 539 101.5 597 c 128,-1,4
 162 655 162 655 267.5 655 c 128,-1,5
 373 655 373 655 430.5 589.5 c 128,-1,6
 488 524 488 524 488 404 c 0,7,8
 488 244 488 244 391.5 140 c 128,-1,9
 295 36 295 36 130 -11 c 1,10,-1
 113 27 l 1,11,12
 223 72 223 72 288.5 134.5 c 128,-1,13
 354 197 354 197 376 294 c 1,14,15
 315 257 315 257 245 257 c 0,0,1
387 368 m 1,16,-1
 388 404 l 1,17,18
 388 605 388 605 260 605 c 0,19,20
 203 605 203 605 172 563.5 c 128,-1,21
 141 522 141 522 141 451.5 c 128,-1,22
 141 381 141 381 170.5 344 c 128,-1,23
 200 307 200 307 255 307 c 0,24,25
 331 307 331 307 387 368 c 1,16,-1
EndSplineSet
EndChar

StartChar: colon
Encoding: 58 58 29
Width: 211
GlyphClass: 2
Flags: W
LayerCount: 2
Fore
SplineSet
113 7 m 128,-1,1
 89 7 89 7 75 23 c 128,-1,2
 61 39 61 39 61 62 c 128,-1,3
 61 85 61 85 75.5 100.5 c 128,-1,4
 90 116 90 116 113.5 116 c 128,-1,5
 137 116 137 116 151.5 100.5 c 128,-1,6
 166 85 166 85 166 62 c 128,-1,7
 166 39 166 39 151.5 23 c 128,-1,0
 137 7 137 7 113 7 c 128,-1,1
113 360 m 128,-1,9
 89 360 89 360 75 376 c 128,-1,10
 61 392 61 392 61 415 c 128,-1,11
 61 438 61 438 75.5 453.5 c 128,-1,12
 90 469 90 469 113.5 469 c 128,-1,13
 137 469 137 469 151.5 453.5 c 128,-1,14
 166 438 166 438 166 415 c 128,-1,15
 166 392 166 392 151.5 376 c 128,-1,8
 137 360 137 360 113 360 c 128,-1,9
EndSplineSet
EndChar

StartChar: semicolon
Encoding: 59 59 30
Width: 220
GlyphClass: 2
Flags: W
LayerCount: 2
Fore
SplineSet
125 -18 m 0,0,1
 125 18 125 18 94 18 c 0,2,3
 91 18 91 18 75 14 c 1,4,5
 62 27 62 27 62 51 c 128,-1,6
 62 75 62 75 79 89.5 c 128,-1,7
 96 104 96 104 123.5 104 c 128,-1,8
 151 104 151 104 168 83 c 128,-1,9
 185 62 185 62 185 28 c 0,10,11
 185 -74 185 -74 82 -137 c 1,12,-1
 64 -112 l 1,13,14
 125 -71 125 -71 125 -18 c 0,0,1
121 360 m 128,-1,16
 97 360 97 360 83 376 c 128,-1,17
 69 392 69 392 69 415 c 128,-1,18
 69 438 69 438 83.5 453.5 c 128,-1,19
 98 469 98 469 121.5 469 c 128,-1,20
 145 469 145 469 159.5 453.5 c 128,-1,21
 174 438 174 438 174 415 c 128,-1,22
 174 392 174 392 159.5 376 c 128,-1,15
 145 360 145 360 121 360 c 128,-1,16
EndSplineSet
EndChar

StartChar: less
Encoding: 60 60 31
Width: 570
GlyphClass: 2
Flags: W
LayerCount: 2
Fore
SplineSet
65 261 m 1,0,-1
 65 316 l 1,1,-1
 478 512 l 1,2,-1
 505 457 l 1,3,-1
 150 288 l 1,4,-1
 505 120 l 1,5,-1
 478 65 l 1,6,-1
 65 261 l 1,0,-1
EndSplineSet
EndChar

StartChar: equal
Encoding: 61 61 32
Width: 545
GlyphClass: 2
Flags: W
LayerCount: 2
Fore
SplineSet
67 180 m 1,0,-1
 67 237 l 1,1,-1
 478 237 l 1,2,-1
 478 180 l 1,3,-1
 67 180 l 1,0,-1
67 334 m 1,4,-1
 67 391 l 1,5,-1
 478 391 l 1,6,-1
 478 334 l 1,7,-1
 67 334 l 1,4,-1
EndSplineSet
EndChar

StartChar: greater
Encoding: 62 62 33
Width: 570
GlyphClass: 2
Flags: W
LayerCount: 2
Fore
SplineSet
92 65 m 1,0,-1
 65 120 l 1,1,-1
 420 288 l 1,2,-1
 65 457 l 1,3,-1
 92 512 l 1,4,-1
 505 315 l 1,5,-1
 505 261 l 1,6,-1
 92 65 l 1,0,-1
EndSplineSet
EndChar

StartChar: question
Encoding: 63 63 34
Width: 428
GlyphClass: 2
Flags: W
LayerCount: 2
Fore
SplineSet
179 196 m 128,-1,1
 154 196 154 196 140 215.5 c 128,-1,2
 126 235 126 235 126 269 c 128,-1,3
 126 303 126 303 144.5 335.5 c 128,-1,4
 163 368 163 368 190 391 c 128,-1,5
 217 414 217 414 244 437 c 0,6,7
 308 492 308 492 308 561 c 0,8,9
 308 596 308 596 282.5 617.5 c 128,-1,10
 257 639 257 639 222 639 c 128,-1,11
 187 639 187 639 165.5 625.5 c 128,-1,12
 144 612 144 612 144 589 c 128,-1,13
 144 566 144 566 156 545 c 1,14,15
 135 513 135 513 104 513 c 0,16,17
 51 513 51 513 51 571 c 128,-1,18
 51 629 51 629 100.5 657 c 128,-1,19
 150 685 150 685 223 685 c 128,-1,20
 296 685 296 685 344.5 652 c 128,-1,21
 393 619 393 619 393 548 c 0,22,23
 393 470 393 470 332 410 c 0,24,25
 306 385 306 385 281 362 c 0,26,27
 220 306 220 306 220 261 c 0,28,29
 220 240 220 240 226 214 c 1,30,0
 204 196 204 196 179 196 c 128,-1,1
181 -7 m 128,-1,32
 157 -7 157 -7 143 9 c 128,-1,33
 129 25 129 25 129 48 c 128,-1,34
 129 71 129 71 143.5 86.5 c 128,-1,35
 158 102 158 102 181.5 102 c 128,-1,36
 205 102 205 102 219.5 86.5 c 128,-1,37
 234 71 234 71 234 48 c 128,-1,38
 234 25 234 25 219.5 9 c 128,-1,31
 205 -7 205 -7 181 -7 c 128,-1,32
EndSplineSet
EndChar

StartChar: at
Encoding: 64 64 35
Width: 960
GlyphClass: 2
Flags: W
LayerCount: 2
Fore
SplineSet
481 -186 m 0,0,1
 290 -186 290 -186 175 -64.5 c 128,-1,2
 60 57 60 57 60 238 c 128,-1,3
 60 419 60 419 178 540.5 c 128,-1,4
 296 662 296 662 490 662 c 128,-1,5
 684 662 684 662 796 557 c 128,-1,6
 908 452 908 452 908 288 c 0,7,8
 908 160 908 160 856.5 78.5 c 128,-1,9
 805 -3 805 -3 709 -3 c 0,10,11
 593 -3 593 -3 565 54 c 1,12,13
 504 1 504 1 427 1 c 0,14,15
 368 1 368 1 336 31.5 c 128,-1,16
 304 62 304 62 304 117 c 0,17,18
 304 249 304 249 481 264 c 2,19,-1
 556 270 l 1,20,-1
 556 343 l 2,21,22
 556 393 556 393 537 416.5 c 128,-1,23
 518 440 518 440 480 440 c 0,24,25
 401 440 401 440 401 392 c 0,26,27
 401 370 401 370 432 358 c 1,28,29
 432 306 432 306 372 306 c 0,30,31
 344 306 344 306 328 323 c 128,-1,32
 312 340 312 340 312 366 c 0,33,34
 312 419 312 419 357.5 449.5 c 128,-1,35
 403 480 403 480 480 480 c 128,-1,36
 557 480 557 480 601.5 443.5 c 128,-1,37
 646 407 646 407 646 343 c 2,38,-1
 646 117 l 2,39,40
 646 48 646 48 715 48 c 0,41,42
 760 48 760 48 786 118 c 128,-1,43
 812 188 812 188 812 288 c 0,44,45
 812 431 812 431 731.5 523.5 c 128,-1,46
 651 616 651 616 495.5 616 c 128,-1,47
 340 616 340 616 248 507.5 c 128,-1,48
 156 399 156 399 156 238 c 128,-1,49
 156 77 156 77 245 -31.5 c 128,-1,50
 334 -140 334 -140 481 -140 c 0,51,52
 574 -140 574 -140 645 -95 c 1,53,-1
 675 -134 l 1,54,55
 595 -186 595 -186 481 -186 c 0,0,1
393 126 m 0,56,57
 393 48 393 48 453 48 c 0,58,59
 501 48 501 48 556 103 c 1,60,-1
 556 224 l 1,61,-1
 485 218 l 2,62,63
 442 214 442 214 417.5 188.5 c 128,-1,64
 393 163 393 163 393 126 c 0,56,57
EndSplineSet
EndChar

StartChar: A
Encoding: 65 65 36
Width: 709
GlyphClass: 2
Flags: W
LayerCount: 2
Fore
SplineSet
0 0 m 1,0,-1
 6 40 l 1,1,2
 59 47 59 47 88 68 c 1,3,-1
 310 677 l 1,4,-1
 392 677 l 1,5,-1
 632 67 l 1,6,7
 657 48 657 48 709 40 c 1,8,-1
 704 0 l 1,9,-1
 419 0 l 1,10,-1
 425 40 l 1,11,12
 489 47 489 47 520 67 c 1,13,-1
 459 227 l 1,14,-1
 216 227 l 1,15,-1
 159 66 l 1,16,17
 192 48 192 48 259 40 c 1,18,-1
 254 0 l 1,19,-1
 0 0 l 1,0,-1
236 283 m 1,20,-1
 438 283 l 1,21,-1
 333 557 l 1,22,-1
 236 283 l 1,20,-1
EndSplineSet
EndChar

StartChar: B
Encoding: 66 66 37
Width: 650
GlyphClass: 2
Flags: W
LayerCount: 2
Fore
SplineSet
329 676 m 2,0,1
 572 676 572 676 572 507 c 0,2,3
 572 395 572 395 454 360 c 1,4,5
 523 339 523 339 562 295.5 c 128,-1,6
 601 252 601 252 601 191 c 0,7,8
 601 103 601 103 536.5 51.5 c 128,-1,9
 472 0 472 0 357 0 c 2,10,-1
 43 0 l 1,11,-1
 49 40 l 1,12,13
 111 47 111 47 146 68 c 1,14,-1
 146 608 l 1,15,16
 111 629 111 629 43 636 c 1,17,-1
 48 676 l 1,18,-1
 329 676 l 2,0,1
241 53 m 1,19,-1
 357 53 l 2,20,21
 429 53 429 53 466 88 c 128,-1,22
 503 123 503 123 503 190 c 128,-1,23
 503 257 503 257 459.5 293.5 c 128,-1,24
 416 330 416 330 330 330 c 2,25,-1
 241 330 l 1,26,-1
 241 53 l 1,19,-1
241 383 m 1,27,-1
 331 383 l 2,28,29
 407 383 407 383 442.5 413 c 128,-1,30
 478 443 478 443 478 505 c 128,-1,31
 478 567 478 567 442 596.5 c 128,-1,32
 406 626 406 626 328 626 c 0,33,34
 298 626 298 626 241 623 c 1,35,-1
 241 383 l 1,27,-1
EndSplineSet
EndChar

StartChar: C
Encoding: 67 67 38
Width: 605
GlyphClass: 2
Flags: W
LayerCount: 2
Fore
SplineSet
354 -7 m 0,0,1
 195 -7 195 -7 121.5 76 c 128,-1,2
 48 159 48 159 48 336 c 0,3,4
 48 682 48 682 354 682 c 0,5,6
 474 682 474 682 536 623 c 0,7,8
 570 590 570 590 570 548 c 128,-1,9
 570 506 570 506 551.5 482 c 128,-1,10
 533 458 533 458 509.5 458 c 128,-1,11
 486 458 486 458 468.5 469.5 c 128,-1,12
 451 481 451 481 446 500 c 1,13,14
 466 529 466 529 466 559.5 c 128,-1,15
 466 590 466 590 435.5 608.5 c 128,-1,16
 405 627 405 627 355 627 c 0,17,18
 248 627 248 627 201 558.5 c 128,-1,19
 154 490 154 490 154 336 c 128,-1,20
 154 182 154 182 200 115 c 128,-1,21
 246 48 246 48 354 48 c 0,22,23
 389 48 389 48 428 62 c 0,24,25
 503 90 503 90 533 173 c 1,26,-1
 583 155 l 1,27,28
 567 112 567 112 540 79.5 c 128,-1,29
 513 47 513 47 487 31 c 128,-1,30
 461 15 461 15 430 6 c 0,31,32
 386 -7 386 -7 354 -7 c 0,0,1
EndSplineSet
EndChar

StartChar: D
Encoding: 68 68 39
Width: 710
GlyphClass: 2
Flags: W
LayerCount: 2
Fore
SplineSet
292 676 m 2,0,1
 478 676 478 676 570.5 594.5 c 128,-1,2
 663 513 663 513 663 336.5 c 128,-1,3
 663 160 663 160 570 80 c 128,-1,4
 477 0 477 0 286 0 c 2,5,-1
 43 0 l 1,6,-1
 49 40 l 1,7,8
 111 47 111 47 146 68 c 1,9,-1
 146 608 l 1,10,11
 110 628 110 628 43 636 c 1,12,-1
 48 676 l 1,13,-1
 292 676 l 2,0,1
307 623 m 1,14,-1
 241 622 l 1,15,-1
 241 53 l 1,16,-1
 304 53 l 2,17,18
 431 53 431 53 493.5 117 c 128,-1,19
 556 181 556 181 556 337 c 128,-1,20
 556 493 556 493 494.5 558 c 128,-1,21
 433 623 433 623 307 623 c 1,14,-1
EndSplineSet
EndChar

StartChar: E
Encoding: 69 69 40
Width: 633
GlyphClass: 2
Flags: W
LayerCount: 2
Fore
SplineSet
567 514 m 1,0,1
 555 509 555 509 540.5 509 c 128,-1,2
 526 509 526 509 521 510 c 1,3,4
 507 575 507 575 471 619 c 1,5,-1
 241 619 l 1,6,-1
 241 370 l 1,7,-1
 396 381 l 2,8,9
 439 384 439 384 456 452 c 1,10,-1
 490 452 l 1,11,-1
 490 242 l 1,12,-1
 456 242 l 1,13,14
 441 317 441 317 395 320 c 2,15,-1
 241 331 l 1,16,-1
 241 61 l 1,17,-1
 497 61 l 1,18,19
 533 109 533 109 548 182 c 1,20,21
 562 184 562 184 568 184 c 128,-1,22
 574 184 574 184 592 182 c 1,23,-1
 582 0 l 1,24,-1
 43 0 l 1,25,-1
 49 40 l 1,26,27
 120 48 120 48 146 68 c 1,28,-1
 146 608 l 1,29,30
 110 628 110 628 43 636 c 1,31,-1
 48 676 l 1,32,-1
 558 676 l 1,33,-1
 567 514 l 1,0,1
EndSplineSet
EndChar

StartChar: F
Encoding: 70 70 41
Width: 600
GlyphClass: 2
Flags: W
LayerCount: 2
Fore
SplineSet
567 514 m 1,0,1
 552 509 552 509 539 509 c 128,-1,2
 526 509 526 509 521 510 c 1,3,4
 507 575 507 575 471 619 c 1,5,-1
 241 619 l 1,6,-1
 241 370 l 1,7,-1
 396 381 l 2,8,9
 439 384 439 384 456 452 c 1,10,-1
 490 452 l 1,11,-1
 490 242 l 1,12,-1
 456 242 l 1,13,14
 441 317 441 317 395 320 c 2,15,-1
 241 331 l 1,16,-1
 241 68 l 1,17,18
 272 48 272 48 344 40 c 1,19,-1
 339 0 l 1,20,-1
 43 0 l 1,21,-1
 49 40 l 1,22,23
 120 48 120 48 146 68 c 1,24,-1
 146 608 l 1,25,26
 110 628 110 628 43 636 c 1,27,-1
 48 676 l 1,28,-1
 558 676 l 1,29,-1
 567 514 l 1,0,1
EndSplineSet
EndChar

StartChar: G
Encoding: 71 71 42
Width: 658
GlyphClass: 2
Flags: W
LayerCount: 2
Fore
SplineSet
344 -7 m 0,0,1
 192 -7 192 -7 120 76.5 c 128,-1,2
 48 160 48 160 48 336 c 0,3,4
 48 681 48 681 354 681 c 0,5,6
 475 681 475 681 540 620 c 0,7,8
 576 586 576 586 576 535 c 0,9,10
 576 503 576 503 557 480.5 c 128,-1,11
 538 458 538 458 515 458 c 128,-1,12
 492 458 492 458 474.5 469.5 c 128,-1,13
 457 481 457 481 452 500 c 1,14,15
 472 529 472 529 472 558.5 c 128,-1,16
 472 588 472 588 438 607 c 128,-1,17
 404 626 404 626 355 626 c 0,18,19
 248 626 248 626 201 557.5 c 128,-1,20
 154 489 154 489 154 336 c 128,-1,21
 154 183 154 183 198.5 115.5 c 128,-1,22
 243 48 243 48 344 48 c 0,23,24
 416 48 416 48 483 71 c 1,25,-1
 483 267 l 1,26,-1
 378 275 l 1,27,-1
 378 315 l 1,28,-1
 576 330 l 1,29,-1
 576 43 l 1,30,31
 456 -7 456 -7 344 -7 c 0,0,1
EndSplineSet
EndChar

StartChar: H
Encoding: 72 72 43
Width: 796
GlyphClass: 2
Flags: W
LayerCount: 2
Fore
SplineSet
241 375 m 1,0,-1
 555 375 l 1,1,-1
 555 608 l 1,2,3
 519 628 519 628 452 636 c 1,4,-1
 457 676 l 1,5,-1
 753 676 l 1,6,-1
 747 636 l 1,7,8
 685 629 685 629 650 608 c 1,9,-1
 650 68 l 1,10,11
 686 48 686 48 753 40 c 1,12,-1
 748 0 l 1,13,-1
 452 0 l 1,14,-1
 458 40 l 1,15,16
 520 47 520 47 555 68 c 1,17,-1
 555 319 l 1,18,-1
 241 319 l 1,19,-1
 241 68 l 1,20,21
 277 48 277 48 344 40 c 1,22,-1
 339 0 l 1,23,-1
 43 0 l 1,24,-1
 49 40 l 1,25,26
 111 47 111 47 146 68 c 1,27,-1
 146 608 l 1,28,29
 110 628 110 628 43 636 c 1,30,-1
 48 676 l 1,31,-1
 344 676 l 1,32,-1
 338 636 l 1,33,34
 276 629 276 629 241 608 c 1,35,-1
 241 375 l 1,0,-1
EndSplineSet
EndChar

StartChar: I
Encoding: 73 73 44
Width: 401
GlyphClass: 2
Flags: W
LayerCount: 2
Fore
SplineSet
50 0 m 1,0,-1
 56 40 l 1,1,2
 118 47 118 47 153 68 c 1,3,-1
 153 608 l 1,4,5
 117 628 117 628 50 636 c 1,6,-1
 55 676 l 1,7,-1
 351 676 l 1,8,-1
 345 636 l 1,9,10
 283 629 283 629 248 608 c 1,11,-1
 248 68 l 1,12,13
 284 48 284 48 351 40 c 1,14,-1
 346 0 l 1,15,-1
 50 0 l 1,0,-1
EndSplineSet
EndChar

StartChar: J
Encoding: 74 74 45
Width: 360
GlyphClass: 2
Flags: W
LayerCount: 2
Fore
SplineSet
146 33 m 2,0,-1
 146 608 l 1,1,2
 110 628 110 628 43 636 c 1,3,-1
 48 676 l 1,4,-1
 344 676 l 1,5,-1
 338 636 l 1,6,7
 276 629 276 629 241 608 c 1,8,-1
 241 49 l 2,9,10
 241 -45 241 -45 187.5 -98.5 c 128,-1,11
 134 -152 134 -152 33 -179 c 1,12,-1
 21 -146 l 1,13,14
 78 -121 78 -121 112 -80 c 128,-1,15
 146 -39 146 -39 146 33 c 2,0,-1
EndSplineSet
EndChar

StartChar: K
Encoding: 75 75 46
Width: 677
GlyphClass: 2
Flags: W
LayerCount: 2
Fore
SplineSet
43 0 m 1,0,-1
 49 40 l 1,1,2
 111 47 111 47 146 68 c 1,3,-1
 146 608 l 1,4,5
 110 628 110 628 43 636 c 1,6,-1
 48 676 l 1,7,-1
 344 676 l 1,8,-1
 338 636 l 1,9,10
 276 629 276 629 241 608 c 1,11,-1
 241 68 l 1,12,13
 277 48 277 48 344 40 c 1,14,-1
 339 0 l 1,15,-1
 43 0 l 1,0,-1
460 604 m 0,16,17
 460 630 460 630 396 634 c 1,18,-1
 403 676 l 1,19,-1
 653 676 l 1,20,-1
 649 636 l 1,21,22
 572 631 572 631 544 595 c 1,23,-1
 350 379 l 1,24,-1
 573 87 l 1,25,26
 608 49 608 49 677 41 c 1,27,-1
 671 0 l 1,28,-1
 503 0 l 1,29,30
 503 26 503 26 485 51 c 2,31,-1
 250 359 l 1,32,-1
 451 584 l 2,33,34
 460 593 460 593 460 604 c 0,16,17
EndSplineSet
EndChar

StartChar: L
Encoding: 76 76 47
Width: 566
GlyphClass: 2
Flags: W
LayerCount: 2
Fore
SplineSet
241 61 m 1,0,-1
 471 61 l 1,1,2
 490 85 490 85 499.5 123 c 128,-1,3
 509 161 509 161 510 164 c 1,4,-1
 553 158 l 1,5,-1
 526 0 l 1,6,-1
 43 0 l 1,7,-1
 49 40 l 1,8,9
 111 47 111 47 146 68 c 1,10,-1
 146 608 l 1,11,12
 110 628 110 628 43 636 c 1,13,-1
 48 676 l 1,14,-1
 344 676 l 1,15,-1
 338 636 l 1,16,17
 276 629 276 629 241 608 c 1,18,-1
 241 61 l 1,0,-1
EndSplineSet
EndChar

StartChar: M
Encoding: 77 77 48
Width: 947
GlyphClass: 2
Flags: W
LayerCount: 2
Fore
SplineSet
710 68 m 1,0,-1
 710 566 l 1,1,-1
 498 0 l 1,2,-1
 434 0 l 1,3,-1
 211 575 l 1,4,-1
 211 68 l 1,5,6
 247 48 247 48 314 40 c 1,7,-1
 309 0 l 1,8,-1
 39 0 l 1,9,-1
 45 40 l 1,10,11
 107 47 107 47 142 68 c 1,12,-1
 142 608 l 1,13,14
 106 628 106 628 39 636 c 1,15,-1
 44 676 l 1,16,-1
 266 676 l 1,17,-1
 481 133 l 1,18,-1
 688 676 l 1,19,-1
 908 676 l 1,20,-1
 902 636 l 1,21,22
 840 629 840 629 805 608 c 1,23,-1
 805 68 l 1,24,25
 841 48 841 48 908 40 c 1,26,-1
 903 0 l 1,27,-1
 611 0 l 1,28,-1
 617 40 l 1,29,30
 679 47 679 47 714 68 c 1,31,-1
 710 68 l 1,0,-1
EndSplineSet
EndChar

StartChar: N
Encoding: 78 78 49
Width: 759
GlyphClass: 2
Flags: W
LayerCount: 2
Fore
SplineSet
641 0 m 1,0,-1
 576 0 l 1,1,-1
 202 520 l 1,2,-1
 202 68 l 1,3,4
 238 48 238 48 305 40 c 1,5,-1
 300 0 l 1,6,-1
 30 0 l 1,7,-1
 36 40 l 1,8,9
 98 47 98 47 133 68 c 1,10,-1
 133 608 l 1,11,12
 97 628 97 628 30 636 c 1,13,-1
 35 676 l 1,14,-1
 213 676 l 1,15,-1
 572 177 l 1,16,-1
 572 608 l 1,17,18
 536 628 536 628 469 636 c 1,19,-1
 474 676 l 1,20,-1
 744 676 l 1,21,-1
 738 636 l 1,22,23
 676 629 676 629 641 608 c 1,24,-1
 641 0 l 1,0,-1
EndSplineSet
EndChar

StartChar: O
Encoding: 79 79 50
Width: 688
GlyphClass: 2
Flags: W
LayerCount: 2
Fore
SplineSet
344 48 m 128,-1,1
 449 48 449 48 492 116 c 128,-1,2
 535 184 535 184 535 338 c 128,-1,3
 535 492 535 492 492 559.5 c 128,-1,4
 449 627 449 627 344 627 c 128,-1,5
 239 627 239 627 196.5 559.5 c 128,-1,6
 154 492 154 492 154 338 c 128,-1,7
 154 184 154 184 196.5 116 c 128,-1,0
 239 48 239 48 344 48 c 128,-1,1
344 -6 m 128,-1,9
 48 -6 48 -6 48 337.5 c 128,-1,10
 48 681 48 681 344 681 c 128,-1,11
 640 681 640 681 640 337.5 c 128,-1,8
 640 -6 640 -6 344 -6 c 128,-1,9
EndSplineSet
EndChar

StartChar: P
Encoding: 80 80 51
Width: 610
GlyphClass: 2
Flags: W
LayerCount: 2
Fore
SplineSet
338 676 m 2,0,1
 574 676 574 676 574 487 c 0,2,3
 574 380 574 380 501.5 337 c 128,-1,4
 429 294 429 294 291 294 c 2,5,-1
 242 294 l 1,6,-1
 242 68 l 1,7,8
 278 48 278 48 345 40 c 1,9,-1
 340 0 l 1,10,-1
 44 0 l 1,11,-1
 50 40 l 1,12,13
 112 47 112 47 147 68 c 1,14,-1
 147 608 l 1,15,16
 111 628 111 628 44 636 c 1,17,-1
 49 676 l 1,18,-1
 338 676 l 2,0,1
242 343 m 1,19,-1
 291 343 l 2,20,21
 477 343 477 343 477 489 c 0,22,23
 477 560 477 560 441 595.5 c 128,-1,24
 405 631 405 631 338 631 c 0,25,26
 302 631 302 631 242 622 c 1,27,-1
 242 343 l 1,19,-1
EndSplineSet
EndChar

StartChar: Q
Encoding: 81 81 52
Width: 688
GlyphClass: 2
Flags: W
LayerCount: 2
Fore
SplineSet
48 338 m 0,0,1
 48 681 48 681 344 681 c 128,-1,2
 640 681 640 681 640 338 c 0,3,4
 640 32 640 32 407 -1 c 1,5,6
 426 -50 426 -50 469.5 -88.5 c 128,-1,7
 513 -127 513 -127 569 -146 c 1,8,9
 571 -150 571 -150 571 -159.5 c 128,-1,10
 571 -169 571 -169 559 -179 c 1,11,12
 392 -149 392 -149 321 -5 c 1,13,14
 48 7 48 7 48 338 c 0,0,1
344 48 m 128,-1,16
 449 48 449 48 492 116 c 128,-1,17
 535 184 535 184 535 338 c 128,-1,18
 535 492 535 492 492 559.5 c 128,-1,19
 449 627 449 627 344 627 c 128,-1,20
 239 627 239 627 196.5 559.5 c 128,-1,21
 154 492 154 492 154 338 c 128,-1,22
 154 184 154 184 196.5 116 c 128,-1,15
 239 48 239 48 344 48 c 128,-1,16
EndSplineSet
EndChar

StartChar: R
Encoding: 82 82 53
Width: 683
GlyphClass: 2
Flags: W
LayerCount: 2
Fore
SplineSet
342 676 m 2,0,1
 588 676 588 676 588 497 c 0,2,3
 588 363 588 363 442 328 c 1,4,5
 474 308 474 308 505 245 c 1,6,-1
 588 68 l 1,7,8
 616 49 616 49 677 41 c 1,9,-1
 671 0 l 1,10,-1
 509 0 l 1,11,-1
 417 225 l 2,12,13
 391 287 391 287 370.5 300.5 c 128,-1,14
 350 314 350 314 283 314 c 2,15,-1
 246 314 l 1,16,-1
 246 68 l 1,17,18
 273 51 273 51 349 40 c 1,19,-1
 344 0 l 1,20,-1
 48 0 l 1,21,-1
 54 40 l 1,22,23
 116 47 116 47 151 68 c 1,24,-1
 151 608 l 1,25,26
 116 629 116 629 48 636 c 1,27,-1
 53 676 l 1,28,-1
 342 676 l 2,0,1
246 363 m 1,29,-1
 295 363 l 2,30,31
 491 363 491 363 491 499 c 0,32,33
 491 631 491 631 342 631 c 0,34,35
 302 631 302 631 246 622 c 1,36,-1
 246 363 l 1,29,-1
EndSplineSet
EndChar

StartChar: S
Encoding: 83 83 54
Width: 567
GlyphClass: 2
Flags: W
LayerCount: 2
Fore
SplineSet
163 70 m 1,0,1
 222 47 222 47 282.5 47 c 128,-1,2
 343 47 343 47 379 78 c 128,-1,3
 415 109 415 109 415 164 c 0,4,5
 415 234 415 234 348 272 c 0,6,7
 319 288 319 288 283.5 302 c 128,-1,8
 248 316 248 316 212.5 332 c 128,-1,9
 177 348 177 348 148 369 c 0,10,11
 81 416 81 416 81 501.5 c 128,-1,12
 81 587 81 587 139 635.5 c 128,-1,13
 197 684 197 684 289.5 684 c 128,-1,14
 382 684 382 684 441 645 c 128,-1,15
 500 606 500 606 500 549 c 0,16,17
 500 481 500 481 446 481 c 0,18,19
 405 481 405 481 384 512 c 1,20,21
 407 533 407 533 407 563 c 128,-1,22
 407 593 407 593 378.5 611 c 128,-1,23
 350 629 350 629 295 629 c 128,-1,24
 240 629 240 629 206.5 603 c 128,-1,25
 173 577 173 577 173 535.5 c 128,-1,26
 173 494 173 494 192 469 c 128,-1,27
 211 444 211 444 240.5 428 c 128,-1,28
 270 412 270 412 306.5 397.5 c 128,-1,29
 343 383 343 383 379.5 366 c 128,-1,30
 416 349 416 349 445.5 327 c 128,-1,31
 475 305 475 305 494 268 c 128,-1,32
 513 231 513 231 513 182 c 0,33,34
 513 91 513 91 446.5 41.5 c 128,-1,35
 380 -8 380 -8 269 -8 c 0,36,37
 214 -8 214 -8 155.5 11 c 128,-1,38
 97 30 97 30 71 48 c 1,39,-1
 71 222 l 1,40,-1
 125 228 l 1,41,42
 137 130 137 130 163 70 c 1,0,1
EndSplineSet
EndChar

StartChar: T
Encoding: 84 84 55
Width: 588
GlyphClass: 2
Flags: W
LayerCount: 2
Fore
SplineSet
70 497 m 1,0,1
 54 495 54 495 46 495 c 128,-1,2
 38 495 38 495 22 497 c 1,3,-1
 22 679 l 1,4,5
 162 676 162 676 294 676 c 1,6,-1
 566 679 l 1,7,-1
 566 497 l 1,8,9
 550 495 550 495 542 495 c 128,-1,10
 534 495 534 495 518 497 c 1,11,12
 514 561 514 561 474 620 c 1,13,14
 418 626 418 626 342 627 c 1,15,-1
 342 68 l 1,16,17
 378 48 378 48 445 40 c 1,18,-1
 440 0 l 1,19,-1
 144 0 l 1,20,-1
 150 40 l 1,21,22
 212 47 212 47 247 68 c 1,23,-1
 247 627 l 1,24,25
 160 626 160 626 114 621 c 1,26,27
 94 594 94 594 82.5 558.5 c 128,-1,28
 71 523 71 523 70 497 c 1,0,1
EndSplineSet
EndChar

StartChar: U
Encoding: 85 85 56
Width: 772
GlyphClass: 2
Flags: W
LayerCount: 2
Fore
SplineSet
137 223 m 2,0,-1
 137 608 l 1,1,2
 102 629 102 629 34 636 c 1,3,-1
 39 676 l 1,4,-1
 337 676 l 1,5,-1
 331 636 l 1,6,7
 269 628 269 628 234 608 c 1,8,-1
 234 223 l 2,9,10
 234 130 234 130 274.5 89 c 128,-1,11
 315 48 315 48 401.5 48 c 128,-1,12
 488 48 488 48 535 95 c 128,-1,13
 582 142 582 142 582 229 c 2,14,-1
 582 608 l 1,15,16
 547 629 547 629 479 636 c 1,17,-1
 484 676 l 1,18,-1
 754 676 l 1,19,-1
 748 636 l 1,20,21
 686 628 686 628 651 608 c 1,22,-1
 651 229 l 2,23,24
 651 115 651 115 586.5 53.5 c 128,-1,25
 522 -8 522 -8 392.5 -8 c 128,-1,26
 263 -8 263 -8 200 47 c 128,-1,27
 137 102 137 102 137 223 c 2,0,-1
EndSplineSet
EndChar

StartChar: V
Encoding: 86 86 57
Width: 699
GlyphClass: 2
Flags: W
LayerCount: 2
Fore
SplineSet
311 0 m 1,0,-1
 81 609 l 1,1,2
 52 628 52 628 0 636 c 1,3,-1
 5 676 l 1,4,-1
 290 676 l 1,5,-1
 284 636 l 1,6,7
 222 629 222 629 187 608 c 1,8,-1
 360 131 l 1,9,-1
 533 609 l 1,10,11
 497 628 497 628 432 636 c 1,12,-1
 437 676 l 1,13,-1
 699 676 l 1,14,-1
 693 636 l 1,15,16
 635 628 635 628 604 608 c 1,17,-1
 375 0 l 1,18,-1
 311 0 l 1,0,-1
EndSplineSet
EndChar

StartChar: W
Encoding: 87 87 58
Width: 1027
GlyphClass: 2
Flags: W
LayerCount: 2
Fore
SplineSet
272 0 m 1,0,-1
 103 609 l 1,1,2
 67 628 67 628 2 636 c 1,3,-1
 7 676 l 1,4,-1
 309 676 l 1,5,-1
 303 636 l 1,6,7
 242 629 242 629 207 608 c 1,8,-1
 329 130 l 1,9,-1
 499 669 l 1,10,-1
 556 669 l 1,11,-1
 731 139 l 1,12,-1
 855 608 l 1,13,14
 819 628 819 628 752 636 c 1,15,-1
 757 676 l 1,16,-1
 1029 676 l 1,17,-1
 1023 636 l 1,18,19
 958 629 958 629 924 608 c 1,20,-1
 755 0 l 1,21,-1
 679 0 l 1,22,-1
 513 507 l 1,23,-1
 351 0 l 1,24,-1
 272 0 l 1,0,-1
EndSplineSet
EndChar

StartChar: X
Encoding: 88 88 59
Width: 704
GlyphClass: 2
Flags: W
LayerCount: 2
Fore
SplineSet
-2 0 m 1,0,-1
 4 40 l 1,1,2
 48 43 48 43 74.5 55 c 128,-1,3
 101 67 101 67 121 94 c 2,4,-1
 304 337 l 1,5,-1
 114 600 l 2,6,7
 101 617 101 617 81 624.5 c 128,-1,8
 61 632 61 632 18 636 c 1,9,-1
 23 676 l 1,10,-1
 324 676 l 1,11,-1
 318 636 l 1,12,13
 256 630 256 630 233 607 c 1,14,-1
 371 415 l 1,15,-1
 516 608 l 1,16,17
 481 630 481 630 431 636 c 1,18,-1
 436 676 l 1,19,-1
 679 676 l 1,20,-1
 673 636 l 1,21,22
 605 630 605 630 580 596 c 2,23,-1
 407 366 l 1,24,-1
 605 92 l 2,25,26
 636 49 636 49 707 40 c 1,27,-1
 702 0 l 1,28,-1
 398 0 l 1,29,-1
 404 40 l 1,30,31
 474 40 474 40 497 70 c 1,32,-1
 340 287 l 1,33,-1
 174 67 l 1,34,35
 192 40 192 40 275 40 c 1,36,-1
 270 0 l 1,37,-1
 -2 0 l 1,0,-1
EndSplineSet
EndChar

StartChar: Y
Encoding: 89 89 60
Width: 646
GlyphClass: 2
Flags: W
LayerCount: 2
Fore
SplineSet
171 0 m 1,0,-1
 177 40 l 1,1,2
 242 47 242 47 279 68 c 1,3,-1
 279 264 l 1,4,-1
 89 600 l 1,5,6
 67 629 67 629 -2 636 c 1,7,-1
 3 676 l 1,8,-1
 294 676 l 1,9,-1
 288 636 l 1,10,11
 224 628 224 628 194 612 c 1,12,-1
 340 347 l 1,13,-1
 488 611 l 1,14,15
 454 628 454 628 386 636 c 1,16,-1
 391 676 l 1,17,-1
 648 676 l 1,18,-1
 642 636 l 1,19,20
 578 634 578 634 556 604 c 1,21,-1
 374 271 l 1,22,-1
 374 68 l 1,23,24
 411 48 411 48 482 40 c 1,25,-1
 477 0 l 1,26,-1
 171 0 l 1,0,-1
EndSplineSet
EndChar

StartChar: Z
Encoding: 90 90 61
Width: 604
GlyphClass: 2
Flags: W
LayerCount: 2
Fore
SplineSet
421 620 m 1,0,-1
 331 621 l 1,1,2
 211 621 211 621 158 617 c 1,3,4
 120 584 120 584 107 500 c 1,5,6
 93 498 93 498 85 498 c 128,-1,7
 77 498 77 498 65 500 c 1,8,-1
 52 656 l 1,9,-1
 80 680 l 1,10,11
 224 676 224 676 325 676 c 128,-1,12
 426 676 426 676 538 680 c 1,13,-1
 547 638 l 1,14,-1
 159 56 l 1,15,16
 188 55 188 55 283.5 55 c 128,-1,17
 379 55 379 55 430 56 c 1,18,19
 481 118 481 118 499 192 c 1,20,21
 513 194 513 194 522.5 194 c 128,-1,22
 532 194 532 194 546 192 c 1,23,-1
 537 -3 l 1,24,25
 463 0 463 0 256 0 c 1,26,-1
 46 -4 l 1,27,-1
 42 49 l 1,28,-1
 421 620 l 1,0,-1
EndSplineSet
EndChar

StartChar: bracketleft
Encoding: 91 91 62
Width: 310
GlyphClass: 2
Flags: W
LayerCount: 2
Fore
SplineSet
100 -121 m 1,0,-1
 100 749 l 1,1,-1
 285 749 l 1,2,-1
 285 715 l 1,3,-1
 169 705 l 1,4,-1
 169 -76 l 1,5,-1
 285 -86 l 1,6,-1
 285 -121 l 1,7,-1
 100 -121 l 1,0,-1
EndSplineSet
EndChar

StartChar: backslash
Encoding: 92 92 63
Width: 390
GlyphClass: 2
Flags: W
LayerCount: 2
Fore
SplineSet
330 -121 m 1,0,-1
 0 737 l 1,1,-1
 60 759 l 1,2,-1
 390 -99 l 1,3,-1
 330 -121 l 1,0,-1
EndSplineSet
EndChar

StartChar: bracketright
Encoding: 93 93 64
Width: 310
GlyphClass: 2
Flags: W
LayerCount: 2
Fore
SplineSet
25 -121 m 1,0,-1
 25 -86 l 1,1,-1
 141 -76 l 1,2,-1
 141 705 l 1,3,-1
 25 715 l 1,4,-1
 25 749 l 1,5,-1
 210 749 l 1,6,-1
 210 -121 l 1,7,-1
 25 -121 l 1,0,-1
EndSplineSet
EndChar

StartChar: asciicircum
Encoding: 94 94 65
Width: 527
GlyphClass: 2
Flags: W
LayerCount: 2
Fore
SplineSet
40 300 m 1,0,-1
 236 643 l 1,1,-1
 291 643 l 1,2,-1
 487 300 l 1,3,-1
 432 273 l 1,4,-1
 263 568 l 1,5,-1
 95 273 l 1,6,-1
 40 300 l 1,0,-1
EndSplineSet
EndChar

StartChar: underscore
Encoding: 95 95 66
Width: 539
GlyphClass: 2
Flags: W
LayerCount: 2
Fore
SplineSet
0 -108 m 1,0,-1
 0 -51 l 1,1,-1
 539 -51 l 1,2,-1
 539 -108 l 1,3,-1
 0 -108 l 1,0,-1
EndSplineSet
EndChar

StartChar: grave
Encoding: 96 96 67
Width: 215
GlyphClass: 2
Flags: W
LayerCount: 2
Fore
SplineSet
61 655 m 2,0,1
 34 677 34 677 34 694 c 128,-1,2
 34 711 34 711 45.5 722.5 c 128,-1,3
 57 734 57 734 76.5 734 c 128,-1,4
 96 734 96 734 107 716 c 1,5,-1
 197 591 l 1,6,-1
 173 565 l 1,7,-1
 61 655 l 2,0,1
EndSplineSet
EndChar

StartChar: a
Encoding: 97 97 68
Width: 508
GlyphClass: 2
Flags: W
LayerCount: 2
Fore
SplineSet
187 -8 m 0,0,1
 123 -8 123 -8 87.5 24.5 c 128,-1,2
 52 57 52 57 52 121.5 c 128,-1,3
 52 186 52 186 101.5 226 c 128,-1,4
 151 266 151 266 246 273 c 2,5,-1
 331 279 l 1,6,-1
 331 367 l 2,7,8
 331 421 331 421 309.5 445.5 c 128,-1,9
 288 470 288 470 241 470 c 0,10,11
 156 470 156 470 156 421 c 0,12,13
 156 394 156 394 189 381 c 1,14,15
 189 330 189 330 127 330 c 0,16,17
 99 330 99 330 82 347 c 128,-1,18
 65 364 65 364 65 392 c 0,19,20
 65 448 65 448 112.5 480.5 c 128,-1,21
 160 513 160 513 243.5 513 c 128,-1,22
 327 513 327 513 375 474.5 c 128,-1,23
 423 436 423 436 423 367 c 2,24,-1
 423 66 l 1,25,26
 448 47 448 47 498 37 c 1,27,-1
 494 0 l 1,28,-1
 345 0 l 1,29,-1
 334 48 l 1,30,31
 275 -8 275 -8 187 -8 c 0,0,1
147 125 m 0,32,33
 147 37 147 37 215 37 c 0,34,35
 269 37 269 37 331 99 c 1,36,-1
 331 235 l 1,37,-1
 250 228 l 2,38,39
 202 224 202 224 174.5 196 c 128,-1,40
 147 168 147 168 147 125 c 0,32,33
EndSplineSet
EndChar

StartChar: b
Encoding: 98 98 69
Width: 550
GlyphClass: 2
Flags: W
LayerCount: 2
Fore
SplineSet
89 0 m 1,0,-1
 89 598 l 2,1,2
 89 632 89 632 71.5 645.5 c 128,-1,3
 54 659 54 659 14 661 c 1,4,-1
 17 693 l 1,5,6
 58 700 58 700 160 730 c 1,7,-1
 181 719 l 1,8,-1
 181 438 l 1,9,10
 224 513 224 513 305 513 c 0,11,12
 411 513 411 513 460 444 c 128,-1,13
 509 375 509 375 509 256.5 c 128,-1,14
 509 138 509 138 451 65 c 128,-1,15
 393 -8 393 -8 284 -8 c 0,16,17
 217 -8 217 -8 162 45 c 1,18,19
 147 23 147 23 140 0 c 1,20,-1
 89 0 l 1,0,-1
181 221 m 2,21,-1
 181 92 l 1,22,23
 239 38 239 38 283 38 c 128,-1,24
 327 38 327 38 353 56.5 c 128,-1,25
 379 75 379 75 391 110 c 0,26,27
 411 168 411 168 411 236 c 128,-1,28
 411 304 411 304 408 336 c 128,-1,29
 405 368 405 368 395 401 c 0,30,31
 375 467 375 467 305 467 c 0,32,33
 226 467 226 467 201 388 c 0,34,35
 181 323 181 323 181 221 c 2,21,-1
EndSplineSet
EndChar

StartChar: c
Encoding: 99 99 70
Width: 469
GlyphClass: 2
Flags: W
LayerCount: 2
Fore
SplineSet
267 -5 m 0,0,1
 149 -5 149 -5 95 56.5 c 128,-1,2
 41 118 41 118 41 251 c 0,3,4
 41 510 41 510 272 510 c 0,5,6
 346 510 346 510 392 478.5 c 128,-1,7
 438 447 438 447 438 396 c 0,8,9
 438 370 438 370 421 351 c 128,-1,10
 404 332 404 332 382.5 332 c 128,-1,11
 361 332 361 332 345 343 c 128,-1,12
 329 354 329 354 325 371 c 1,13,14
 339 393 339 393 339 415 c 128,-1,15
 339 437 339 437 320.5 454 c 128,-1,16
 302 471 302 471 272 471 c 0,17,18
 204 471 204 471 172.5 418.5 c 128,-1,19
 141 366 141 366 141 251.5 c 128,-1,20
 141 137 141 137 170.5 87.5 c 128,-1,21
 200 38 200 38 267 38 c 0,22,23
 356 38 356 38 391 133 c 1,24,-1
 435 118 l 1,25,26
 417 61 417 61 372 28 c 128,-1,27
 327 -5 327 -5 267 -5 c 0,0,1
EndSplineSet
EndChar

StartChar: d
Encoding: 100 100 71
Width: 555
GlyphClass: 2
Flags: W
LayerCount: 2
Fore
SplineSet
233 -7 m 0,0,1
 41 -7 41 -7 41 242 c 0,2,3
 41 374 41 374 102 443.5 c 128,-1,4
 163 513 163 513 278 513 c 0,5,6
 320 513 320 513 366 495 c 1,7,-1
 366 590 l 2,8,9
 366 630 366 630 349.5 644.5 c 128,-1,10
 333 659 333 659 291 661 c 1,11,-1
 294 693 l 1,12,13
 335 700 335 700 437 730 c 1,14,-1
 458 719 l 1,15,-1
 458 66 l 1,16,17
 485 46 485 46 533 37 c 1,18,-1
 529 0 l 1,19,-1
 374 0 l 1,20,-1
 366 62 l 1,21,22
 322 -7 322 -7 233 -7 c 0,0,1
366 253 m 2,23,-1
 366 445 l 1,24,25
 328 467 328 467 269 467 c 128,-1,26
 210 467 210 467 173 408 c 128,-1,27
 136 349 136 349 136 243.5 c 128,-1,28
 136 138 136 138 162 88.5 c 128,-1,29
 188 39 188 39 243 39 c 0,30,31
 366 39 366 39 366 253 c 2,23,-1
EndSplineSet
EndChar

StartChar: e
Encoding: 101 101 72
Width: 486
GlyphClass: 2
Flags: W
LayerCount: 2
Fore
SplineSet
141 261 m 1,0,-1
 141 245 l 2,1,2
 141 121 141 121 174 78 c 0,3,4
 205 38 205 38 275.5 38 c 128,-1,5
 346 38 346 38 396 97 c 1,6,-1
 430 63 l 1,7,8
 369 -8 369 -8 266 -8 c 0,9,10
 145 -8 145 -8 93.5 59 c 128,-1,11
 42 126 42 126 42 251 c 128,-1,12
 42 376 42 376 98 444.5 c 128,-1,13
 154 513 154 513 260 513 c 128,-1,14
 366 513 366 513 408 457 c 128,-1,15
 450 401 450 401 453 290 c 1,16,-1
 431 261 l 1,17,-1
 141 261 l 1,0,-1
258 469 m 0,18,19
 144 469 144 469 141 301 c 1,20,-1
 356 309 l 1,21,22
 356 393 356 393 335 431 c 128,-1,23
 314 469 314 469 258 469 c 0,18,19
EndSplineSet
EndChar

StartChar: f
Encoding: 102 102 73
Width: 366
GlyphClass: 2
Flags: W
LayerCount: 2
Fore
SplineSet
124 450 m 1,0,-1
 44 450 l 1,1,-1
 39 487 l 1,2,3
 93 496 93 496 124 506 c 1,4,-1
 124 565 l 2,5,6
 124 655 124 655 161 709.5 c 128,-1,7
 198 764 198 764 280 764 c 0,8,9
 333 764 333 764 372.5 735 c 128,-1,10
 412 706 412 706 412 668 c 128,-1,11
 412 630 412 630 395 612.5 c 128,-1,12
 378 595 378 595 358 595 c 0,13,14
 315 595 315 595 307 637 c 1,15,16
 327 657 327 657 327 675 c 128,-1,17
 327 693 327 693 312.5 705 c 128,-1,18
 298 717 298 717 273 717 c 0,19,20
 203 717 203 717 203 632 c 0,21,22
 203 615 203 615 209.5 571 c 128,-1,23
 216 527 216 527 216 506 c 1,24,-1
 328 506 l 1,25,-1
 328 450 l 1,26,-1
 216 450 l 1,27,-1
 216 66 l 1,28,29
 241 48 241 48 298 37 c 1,30,-1
 294 0 l 1,31,-1
 49 0 l 1,32,-1
 53 39 l 1,33,34
 96 46 96 46 124 66 c 1,35,-1
 124 450 l 1,0,-1
EndSplineSet
EndChar

StartChar: g
Encoding: 103 103 74
Width: 522
GlyphClass: 2
Flags: W
LayerCount: 2
Fore
SplineSet
59 333 m 0,0,1
 59 513 59 513 257 513 c 0,2,3
 329 513 329 513 376 487 c 1,4,5
 416 499 416 499 416 529 c 0,6,7
 416 553 416 553 386 568 c 1,8,9
 386 584 386 584 400 594 c 128,-1,10
 414 604 414 604 437.5 604 c 128,-1,11
 461 604 461 604 476 589.5 c 128,-1,12
 491 575 491 575 491 551 c 0,13,14
 491 485 491 485 415 457 c 1,15,16
 455 411 455 411 455 332.5 c 128,-1,17
 455 254 455 254 402 207 c 128,-1,18
 349 160 349 160 257 160 c 2,19,-1
 242 160 l 1,20,-1
 187 93 l 1,21,22
 188 69 188 69 206.5 60 c 128,-1,23
 225 51 225 51 265 50 c 1,24,-1
 310 50 l 2,25,26
 410 50 410 50 456.5 12 c 128,-1,27
 503 -26 503 -26 503 -85 c 0,28,29
 503 -235 503 -235 275 -235 c 0,30,31
 161 -235 161 -235 103.5 -198.5 c 128,-1,32
 46 -162 46 -162 46 -103.5 c 128,-1,33
 46 -45 46 -45 64 -19.5 c 128,-1,34
 82 6 82 6 129 32 c 1,35,36
 105 58 105 58 105 103 c 1,37,-1
 194 166 l 1,38,39
 130 181 130 181 94.5 225 c 128,-1,40
 59 269 59 269 59 333 c 0,0,1
257 204 m 128,-1,42
 310 204 310 204 333.5 235 c 128,-1,43
 357 266 357 266 357 336 c 128,-1,44
 357 406 357 406 333.5 438 c 128,-1,45
 310 470 310 470 257 470 c 128,-1,46
 204 470 204 470 180.5 438 c 128,-1,47
 157 406 157 406 157 336 c 128,-1,48
 157 266 157 266 180.5 235 c 128,-1,41
 204 204 204 204 257 204 c 128,-1,42
285 0 m 2,49,-1
 193 0 l 1,50,51
 144 -33 144 -33 144 -85 c 0,52,53
 144 -191 144 -191 274.5 -191 c 128,-1,54
 405 -191 405 -191 405 -85 c 0,55,56
 405 0 405 0 285 0 c 2,49,-1
EndSplineSet
EndChar

StartChar: h
Encoding: 104 104 75
Width: 587
GlyphClass: 2
Flags: W
LayerCount: 2
Fore
SplineSet
108 590 m 2,0,1
 108 630 108 630 91.5 644.5 c 128,-1,2
 75 659 75 659 33 661 c 1,3,-1
 36 693 l 1,4,5
 77 700 77 700 179 730 c 1,6,-1
 200 719 l 1,7,-1
 200 449 l 1,8,9
 256 513 256 513 333 513 c 128,-1,10
 410 513 410 513 454 473.5 c 128,-1,11
 498 434 498 434 498 364 c 2,12,-1
 498 66 l 1,13,14
 523 47 523 47 573 37 c 1,15,-1
 569 0 l 1,16,-1
 332 0 l 1,17,-1
 335 37 l 1,18,19
 375 43 375 43 406 66 c 1,20,-1
 406 354 l 2,21,22
 406 461 406 461 314 461 c 0,23,24
 281 461 281 461 249.5 440 c 128,-1,25
 218 419 218 419 200 385 c 1,26,-1
 200 66 l 1,27,28
 227 46 227 46 275 37 c 1,29,-1
 271 0 l 1,30,-1
 33 0 l 1,31,-1
 37 39 l 1,32,33
 80 46 80 46 108 66 c 1,34,-1
 108 590 l 2,0,1
EndSplineSet
EndChar

StartChar: i
Encoding: 105 105 76
Width: 299
GlyphClass: 2
Flags: W
LayerCount: 2
Fore
SplineSet
112 376 m 2,0,1
 112 416 112 416 95.5 430.5 c 128,-1,2
 79 445 79 445 37 447 c 1,3,-1
 40 479 l 1,4,5
 81 486 81 486 183 516 c 1,6,-1
 204 505 l 1,7,-1
 204 66 l 1,8,9
 231 46 231 46 279 37 c 1,10,-1
 275 0 l 1,11,-1
 37 0 l 1,12,-1
 41 39 l 1,13,14
 84 46 84 46 112 66 c 1,15,-1
 112 376 l 2,0,1
152.5 593 m 128,-1,17
 96 593 96 593 96 655.5 c 128,-1,18
 96 718 96 718 152.5 718 c 128,-1,19
 209 718 209 718 209 655.5 c 128,-1,16
 209 593 209 593 152.5 593 c 128,-1,17
EndSplineSet
EndChar

StartChar: j
Encoding: 106 106 77
Width: 306
GlyphClass: 2
Flags: W
LayerCount: 2
Fore
SplineSet
160.5 593 m 128,-1,1
 104 593 104 593 104 655.5 c 128,-1,2
 104 718 104 718 160.5 718 c 128,-1,3
 217 718 217 718 217 655.5 c 128,-1,0
 217 593 217 593 160.5 593 c 128,-1,1
125 79 m 1,4,-1
 217 79 l 1,5,-1
 217 -35 l 2,6,7
 217 -178 217 -178 158 -216 c 0,8,9
 132 -233 132 -233 87.5 -233 c 128,-1,10
 43 -233 43 -233 10.5 -213 c 128,-1,11
 -22 -193 -22 -193 -22 -150 c 0,12,13
 -22 -125 -22 -125 -8 -108 c 128,-1,14
 6 -91 6 -91 32.5 -91 c 128,-1,15
 59 -91 59 -91 71 -112 c 1,16,17
 55 -126 55 -126 55 -145 c 128,-1,18
 55 -164 55 -164 65.5 -175 c 128,-1,19
 76 -186 76 -186 95 -186 c 0,20,21
 138 -186 138 -186 138 -116 c 0,22,23
 138 -81 138 -81 131.5 -26.5 c 128,-1,24
 125 28 125 28 125 79 c 1,4,-1
125 79 m 1,25,-1
 125 376 l 2,26,27
 125 416 125 416 108.5 430.5 c 128,-1,28
 92 445 92 445 50 447 c 1,29,-1
 53 479 l 1,30,31
 94 486 94 486 196 516 c 1,32,-1
 217 505 l 1,33,-1
 217 79 l 1,34,-1
 125 79 l 1,25,-1
EndSplineSet
EndChar

StartChar: k
Encoding: 107 107 78
Width: 549
GlyphClass: 2
Flags: W
LayerCount: 2
Fore
SplineSet
110 590 m 2,0,1
 110 630 110 630 93.5 644.5 c 128,-1,2
 77 659 77 659 35 661 c 1,3,-1
 38 693 l 1,4,5
 79 700 79 700 181 730 c 1,6,-1
 202 719 l 1,7,-1
 202 298 l 1,8,-1
 341 446 l 2,9,10
 362 467 362 467 374 506 c 1,11,-1
 518 506 l 1,12,-1
 521 474 l 1,13,14
 448 471 448 471 406 427 c 2,15,-1
 310 328 l 1,16,-1
 467 68 l 1,17,18
 502 46 502 46 564 37 c 1,19,-1
 560 0 l 1,20,-1
 406 0 l 1,21,-1
 249 265 l 1,22,-1
 202 217 l 1,23,-1
 202 66 l 1,24,25
 229 46 229 46 277 37 c 1,26,-1
 273 0 l 1,27,-1
 35 0 l 1,28,-1
 39 39 l 1,29,30
 82 46 82 46 110 66 c 1,31,-1
 110 590 l 2,0,1
EndSplineSet
EndChar

StartChar: l
Encoding: 108 108 79
Width: 302
GlyphClass: 2
Flags: W
LayerCount: 2
Fore
SplineSet
108 590 m 2,0,1
 108 630 108 630 91.5 644.5 c 128,-1,2
 75 659 75 659 33 661 c 1,3,-1
 36 693 l 1,4,5
 77 700 77 700 179 730 c 1,6,-1
 200 719 l 1,7,-1
 200 66 l 1,8,9
 227 46 227 46 275 37 c 1,10,-1
 271 0 l 1,11,-1
 33 0 l 1,12,-1
 37 39 l 1,13,14
 80 46 80 46 108 66 c 1,15,-1
 108 590 l 2,0,1
EndSplineSet
EndChar

StartChar: m
Encoding: 109 109 80
Width: 855
GlyphClass: 2
Flags: W
LayerCount: 2
Fore
SplineSet
109 374 m 2,0,1
 109 414 109 414 92.5 428.5 c 128,-1,2
 76 443 76 443 34 445 c 1,3,-1
 37 477 l 1,4,5
 59 481 59 481 169 513 c 1,6,-1
 188 503 l 1,7,-1
 196 447 l 1,8,9
 204 457 204 457 216.5 469 c 128,-1,10
 229 481 229 481 260.5 497 c 128,-1,11
 292 513 292 513 324 513 c 0,12,13
 421 513 421 513 462 443 c 1,14,15
 532 513 532 513 603 513 c 128,-1,16
 674 513 674 513 719.5 474 c 128,-1,17
 765 435 765 435 765 351 c 2,18,-1
 765 66 l 1,19,20
 790 47 790 47 840 37 c 1,21,-1
 836 0 l 1,22,-1
 599 0 l 1,23,-1
 602 37 l 1,24,25
 642 43 642 43 673 66 c 1,26,-1
 673 354 l 2,27,28
 673 461 673 461 592 461 c 0,29,30
 556 461 556 461 524.5 434.5 c 128,-1,31
 493 408 493 408 483 377 c 1,32,-1
 483 66 l 1,33,34
 508 47 508 47 558 37 c 1,35,-1
 554 0 l 1,36,-1
 317 0 l 1,37,-1
 320 37 l 1,38,39
 360 43 360 43 391 66 c 1,40,-1
 391 354 l 2,41,42
 391 461 391 461 310 461 c 0,43,44
 274 461 274 461 242.5 434.5 c 128,-1,45
 211 408 211 408 201 377 c 1,46,-1
 201 66 l 1,47,48
 228 46 228 46 276 37 c 1,49,-1
 272 0 l 1,50,-1
 34 0 l 1,51,-1
 38 39 l 1,52,53
 81 46 81 46 109 66 c 1,54,-1
 109 374 l 2,0,1
EndSplineSet
EndChar

StartChar: n
Encoding: 110 110 81
Width: 594
GlyphClass: 2
Flags: W
LayerCount: 2
Fore
SplineSet
108 374 m 2,0,1
 108 414 108 414 91.5 428.5 c 128,-1,2
 75 443 75 443 33 445 c 1,3,-1
 36 477 l 1,4,5
 58 481 58 481 168 513 c 1,6,-1
 187 503 l 1,7,-1
 197 436 l 1,8,9
 253 513 253 513 335 513 c 128,-1,10
 417 513 417 513 461 473.5 c 128,-1,11
 505 434 505 434 505 364 c 2,12,-1
 505 66 l 1,13,14
 530 47 530 47 580 37 c 1,15,-1
 576 0 l 1,16,-1
 339 0 l 1,17,-1
 342 37 l 1,18,19
 382 43 382 43 413 66 c 1,20,-1
 413 354 l 2,21,22
 413 461 413 461 321 461 c 0,23,24
 284 461 284 461 250 436 c 128,-1,25
 216 411 216 411 200 371 c 1,26,-1
 200 66 l 1,27,28
 227 46 227 46 275 37 c 1,29,-1
 271 0 l 1,30,-1
 33 0 l 1,31,-1
 37 39 l 1,32,33
 80 46 80 46 108 66 c 1,34,-1
 108 374 l 2,0,1
EndSplineSet
EndChar

StartChar: o
Encoding: 111 111 82
Width: 528
GlyphClass: 2
Flags: W
LayerCount: 2
Fore
SplineSet
167 91.5 m 128,-1,1
 197 42 197 42 264.5 42 c 128,-1,2
 332 42 332 42 362 91.5 c 128,-1,3
 392 141 392 141 392 252.5 c 128,-1,4
 392 364 392 364 362 413.5 c 128,-1,5
 332 463 332 463 264 463 c 128,-1,6
 196 463 196 463 166.5 414 c 128,-1,7
 137 365 137 365 137 253 c 128,-1,0
 137 141 137 141 167 91.5 c 128,-1,1
264 -8 m 128,-1,9
 154 -8 154 -8 97.5 58.5 c 128,-1,10
 41 125 41 125 41 252.5 c 128,-1,11
 41 380 41 380 97.5 446.5 c 128,-1,12
 154 513 154 513 264 513 c 128,-1,13
 374 513 374 513 430.5 446.5 c 128,-1,14
 487 380 487 380 487 252.5 c 128,-1,15
 487 125 487 125 430.5 58.5 c 128,-1,8
 374 -8 374 -8 264 -8 c 128,-1,9
EndSplineSet
EndChar

StartChar: p
Encoding: 112 112 83
Width: 562
GlyphClass: 2
Flags: W
LayerCount: 2
Fore
SplineSet
104 374 m 2,0,1
 104 414 104 414 87.5 428.5 c 128,-1,2
 71 443 71 443 29 445 c 1,3,-1
 32 477 l 1,4,5
 54 481 54 481 164 513 c 1,6,-1
 183 503 l 1,7,-1
 192 438 l 1,8,9
 236 512 236 512 329 512 c 0,10,11
 521 512 521 512 521 263 c 0,12,13
 521 131 521 131 460 61.5 c 128,-1,14
 399 -8 399 -8 284 -8 c 0,15,16
 242 -8 242 -8 196 9 c 1,17,-1
 196 -162 l 1,18,19
 223 -182 223 -182 271 -191 c 1,20,-1
 267 -228 l 1,21,-1
 29 -228 l 1,22,-1
 33 -189 l 1,23,24
 76 -182 76 -182 104 -162 c 1,25,-1
 104 374 l 2,0,1
196 262 m 2,26,-1
 196 59 l 1,27,28
 232 38 232 38 292 38 c 128,-1,29
 352 38 352 38 389 97 c 128,-1,30
 426 156 426 156 426 261.5 c 128,-1,31
 426 367 426 367 400 416.5 c 128,-1,32
 374 466 374 466 319 466 c 0,33,34
 196 466 196 466 196 262 c 2,26,-1
EndSplineSet
EndChar

StartChar: q
Encoding: 113 113 84
Width: 551
GlyphClass: 2
Flags: W
LayerCount: 2
Fore
SplineSet
245 -8 m 0,0,1
 139 -8 139 -8 90 61 c 128,-1,2
 41 130 41 130 41 250 c 128,-1,3
 41 370 41 370 95 441.5 c 128,-1,4
 149 513 149 513 265 513 c 0,5,6
 321 513 321 513 386 462 c 1,7,-1
 402 506 l 1,8,-1
 460 506 l 1,9,-1
 460 -162 l 1,10,11
 487 -182 487 -182 535 -191 c 1,12,-1
 531 -228 l 1,13,-1
 293 -228 l 1,14,-1
 297 -189 l 1,15,16
 340 -182 340 -182 368 -162 c 1,17,-1
 368 64 l 1,18,19
 325 -8 325 -8 245 -8 c 0,0,1
368 258 m 2,20,-1
 368 413 l 1,21,22
 312 467 312 467 262 467 c 0,23,24
 228 467 228 467 203.5 452.5 c 128,-1,25
 179 438 179 438 167 419 c 128,-1,26
 155 400 155 400 148 367 c 0,27,28
 139 325 139 325 139 268.5 c 128,-1,29
 139 212 139 212 140.5 185 c 128,-1,30
 142 158 142 158 148.5 128.5 c 128,-1,31
 155 99 155 99 166 80 c 0,32,33
 191 38 191 38 245 38 c 0,34,35
 320 38 320 38 346 106 c 0,36,37
 368 165 368 165 368 258 c 2,20,-1
EndSplineSet
EndChar

StartChar: r
Encoding: 114 114 85
Width: 440
GlyphClass: 2
Flags: W
LayerCount: 2
Fore
SplineSet
112 374 m 2,0,1
 112 414 112 414 95.5 428.5 c 128,-1,2
 79 443 79 443 37 445 c 1,3,-1
 40 477 l 1,4,5
 62 481 62 481 172 513 c 1,6,-1
 191 503 l 1,7,-1
 202 428 l 1,8,9
 259 513 259 513 331 513 c 0,10,11
 370 513 370 513 398.5 490 c 128,-1,12
 427 467 427 467 427 432.5 c 128,-1,13
 427 398 427 398 411.5 378 c 128,-1,14
 396 358 396 358 373.5 358 c 128,-1,15
 351 358 351 358 335 367 c 128,-1,16
 319 376 319 376 315 391 c 1,17,18
 326 402 326 402 326 421 c 0,19,20
 326 454 326 454 295 454 c 128,-1,21
 264 454 264 454 234 408 c 128,-1,22
 204 362 204 362 204 311 c 2,23,-1
 204 66 l 1,24,25
 234 46 234 46 289 37 c 1,26,-1
 285 0 l 1,27,-1
 37 0 l 1,28,-1
 41 39 l 1,29,30
 84 46 84 46 112 66 c 1,31,-1
 112 374 l 2,0,1
EndSplineSet
EndChar

StartChar: s
Encoding: 115 115 86
Width: 454
GlyphClass: 2
Flags: W
LayerCount: 2
Fore
SplineSet
224 41 m 128,-1,1
 267 41 267 41 294 65.5 c 128,-1,2
 321 90 321 90 321 123 c 128,-1,3
 321 156 321 156 301.5 176.5 c 128,-1,4
 282 197 282 197 253 206.5 c 128,-1,5
 224 216 224 216 189.5 229 c 128,-1,6
 155 242 155 242 126 256 c 128,-1,7
 97 270 97 270 77.5 301.5 c 128,-1,8
 58 333 58 333 58 378 c 0,9,10
 58 439 58 439 106.5 475.5 c 128,-1,11
 155 512 155 512 229.5 512 c 128,-1,12
 304 512 304 512 352 481.5 c 128,-1,13
 400 451 400 451 400 407 c 0,14,15
 400 351 400 351 350 351 c 0,16,17
 312 351 312 351 293 380 c 1,18,19
 310 394 310 394 310 417.5 c 128,-1,20
 310 441 310 441 286.5 455 c 128,-1,21
 263 469 263 469 225.5 469 c 128,-1,22
 188 469 188 469 163.5 449.5 c 128,-1,23
 139 430 139 430 139 395 c 128,-1,24
 139 360 139 360 166.5 337 c 128,-1,25
 194 314 194 314 233 301.5 c 128,-1,26
 272 289 272 289 311.5 274.5 c 128,-1,27
 351 260 351 260 378.5 228 c 128,-1,28
 406 196 406 196 406 147 c 0,29,30
 406 74 406 74 356 34 c 128,-1,31
 306 -6 306 -6 215 -6 c 0,32,33
 178 -6 178 -6 129.5 6.5 c 128,-1,34
 81 19 81 19 57 35 c 1,35,-1
 57 168 l 1,36,-1
 115 175 l 1,37,38
 122 93 122 93 144 52 c 1,39,0
 181 41 181 41 224 41 c 128,-1,1
EndSplineSet
EndChar

StartChar: t
Encoding: 116 116 87
Width: 357
GlyphClass: 2
Flags: W
LayerCount: 2
Fore
SplineSet
108 125 m 2,0,-1
 108 450 l 1,1,-1
 20 450 l 1,2,-1
 20 480 l 1,3,4
 126 516 126 516 158 611 c 1,5,-1
 201 611 l 1,6,-1
 201 506 l 1,7,-1
 323 506 l 1,8,-1
 323 450 l 1,9,-1
 200 450 l 1,10,-1
 200 117 l 2,11,12
 200 77 200 77 209 60 c 128,-1,13
 218 43 218 43 250 43 c 128,-1,14
 282 43 282 43 317 64 c 1,15,-1
 338 32 l 1,16,17
 288 -8 288 -8 222 -8 c 128,-1,18
 156 -8 156 -8 132 22.5 c 128,-1,19
 108 53 108 53 108 125 c 2,0,-1
EndSplineSet
EndChar

StartChar: u
Encoding: 117 117 88
Width: 588
GlyphClass: 2
Flags: W
LayerCount: 2
Fore
SplineSet
89 166 m 2,0,-1
 89 376 l 2,1,2
 89 416 89 416 72.5 430.5 c 128,-1,3
 56 445 56 445 14 447 c 1,4,-1
 17 479 l 1,5,6
 58 486 58 486 160 516 c 1,7,-1
 181 505 l 1,8,-1
 181 154 l 2,9,10
 181 41 181 41 274 41 c 0,11,12
 302 41 302 41 333 61.5 c 128,-1,13
 364 82 364 82 388 126 c 1,14,-1
 388 376 l 2,15,16
 388 416 388 416 371.5 430.5 c 128,-1,17
 355 445 355 445 313 447 c 1,18,-1
 316 479 l 1,19,20
 357 486 357 486 459 516 c 1,21,-1
 480 505 l 1,22,-1
 480 66 l 1,23,24
 505 47 505 47 555 37 c 1,25,-1
 551 0 l 1,26,-1
 408 0 l 1,27,-1
 397 68 l 1,28,29
 339 -8 339 -8 262 -8 c 0,30,31
 89 -8 89 -8 89 166 c 2,0,-1
EndSplineSet
EndChar

StartChar: v
Encoding: 118 118 89
Width: 543
GlyphClass: 2
Flags: W
LayerCount: 2
Fore
SplineSet
233 0 m 1,0,-1
 76 429 l 2,1,2
 64 462 64 462 -1 474 c 1,3,-1
 2 506 l 1,4,-1
 242 506 l 1,5,-1
 239 474 l 1,6,7
 194 468 194 468 172 450 c 1,8,-1
 286 104 l 1,9,-1
 400 450 l 1,10,11
 377 467 377 467 336 474 c 1,12,-1
 339 506 l 1,13,-1
 544 506 l 1,14,-1
 541 474 l 1,15,16
 475 462 475 462 468 442 c 2,17,-1
 305 0 l 1,18,-1
 233 0 l 1,0,-1
EndSplineSet
EndChar

StartChar: w
Encoding: 119 119 90
Width: 775
GlyphClass: 2
Flags: W
LayerCount: 2
Fore
SplineSet
219 0 m 1,0,-1
 75 429 l 2,1,2
 64 462 64 462 -2 474 c 1,3,-1
 1 506 l 1,4,-1
 241 506 l 1,5,-1
 238 474 l 1,6,7
 193 468 193 468 171 450 c 1,8,-1
 268 122 l 1,9,-1
 374 488 l 1,10,-1
 416 488 l 1,11,-1
 531 122 l 1,12,-1
 627 450 l 1,13,14
 604 467 604 467 563 474 c 1,15,-1
 566 506 l 1,16,-1
 770 506 l 1,17,-1
 767 474 l 1,18,19
 702 462 702 462 695 442 c 2,20,-1
 546 0 l 1,21,-1
 480 0 l 1,22,-1
 382 306 l 1,23,-1
 285 0 l 1,24,-1
 219 0 l 1,0,-1
EndSplineSet
EndChar

StartChar: x
Encoding: 120 120 91
Width: 536
GlyphClass: 2
Flags: W
LayerCount: 2
Fore
SplineSet
5 0 m 1,0,-1
 9 39 l 1,1,2
 71 44 71 44 86 64 c 2,3,-1
 225 247 l 1,4,-1
 81 443 l 2,5,6
 63 468 63 468 19 474 c 1,7,-1
 22 506 l 1,8,-1
 253 506 l 1,9,-1
 248 474 l 1,10,11
 209 471 209 471 183 452 c 1,12,-1
 283 315 l 1,13,-1
 381 444 l 1,14,15
 347 470 347 470 309 474 c 1,16,-1
 312 506 l 1,17,-1
 529 506 l 1,18,-1
 524 474 l 1,19,20
 466 467 466 467 447 442 c 2,21,-1
 316 270 l 1,22,-1
 466 66 l 2,23,24
 481 45 481 45 530 40 c 1,25,-1
 525 0 l 1,26,-1
 292 0 l 1,27,-1
 296 39 l 1,28,29
 346 44 346 44 364 57 c 1,30,-1
 258 202 l 1,31,-1
 150 60 l 1,32,33
 170 44 170 44 222 39 c 1,34,-1
 219 0 l 1,35,-1
 5 0 l 1,0,-1
EndSplineSet
EndChar

StartChar: y
Encoding: 121 121 92
Width: 550
GlyphClass: 2
Flags: W
LayerCount: 2
Fore
SplineSet
222 -210 m 128,-1,1
 188 -243 188 -243 141.5 -243 c 128,-1,2
 95 -243 95 -243 66.5 -219.5 c 128,-1,3
 38 -196 38 -196 38 -163.5 c 128,-1,4
 38 -131 38 -131 53 -115 c 128,-1,5
 68 -99 68 -99 89.5 -99 c 128,-1,6
 111 -99 111 -99 129 -111 c 1,7,8
 116 -129 116 -129 116 -146.5 c 128,-1,9
 116 -164 116 -164 126 -174.5 c 128,-1,10
 136 -185 136 -185 156 -185 c 0,11,12
 195 -185 195 -185 227 -86 c 2,13,-1
 253 -5 l 1,14,-1
 76 427 l 2,15,16
 62 462 62 462 -1 473 c 1,17,-1
 2 506 l 1,18,-1
 237 506 l 1,19,-1
 234 474 l 1,20,21
 192 469 192 469 170 450 c 1,22,-1
 295 122 l 1,23,-1
 402 450 l 1,24,25
 379 467 379 467 338 474 c 1,26,-1
 341 506 l 1,27,-1
 551 506 l 1,28,-1
 548 474 l 1,29,30
 478 464 478 464 470 442 c 2,31,-1
 283 -99 l 2,32,0
 256 -177 256 -177 222 -210 c 128,-1,1
EndSplineSet
EndChar

StartChar: z
Encoding: 122 122 93
Width: 468
GlyphClass: 2
Flags: W
LayerCount: 2
Fore
SplineSet
70 508 m 1,0,-1
 257 506 l 1,1,2
 356 506 356 506 419 509 c 1,3,-1
 429 472 l 1,4,-1
 146 50 l 1,5,6
 162 49 162 49 233.5 49 c 128,-1,7
 305 49 305 49 330 50 c 1,8,9
 359 90 359 90 373 149 c 1,10,11
 386 152 386 152 397.5 152 c 128,-1,12
 409 152 409 152 425 150 c 1,13,-1
 418 22 l 1,14,-1
 397 -3 l 1,15,16
 355 0 355 0 244 0 c 1,17,-1
 47 -4 l 1,18,-1
 38 41 l 1,19,-1
 317 457 l 1,20,21
 257 461 257 461 215.5 461 c 128,-1,22
 174 461 174 461 139 456 c 1,23,24
 118 429 118 429 110 368 c 1,25,26
 95 363 95 363 79.5 363 c 128,-1,27
 64 363 64 363 53 367 c 1,28,-1
 43 486 l 1,29,-1
 70 508 l 1,0,-1
EndSplineSet
EndChar

StartChar: braceleft
Encoding: 123 123 94
Width: 287
GlyphClass: 2
Flags: W
LayerCount: 2
Fore
SplineSet
262 -121 m 1,0,1
 191 -121 191 -121 137.5 -73.5 c 128,-1,2
 84 -26 84 -26 84 42 c 0,3,4
 84 64 84 64 97.5 132 c 128,-1,5
 111 200 111 200 111 225 c 128,-1,6
 111 250 111 250 98.5 268.5 c 128,-1,7
 86 287 86 287 73 292 c 2,8,-1
 60 297 l 1,9,-1
 60 332 l 1,10,11
 66 333 66 333 74.5 337 c 128,-1,12
 83 341 83 341 97 360 c 128,-1,13
 111 379 111 379 111 404 c 128,-1,14
 111 429 111 429 97.5 496.5 c 128,-1,15
 84 564 84 564 84 586 c 0,16,17
 84 654 84 654 137.5 701.5 c 128,-1,18
 191 749 191 749 262 749 c 1,19,-1
 262 715 l 1,20,21
 212 711 212 711 186 676.5 c 128,-1,22
 160 642 160 642 160 603.5 c 128,-1,23
 160 565 160 565 169 516 c 128,-1,24
 178 467 178 467 178 438 c 0,25,26
 178 354 178 354 131 315 c 1,27,28
 178 275 178 275 178 191 c 0,29,30
 178 162 178 162 169 113 c 128,-1,31
 160 64 160 64 160 25.5 c 128,-1,32
 160 -13 160 -13 186 -48 c 128,-1,33
 212 -83 212 -83 262 -86 c 1,34,-1
 262 -121 l 1,0,1
EndSplineSet
EndChar

StartChar: bar
Encoding: 124 124 95
Width: 269
GlyphClass: 2
Flags: W
LayerCount: 2
Fore
SplineSet
100 -121 m 1,0,-1
 100 749 l 1,1,-1
 169 749 l 1,2,-1
 169 -121 l 1,3,-1
 100 -121 l 1,0,-1
EndSplineSet
EndChar

StartChar: braceright
Encoding: 125 125 96
Width: 287
GlyphClass: 2
Flags: W
LayerCount: 2
Fore
SplineSet
25 -121 m 1,0,-1
 25 -86 l 1,1,2
 75 -83 75 -83 101 -48 c 128,-1,3
 127 -13 127 -13 127 25.5 c 128,-1,4
 127 64 127 64 118 113 c 128,-1,5
 109 162 109 162 109 191 c 0,6,7
 109 275 109 275 156 315 c 1,8,9
 109 354 109 354 109 438 c 0,10,11
 109 467 109 467 118 516 c 128,-1,12
 127 565 127 565 127 603.5 c 128,-1,13
 127 642 127 642 101 676.5 c 128,-1,14
 75 711 75 711 25 715 c 1,15,-1
 25 749 l 1,16,17
 96 749 96 749 149.5 701.5 c 128,-1,18
 203 654 203 654 203 586 c 0,19,20
 203 564 203 564 189.5 496.5 c 128,-1,21
 176 429 176 429 176 404 c 128,-1,22
 176 379 176 379 189 360.5 c 128,-1,23
 202 342 202 342 214 337 c 2,24,-1
 227 332 l 1,25,-1
 227 297 l 1,26,27
 221 296 221 296 212.5 292 c 128,-1,28
 204 288 204 288 190 269 c 128,-1,29
 176 250 176 250 176 225 c 128,-1,30
 176 200 176 200 189.5 132 c 128,-1,31
 203 64 203 64 203 42 c 0,32,33
 203 -26 203 -26 149.5 -73.5 c 128,-1,34
 96 -121 96 -121 25 -121 c 1,0,-1
EndSplineSet
EndChar

StartChar: asciitilde
Encoding: 126 126 97
Width: 566
GlyphClass: 2
Flags: W
LayerCount: 2
Fore
SplineSet
183 353 m 0,0,1
 214 353 214 353 294.5 327 c 128,-1,2
 375 301 375 301 402 301 c 0,3,4
 451 301 451 301 503 344 c 1,5,6
 516 336 516 336 526 323 c 1,7,8
 471 234 471 234 395 234 c 0,9,10
 358 234 358 234 276 261 c 128,-1,11
 194 288 194 288 162 288 c 0,12,13
 114 288 114 288 62 245 c 1,14,15
 48 252 48 252 40 267 c 1,16,17
 106 353 106 353 183 353 c 0,0,1
EndSplineSet
EndChar

StartChar: exclamdown
Encoding: 161 161 99
Width: 215
GlyphClass: 2
Flags: W
LayerCount: 2
Fore
SplineSet
142 253 m 1,0,-1
 139 34 l 1,1,2
 139 -137 139 -137 159 -225 c 1,3,4
 136 -243 136 -243 95 -243 c 0,5,6
 35 -243 35 -243 35 -162 c 0,7,8
 35 -125 35 -125 58 25 c 128,-1,9
 81 175 81 175 86 243 c 1,10,-1
 142 253 l 1,0,-1
113 352 m 128,-1,12
 89 352 89 352 75 368 c 128,-1,13
 61 384 61 384 61 407 c 128,-1,14
 61 430 61 430 75.5 445.5 c 128,-1,15
 90 461 90 461 113.5 461 c 128,-1,16
 137 461 137 461 151.5 445.5 c 128,-1,17
 166 430 166 430 166 407 c 128,-1,18
 166 384 166 384 151.5 368 c 128,-1,11
 137 352 137 352 113 352 c 128,-1,12
EndSplineSet
EndChar

StartChar: cent
Encoding: 162 162 100
Width: 469
GlyphClass: 2
Flags: W
LayerCount: 2
Fore
SplineSet
41 318 m 0,0,1
 41 421 41 421 90 482.5 c 128,-1,2
 139 544 139 544 232 555 c 1,3,-1
 232 665 l 1,4,-1
 238 672 l 1,5,6
 255 672 255 672 275 667 c 1,7,-1
 275 557 l 1,8,9
 347 556 347 556 392.5 524.5 c 128,-1,10
 438 493 438 493 438 445 c 0,11,12
 438 420 438 420 421 402 c 128,-1,13
 404 384 404 384 382.5 384 c 128,-1,14
 361 384 361 384 345 394.5 c 128,-1,15
 329 405 329 405 325 421 c 1,16,17
 338 440 338 440 338 461 c 128,-1,18
 338 482 338 482 320 496.5 c 128,-1,19
 302 511 302 511 275 513 c 1,20,-1
 275 127 l 1,21,22
 357 130 357 130 391 217 c 1,23,-1
 435 203 l 1,24,25
 418 150 418 150 375 117 c 128,-1,26
 332 84 332 84 275 82 c 1,27,-1
 275 -30 l 1,28,-1
 269 -37 l 1,29,30
 252 -37 252 -37 232 -32 c 1,31,-1
 232 83 l 1,32,33
 41 100 41 100 41 318 c 0,0,1
160 448.5 m 128,-1,35
 141 400 141 400 141 339 c 128,-1,36
 141 278 141 278 144.5 249.5 c 128,-1,37
 148 221 148 221 157 194 c 0,38,39
 175 142 175 142 232 130 c 1,40,-1
 232 509 l 1,41,34
 179 497 179 497 160 448.5 c 128,-1,35
EndSplineSet
EndChar

StartChar: sterling
Encoding: 163 163 101
Width: 574
GlyphClass: 2
Flags: W
LayerCount: 2
Fore
SplineSet
131 453 m 0,0,1
 131 548 131 548 188.5 600 c 128,-1,2
 246 652 246 652 349 652 c 0,3,4
 417 652 417 652 469.5 618 c 128,-1,5
 522 584 522 584 522 520 c 0,6,7
 522 487 522 487 504.5 465.5 c 128,-1,8
 487 444 487 444 464.5 444 c 128,-1,9
 442 444 442 444 425.5 454 c 128,-1,10
 409 464 409 464 404 480 c 1,11,12
 423 505 423 505 423 532 c 128,-1,13
 423 559 423 559 401 577 c 128,-1,14
 379 595 379 595 340 595 c 0,15,16
 229 595 229 595 229 461 c 0,17,18
 229 421 229 421 253 341 c 1,19,-1
 406 341 l 1,20,21
 411 321 411 321 411 305 c 1,22,-1
 404 298 l 1,23,-1
 266 298 l 1,24,25
 280 247 280 247 280 204.5 c 128,-1,26
 280 162 280 162 261 111 c 1,27,28
 346 82 346 82 419 82 c 0,29,30
 481 82 481 82 481 148 c 1,31,32
 508 147 508 147 524.5 128 c 128,-1,33
 541 109 541 109 541 81 c 0,34,35
 541 36 541 36 508.5 14.5 c 128,-1,36
 476 -7 476 -7 424 -7 c 0,37,38
 402 -7 402 -7 373 0 c 128,-1,39
 344 7 344 7 323.5 17.5 c 128,-1,40
 303 28 303 28 296 32 c 0,41,42
 272 45 272 45 240 66 c 1,43,44
 193 -8 193 -8 121 -8 c 0,45,46
 83 -8 83 -8 56.5 11 c 128,-1,47
 30 30 30 30 30 65.5 c 128,-1,48
 30 101 30 101 57 123.5 c 128,-1,49
 84 146 84 146 119.5 146 c 128,-1,50
 155 146 155 146 194 134 c 1,51,52
 195 142 195 142 195 172 c 128,-1,53
 195 202 195 202 165 298 c 1,54,-1
 71 298 l 1,55,56
 66 318 66 318 66 334 c 1,57,-1
 73 341 l 1,58,-1
 153 341 l 1,59,60
 131 416 131 416 131 453 c 0,0,1
125 106 m 0,61,62
 79 106 79 106 79 67 c 0,63,64
 79 34 79 34 120 34 c 0,65,66
 172 34 172 34 188 92 c 1,67,68
 153 106 153 106 125 106 c 0,61,62
EndSplineSet
EndChar

StartChar: currency
Encoding: 164 164 102
Width: 567
GlyphClass: 2
Flags: W
LayerCount: 2
Fore
SplineSet
132 185 m 1,0,1
 89 237 89 237 89 320 c 128,-1,2
 89 403 89 403 136 456 c 1,3,-1
 70 526 l 1,4,-1
 112 567 l 1,5,-1
 182 492 l 1,6,7
 226 515 226 515 284 515 c 128,-1,8
 342 515 342 515 385 492 c 1,9,-1
 455 567 l 1,10,-1
 497 526 l 1,11,-1
 431 456 l 1,12,13
 478 404 478 404 478 321 c 128,-1,14
 478 238 478 238 434 185 c 1,15,-1
 497 116 l 1,16,-1
 455 75 l 1,17,-1
 389 148 l 1,18,19
 346 123 346 123 285 123 c 128,-1,20
 224 123 224 123 177 148 c 1,21,-1
 112 75 l 1,22,-1
 70 116 l 1,23,-1
 132 185 l 1,0,1
190 207.5 m 128,-1,25
 221 167 221 167 283.5 167 c 128,-1,26
 346 167 346 167 377 207.5 c 128,-1,27
 408 248 408 248 408 319 c 128,-1,28
 408 390 408 390 377 430.5 c 128,-1,29
 346 471 346 471 283 471 c 128,-1,30
 220 471 220 471 189.5 430 c 128,-1,31
 159 389 159 389 159 318.5 c 128,-1,24
 159 248 159 248 190 207.5 c 128,-1,25
EndSplineSet
EndChar

StartChar: yen
Encoding: 165 165 103
Width: 628
GlyphClass: 2
Flags: W
LayerCount: 2
Fore
SplineSet
272 215 m 1,0,-1
 91 215 l 1,1,2
 86 235 86 235 86 251 c 1,3,-1
 93 258 l 1,4,-1
 268 258 l 1,5,-1
 231 326 l 1,6,-1
 91 326 l 1,7,8
 86 346 86 346 86 362 c 1,9,-1
 93 369 l 1,10,-1
 207 369 l 1,11,-1
 103 559 l 1,12,13
 82 588 82 588 15 595 c 1,14,-1
 20 633 l 1,15,-1
 291 633 l 1,16,-1
 286 595 l 1,17,18
 230 588 230 588 201 571 c 1,19,-1
 330 331 l 1,20,-1
 462 571 l 1,21,22
 430 588 430 588 369 595 c 1,23,-1
 374 633 l 1,24,-1
 613 633 l 1,25,-1
 607 595 l 1,26,27
 545 593 545 593 525 563 c 1,28,-1
 421 369 l 1,29,-1
 534 369 l 1,30,31
 539 349 539 349 539 333 c 1,32,-1
 532 326 l 1,33,-1
 398 326 l 1,34,-1
 362 258 l 1,35,-1
 534 258 l 1,36,37
 539 238 539 238 539 222 c 1,38,-1
 532 215 l 1,39,-1
 362 215 l 1,40,-1
 362 64 l 1,41,42
 396 46 396 46 465 38 c 1,43,-1
 460 0 l 1,44,-1
 170 0 l 1,45,-1
 175 38 l 1,46,47
 239 45 239 45 272 64 c 1,48,-1
 272 215 l 1,0,-1
EndSplineSet
EndChar

StartChar: brokenbar
Encoding: 166 166 104
Width: 269
GlyphClass: 2
Flags: W
LayerCount: 2
Fore
SplineSet
100 396 m 1,0,-1
 100 749 l 1,1,-1
 169 749 l 1,2,-1
 169 396 l 1,3,-1
 100 396 l 1,0,-1
100 -121 m 1,4,-1
 100 252 l 1,5,-1
 169 252 l 1,6,-1
 169 -121 l 1,7,-1
 100 -121 l 1,4,-1
EndSplineSet
EndChar

StartChar: section
Encoding: 167 167 105
Width: 505
GlyphClass: 2
Flags: W
LayerCount: 2
Fore
SplineSet
125 553 m 1,0,1
 102 527 102 527 102 479.5 c 128,-1,2
 102 432 102 432 128.5 387.5 c 128,-1,3
 155 343 155 343 192 303 c 128,-1,4
 229 263 229 263 266.5 221 c 128,-1,5
 304 179 304 179 330.5 126 c 128,-1,6
 357 73 357 73 357 19 c 1,7,8
 380 45 380 45 380 96.5 c 128,-1,9
 380 148 380 148 354.5 196 c 128,-1,10
 329 244 329 244 292.5 282.5 c 128,-1,11
 256 321 256 321 218.5 360 c 128,-1,12
 181 399 181 399 154 449 c 128,-1,13
 127 499 127 499 125 553 c 1,0,1
168 70 m 1,14,15
 144 46 144 46 144 12 c 128,-1,16
 144 -22 144 -22 165.5 -38.5 c 128,-1,17
 187 -55 187 -55 223 -55 c 0,18,19
 299 -55 299 -55 299 24 c 0,20,21
 299 80 299 80 268 126 c 0,22,23
 240 169 240 169 205.5 208.5 c 128,-1,24
 171 248 171 248 141.5 285 c 128,-1,25
 112 322 112 322 94 346.5 c 128,-1,26
 76 371 76 371 60 409.5 c 128,-1,27
 44 448 44 448 44 489 c 0,28,29
 44 578 44 578 102 630.5 c 128,-1,30
 160 683 160 683 247.5 683 c 128,-1,31
 335 683 335 683 380 647.5 c 128,-1,32
 425 612 425 612 425 553 c 0,33,34
 425 519 425 519 410 499.5 c 128,-1,35
 395 480 395 480 362.5 480 c 128,-1,36
 330 480 330 480 309 511 c 1,37,38
 333 535 333 535 333 569 c 128,-1,39
 333 603 333 603 311.5 619.5 c 128,-1,40
 290 636 290 636 255 636 c 0,41,42
 180 636 180 636 180 557 c 0,43,44
 180 521 180 521 194.5 487.5 c 128,-1,45
 209 454 209 454 226 433.5 c 128,-1,46
 243 413 243 413 277 376 c 128,-1,47
 311 339 311 339 322 325 c 128,-1,48
 333 311 333 311 354 285 c 128,-1,49
 375 259 375 259 380.5 251.5 c 128,-1,50
 386 244 386 244 401 220.5 c 128,-1,51
 416 197 416 197 421 182 c 0,52,53
 437 132 437 132 437 92 c 0,54,55
 437 4 437 4 377.5 -49 c 128,-1,56
 318 -102 318 -102 230 -102 c 128,-1,57
 142 -102 142 -102 95 -67 c 128,-1,58
 48 -32 48 -32 48 26 c 0,59,60
 48 58 48 58 64 79.5 c 128,-1,61
 80 101 80 101 113.5 101 c 128,-1,62
 147 101 147 101 168 70 c 1,14,15
EndSplineSet
EndChar

StartChar: dieresis
Encoding: 168 168 106
Width: 370
GlyphClass: 2
Flags: W
LayerCount: 2
Fore
SplineSet
101 596 m 128,-1,1
 50 596 50 596 50 652.5 c 128,-1,2
 50 709 50 709 101 709 c 128,-1,3
 152 709 152 709 152 652.5 c 128,-1,0
 152 596 152 596 101 596 c 128,-1,1
280 596 m 0,4,5
 230 596 230 596 230 652.5 c 128,-1,6
 230 709 230 709 280 709 c 0,7,8
 332 709 332 709 332 652.5 c 128,-1,9
 332 596 332 596 280 596 c 0,4,5
EndSplineSet
EndChar

StartChar: copyright
Encoding: 169 169 107
Width: 670
GlyphClass: 2
Flags: W
LayerCount: 2
Fore
SplineSet
335 93 m 128,-1,1
 433 93 433 93 503.5 164.5 c 128,-1,2
 574 236 574 236 574 337 c 128,-1,3
 574 438 574 438 503.5 509.5 c 128,-1,4
 433 581 433 581 335 581 c 128,-1,5
 237 581 237 581 166.5 509.5 c 128,-1,6
 96 438 96 438 96 337 c 128,-1,7
 96 236 96 236 166.5 164.5 c 128,-1,0
 237 93 237 93 335 93 c 128,-1,1
48 337 m 128,-1,9
 48 455 48 455 132 538 c 128,-1,10
 216 621 216 621 335 621 c 128,-1,11
 454 621 454 621 538 538 c 128,-1,12
 622 455 622 455 622 337 c 128,-1,13
 622 219 622 219 538.5 136 c 128,-1,14
 455 53 455 53 335 53 c 128,-1,15
 215 53 215 53 131.5 136 c 128,-1,8
 48 219 48 219 48 337 c 128,-1,9
339 187 m 0,16,17
 277 187 277 187 240 225 c 128,-1,18
 203 263 203 263 203 336 c 128,-1,19
 203 409 203 409 241 448 c 128,-1,20
 279 487 279 487 336 487 c 128,-1,21
 393 487 393 487 424 463 c 128,-1,22
 455 439 455 439 455 406 c 0,23,24
 455 388 455 388 444 378 c 128,-1,25
 433 368 433 368 419 368 c 0,26,27
 391 368 391 368 385 391 c 1,28,29
 391 403 391 403 391 416.5 c 128,-1,30
 391 430 391 430 377.5 439.5 c 128,-1,31
 364 449 364 449 336 449 c 128,-1,32
 308 449 308 449 287 421.5 c 128,-1,33
 266 394 266 394 266 337.5 c 128,-1,34
 266 281 266 281 287 253 c 128,-1,35
 308 225 308 225 341 225 c 0,36,37
 397 225 397 225 423 277 c 1,38,-1
 453 260 l 1,39,40
 421 187 421 187 339 187 c 0,16,17
EndSplineSet
EndChar

StartChar: ordfeminine
Encoding: 170 170 108
Width: 360
GlyphClass: 2
Flags: W
LayerCount: 2
Fore
SplineSet
224 378 m 1,0,1
 188 347 188 347 136.5 347 c 128,-1,2
 85 347 85 347 60 369 c 128,-1,3
 35 391 35 391 35 434.5 c 128,-1,4
 35 478 35 478 69.5 505 c 128,-1,5
 104 532 104 532 169 537 c 2,6,-1
 220 541 l 1,7,-1
 220 593 l 2,8,9
 220 630 220 630 207.5 647 c 128,-1,10
 195 664 195 664 169 664 c 0,11,12
 115 664 115 664 115 634 c 0,13,14
 115 622 115 622 127 607 c 1,15,16
 126 591 126 591 114 582 c 128,-1,17
 102 573 102 573 85.5 573 c 128,-1,18
 69 573 69 573 56 584 c 128,-1,19
 43 595 43 595 43 614 c 0,20,21
 43 652 43 652 77.5 674.5 c 128,-1,22
 112 697 112 697 170 697 c 128,-1,23
 228 697 228 697 260 669.5 c 128,-1,24
 292 642 292 642 292 593 c 2,25,-1
 292 398 l 1,26,27
 308 387 308 387 342 380 c 1,28,-1
 339 352 l 1,29,-1
 230 352 l 1,30,-1
 224 378 l 1,0,1
109 437 m 0,31,32
 109 381 109 381 153 381 c 0,33,34
 186 381 186 381 220 410 c 1,35,-1
 220 507 l 1,36,-1
 172 503 l 2,37,38
 143 501 143 501 126 483 c 128,-1,39
 109 465 109 465 109 437 c 0,31,32
35 256 m 1,40,-1
 35 293 l 1,41,-1
 340 293 l 1,42,-1
 340 256 l 1,43,-1
 35 256 l 1,40,-1
EndSplineSet
EndChar

StartChar: guillemotleft
Encoding: 171 171 109
Width: 396
GlyphClass: 2
Flags: W
LayerCount: 2
Fore
SplineSet
166 85 m 1,0,-1
 25 253 l 1,1,-1
 168 414 l 1,2,-1
 200 392 l 1,3,-1
 117 253 l 1,4,-1
 200 107 l 1,5,-1
 166 85 l 1,0,-1
322 85 m 1,6,-1
 181 253 l 1,7,-1
 324 414 l 1,8,-1
 356 392 l 1,9,-1
 273 253 l 1,10,-1
 356 107 l 1,11,-1
 322 85 l 1,6,-1
EndSplineSet
EndChar

StartChar: logicalnot
Encoding: 172 172 110
Width: 546
GlyphClass: 2
Flags: W
LayerCount: 2
Fore
SplineSet
65 334 m 1,0,-1
 65 391 l 1,1,-1
 486 391 l 1,2,-1
 486 334 l 1,3,-1
 65 334 l 1,0,-1
65 153 m 1,4,-1
 65 334 l 1,5,-1
 130 334 l 1,6,-1
 130 153 l 1,7,-1
 65 153 l 1,4,-1
EndSplineSet
EndChar

StartChar: uni00AD
Encoding: 173 173 111
Width: 359
GlyphClass: 2
Flags: W
LayerCount: 2
Fore
SplineSet
30 241 m 1,0,-1
 30 299 l 1,1,-1
 329 299 l 1,2,-1
 329 241 l 1,3,-1
 30 241 l 1,0,-1
EndSplineSet
EndChar

StartChar: registered
Encoding: 174 174 112
Width: 670
GlyphClass: 2
Flags: W
LayerCount: 2
Fore
SplineSet
335 93 m 128,-1,1
 433 93 433 93 503.5 164.5 c 128,-1,2
 574 236 574 236 574 337 c 128,-1,3
 574 438 574 438 503.5 509.5 c 128,-1,4
 433 581 433 581 335 581 c 128,-1,5
 237 581 237 581 166.5 509.5 c 128,-1,6
 96 438 96 438 96 337 c 128,-1,7
 96 236 96 236 166.5 164.5 c 128,-1,0
 237 93 237 93 335 93 c 128,-1,1
48 337 m 128,-1,9
 48 455 48 455 132 538 c 128,-1,10
 216 621 216 621 335 621 c 128,-1,11
 454 621 454 621 538 538 c 128,-1,12
 622 455 622 455 622 337 c 128,-1,13
 622 219 622 219 538.5 136 c 128,-1,14
 455 53 455 53 335 53 c 128,-1,15
 215 53 215 53 131.5 136 c 128,-1,8
 48 219 48 219 48 337 c 128,-1,9
337 489 m 2,16,17
 447 489 447 489 447 409 c 0,18,19
 447 353 447 353 386 336 c 1,20,21
 403 326 403 326 412 305 c 2,22,-1
 448 228 l 1,23,-1
 483 219 l 1,24,-1
 480 194 l 1,25,-1
 398 194 l 1,26,-1
 360 292 l 2,27,28
 351 315 351 315 341 320.5 c 128,-1,29
 331 326 331 326 304 326 c 1,30,-1
 304 228 l 1,31,-1
 346 218 l 1,32,-1
 343 194 l 1,33,-1
 206 194 l 1,34,-1
 210 218 l 1,35,-1
 249 228 l 1,36,-1
 249 454 l 1,37,-1
 206 465 l 1,38,-1
 210 489 l 1,39,-1
 337 489 l 2,16,17
304 358 m 1,40,-1
 318 358 l 2,41,42
 391 358 391 358 391 408.5 c 128,-1,43
 391 459 391 459 337 459 c 2,44,-1
 304 459 l 1,45,-1
 304 358 l 1,40,-1
EndSplineSet
EndChar

StartChar: macron
Encoding: 175 175 113
Width: 374
GlyphClass: 2
Flags: W
LayerCount: 2
Fore
SplineSet
37 615 m 1,0,-1
 37 672 l 1,1,-1
 337 672 l 1,2,-1
 337 615 l 1,3,-1
 37 615 l 1,0,-1
EndSplineSet
EndChar

StartChar: degree
Encoding: 176 176 114
Width: 408
GlyphClass: 2
Flags: W
LayerCount: 2
Fore
SplineSet
40 523 m 128,-1,1
 40 590 40 590 87 637 c 128,-1,2
 134 684 134 684 204 684 c 128,-1,3
 274 684 274 684 321 637 c 128,-1,4
 368 590 368 590 368 523 c 128,-1,5
 368 456 368 456 321 409 c 128,-1,6
 274 362 274 362 204 362 c 128,-1,7
 134 362 134 362 87 409 c 128,-1,0
 40 456 40 456 40 523 c 128,-1,1
204 400 m 128,-1,9
 247 400 247 400 270.5 434.5 c 128,-1,10
 294 469 294 469 294 522 c 128,-1,11
 294 575 294 575 269.5 610.5 c 128,-1,12
 245 646 245 646 204 646 c 128,-1,13
 163 646 163 646 138.5 610.5 c 128,-1,14
 114 575 114 575 114 522 c 128,-1,15
 114 469 114 469 137.5 434.5 c 128,-1,8
 161 400 161 400 204 400 c 128,-1,9
EndSplineSet
EndChar

StartChar: plusminus
Encoding: 177 177 115
Width: 545
GlyphClass: 2
Flags: W
LayerCount: 2
Fore
SplineSet
82 290 m 1,0,-1
 82 347 l 1,1,-1
 237 347 l 1,2,-1
 237 498 l 1,3,-1
 302 498 l 1,4,-1
 302 347 l 1,5,-1
 463 347 l 1,6,-1
 463 290 l 1,7,-1
 302 290 l 1,8,-1
 302 139 l 1,9,-1
 237 139 l 1,10,-1
 237 290 l 1,11,-1
 82 290 l 1,0,-1
82 42 m 1,12,-1
 82 99 l 1,13,-1
 463 99 l 1,14,-1
 463 42 l 1,15,-1
 82 42 l 1,12,-1
EndSplineSet
EndChar

StartChar: twosuperior
Encoding: 178 178 116
Width: 371
GlyphClass: 2
Flags: W
LayerCount: 2
Fore
SplineSet
42 356 m 1,0,-1
 42 399 l 1,1,2
 155 492 155 492 198 547.5 c 128,-1,3
 241 603 241 603 241 653 c 0,4,5
 241 721 241 721 177 721 c 0,6,7
 148 721 148 721 131.5 705.5 c 128,-1,8
 115 690 115 690 115 670 c 128,-1,9
 115 650 115 650 130 629 c 1,10,11
 113 612 113 612 91.5 612 c 128,-1,12
 70 612 70 612 56.5 625 c 128,-1,13
 43 638 43 638 43 664 c 0,14,15
 43 703 43 703 82.5 733 c 128,-1,16
 122 763 122 763 181.5 763 c 128,-1,17
 241 763 241 763 277.5 732 c 128,-1,18
 314 701 314 701 314 649 c 128,-1,19
 314 597 314 597 272 542 c 128,-1,20
 230 487 230 487 131 412 c 1,21,-1
 331 412 l 1,22,-1
 331 356 l 1,23,-1
 42 356 l 1,0,-1
EndSplineSet
EndChar

StartChar: threesuperior
Encoding: 179 179 117
Width: 371
GlyphClass: 2
Flags: W
LayerCount: 2
Fore
SplineSet
133 584 m 1,0,1
 240 588 240 588 240 664 c 0,2,3
 240 721 240 721 181 721 c 0,4,5
 153 721 153 721 137.5 707 c 128,-1,6
 122 693 122 693 122 677 c 128,-1,7
 122 661 122 661 130 647 c 1,8,9
 110 633 110 633 91.5 633 c 128,-1,10
 73 633 73 633 63 645.5 c 128,-1,11
 53 658 53 658 53 679 c 0,12,13
 53 714 53 714 89.5 738.5 c 128,-1,14
 126 763 126 763 183 763 c 128,-1,15
 240 763 240 763 275 735.5 c 128,-1,16
 310 708 310 708 310 664 c 0,17,18
 310 599 310 599 232 569 c 1,19,20
 320 545 320 545 320 468 c 0,21,22
 320 418 320 418 280 385 c 128,-1,23
 240 352 240 352 176 352 c 128,-1,24
 112 352 112 352 74 379 c 128,-1,25
 36 406 36 406 36 449 c 0,26,27
 36 468 36 468 49 478.5 c 128,-1,28
 62 489 62 489 81.5 489 c 128,-1,29
 101 489 101 489 118 475 c 1,30,31
 112 458 112 458 112 440 c 128,-1,32
 112 422 112 422 130 408 c 128,-1,33
 148 394 148 394 179 394 c 0,34,35
 248 394 248 394 248 468 c 0,36,37
 248 505 248 505 219.5 527.5 c 128,-1,38
 191 550 191 550 137 551 c 1,39,-1
 133 551 l 1,40,-1
 133 584 l 1,0,1
EndSplineSet
EndChar

StartChar: acute
Encoding: 180 180 118
Width: 261
GlyphClass: 2
Flags: W
LayerCount: 2
Fore
SplineSet
124 716 m 1,0,1
 135 734 135 734 154.5 734 c 128,-1,2
 174 734 174 734 185.5 722.5 c 128,-1,3
 197 711 197 711 197 694 c 128,-1,4
 197 677 197 677 170 655 c 2,5,-1
 58 565 l 1,6,-1
 34 591 l 1,7,-1
 124 716 l 1,0,1
EndSplineSet
EndChar

StartChar: mu
Encoding: 181 181 119
Width: 590
GlyphClass: 2
Flags: W
LayerCount: 2
Fore
SplineSet
91 -221 m 1,0,-1
 91 376 l 2,1,2
 91 416 91 416 74.5 430.5 c 128,-1,3
 58 445 58 445 16 447 c 1,4,-1
 19 479 l 1,5,6
 60 486 60 486 162 516 c 1,7,-1
 183 505 l 1,8,-1
 183 154 l 2,9,10
 183 41 183 41 276 41 c 0,11,12
 304 41 304 41 335 61.5 c 128,-1,13
 366 82 366 82 390 126 c 1,14,-1
 390 376 l 2,15,16
 390 416 390 416 373.5 430.5 c 128,-1,17
 357 445 357 445 315 447 c 1,18,-1
 318 479 l 1,19,20
 359 486 359 486 461 516 c 1,21,-1
 482 505 l 1,22,-1
 482 66 l 1,23,24
 507 47 507 47 557 37 c 1,25,-1
 553 0 l 1,26,-1
 410 0 l 1,27,-1
 399 68 l 1,28,29
 341 -8 341 -8 264 -8 c 0,30,31
 220 -8 220 -8 183 5 c 1,32,-1
 183 -221 l 1,33,-1
 91 -221 l 1,0,-1
EndSplineSet
EndChar

StartChar: paragraph
Encoding: 182 182 120
Width: 530
GlyphClass: 2
Flags: W
LayerCount: 2
Fore
SplineSet
265 -67 m 2,0,-1
 265 307 l 1,1,2
 166 316 166 316 115.5 359 c 128,-1,3
 65 402 65 402 65 491.5 c 128,-1,4
 65 581 65 581 119.5 628.5 c 128,-1,5
 174 676 174 676 294 676 c 2,6,-1
 503 676 l 1,7,-1
 497 636 l 1,8,9
 435 629 435 629 400 608 c 1,10,-1
 400 31 l 2,11,12
 400 -16 400 -16 387.5 -51.5 c 128,-1,13
 375 -87 375 -87 356.5 -106 c 128,-1,14
 338 -125 338 -125 313 -137 c 0,15,16
 273 -156 273 -156 223 -156 c 0,17,18
 104 -156 104 -156 104 -73 c 0,19,20
 104 -48 104 -48 118 -31 c 128,-1,21
 132 -14 132 -14 158.5 -14 c 128,-1,22
 185 -14 185 -14 197 -35 c 1,23,24
 178 -53 178 -53 178 -82 c 0,25,26
 178 -122 178 -122 222 -122 c 0,27,28
 243 -122 243 -122 254 -106.5 c 128,-1,29
 265 -91 265 -91 265 -67 c 2,0,-1
345 -19 m 2,30,-1
 345 628 l 1,31,-1
 306 631 l 1,32,-1
 306 -53 l 2,33,34
 306 -94 306 -94 289 -111 c 1,35,36
 345 -95 345 -95 345 -19 c 2,30,-1
162 492 m 0,37,38
 162 383 162 383 265 360 c 1,39,-1
 265 629 l 1,40,41
 162 615 162 615 162 492 c 0,37,38
EndSplineSet
EndChar

StartChar: periodcentered
Encoding: 183 183 121
Width: 198
GlyphClass: 2
Flags: W
LayerCount: 2
Fore
SplineSet
101 289 m 128,-1,1
 77 289 77 289 63 305 c 128,-1,2
 49 321 49 321 49 344 c 128,-1,3
 49 367 49 367 63.5 382.5 c 128,-1,4
 78 398 78 398 101.5 398 c 128,-1,5
 125 398 125 398 139.5 382.5 c 128,-1,6
 154 367 154 367 154 344 c 128,-1,7
 154 321 154 321 139.5 305 c 128,-1,0
 125 289 125 289 101 289 c 128,-1,1
EndSplineSet
EndChar

StartChar: cedilla
Encoding: 184 184 122
Width: 225
GlyphClass: 2
Flags: W
LayerCount: 2
Fore
SplineSet
181 -76.5 m 128,-1,1
 202 -96 202 -96 202 -133.5 c 128,-1,2
 202 -171 202 -171 172.5 -195.5 c 128,-1,3
 143 -220 143 -220 97 -220 c 128,-1,4
 51 -220 51 -220 26 -198.5 c 128,-1,5
 1 -177 1 -177 1 -154.5 c 128,-1,6
 1 -132 1 -132 10.5 -119.5 c 128,-1,7
 20 -107 20 -107 33.5 -107 c 128,-1,8
 47 -107 47 -107 56 -111 c 1,9,10
 52 -127 52 -127 52 -133 c 0,11,12
 52 -156 52 -156 66 -170 c 128,-1,13
 80 -184 80 -184 100 -184 c 0,14,15
 147 -184 147 -184 147 -130 c 0,16,17
 147 -90 147 -90 88 -82 c 1,18,-1
 68 -60 l 1,19,-1
 111 10 l 1,20,-1
 139 4 l 1,21,-1
 120 -50 l 1,22,0
 160 -57 160 -57 181 -76.5 c 128,-1,1
EndSplineSet
EndChar

StartChar: onesuperior
Encoding: 185 185 123
Width: 372
GlyphClass: 2
Flags: W
LayerCount: 2
Fore
SplineSet
164 695 m 1,0,-1
 81 695 l 1,1,-1
 81 725 l 1,2,3
 152 736 152 736 205 762 c 1,4,-1
 232 751 l 1,5,-1
 232 404 l 1,6,-1
 300 386 l 1,7,-1
 297 356 l 1,8,-1
 86 356 l 1,9,-1
 89 386 l 1,10,-1
 164 404 l 1,11,-1
 164 695 l 1,0,-1
EndSplineSet
EndChar

StartChar: ordmasculine
Encoding: 186 186 124
Width: 360
GlyphClass: 2
Flags: W
LayerCount: 2
Fore
SplineSet
188 384 m 128,-1,1
 230 384 230 384 249 416.5 c 128,-1,2
 268 449 268 449 268 522 c 128,-1,3
 268 595 268 595 249 627 c 128,-1,4
 230 659 230 659 188 659 c 128,-1,5
 146 659 146 659 127.5 627 c 128,-1,6
 109 595 109 595 109 522 c 128,-1,7
 109 449 109 449 127.5 416.5 c 128,-1,0
 146 384 146 384 188 384 c 128,-1,1
342 522 m 0,8,9
 342 347 342 347 188.5 347 c 128,-1,10
 35 347 35 347 35 522 c 128,-1,11
 35 697 35 697 188 697 c 0,12,13
 264 697 264 697 303 652 c 128,-1,14
 342 607 342 607 342 522 c 0,8,9
35 256 m 1,15,-1
 35 293 l 1,16,-1
 343 293 l 1,17,-1
 343 256 l 1,18,-1
 35 256 l 1,15,-1
EndSplineSet
EndChar

StartChar: guillemotright
Encoding: 187 187 125
Width: 396
GlyphClass: 2
Flags: W
LayerCount: 2
Fore
SplineSet
40 107 m 1,0,-1
 122 253 l 1,1,-1
 40 392 l 1,2,-1
 72 414 l 1,3,-1
 215 253 l 1,4,-1
 74 85 l 1,5,-1
 40 107 l 1,0,-1
196 107 m 1,6,-1
 278 253 l 1,7,-1
 196 392 l 1,8,-1
 228 414 l 1,9,-1
 371 253 l 1,10,-1
 230 85 l 1,11,-1
 196 107 l 1,6,-1
EndSplineSet
EndChar

StartChar: onequarter
Encoding: 188 188 126
Width: 797
GlyphClass: 2
Flags: W
LayerCount: 2
Fore
SplineSet
133 612 m 1,0,-1
 50 612 l 1,1,-1
 50 642 l 1,2,3
 121 653 121 653 174 679 c 1,4,-1
 201 668 l 1,5,-1
 201 321 l 1,6,-1
 269 303 l 1,7,-1
 266 273 l 1,8,-1
 55 273 l 1,9,-1
 58 303 l 1,10,-1
 133 321 l 1,11,-1
 133 612 l 1,0,-1
192 0 m 1,12,-1
 497 676 l 1,13,-1
 552 651 l 1,14,-1
 246 -27 l 1,15,-1
 192 0 l 1,12,-1
624 140 m 1,16,-1
 624 248 l 1,17,18
 662 248 662 248 670 275 c 1,19,-1
 694 275 l 1,20,-1
 694 139 l 1,21,-1
 753 129 l 1,22,-1
 753 97 l 1,23,-1
 692 97 l 1,24,-1
 692 -1 l 1,25,-1
 624 -1 l 1,26,-1
 624 97 l 1,27,-1
 434 97 l 1,28,-1
 428 124 l 1,29,-1
 569 398 l 1,30,31
 613 398 613 398 635 380 c 1,32,-1
 495 140 l 1,33,-1
 624 140 l 1,16,-1
EndSplineSet
EndChar

StartChar: onehalf
Encoding: 189 189 127
Width: 797
GlyphClass: 2
Flags: W
LayerCount: 2
Fore
SplineSet
133 612 m 1,0,-1
 50 612 l 1,1,-1
 50 642 l 1,2,3
 121 653 121 653 174 679 c 1,4,-1
 201 668 l 1,5,-1
 201 321 l 1,6,-1
 269 303 l 1,7,-1
 266 273 l 1,8,-1
 55 273 l 1,9,-1
 58 303 l 1,10,-1
 133 321 l 1,11,-1
 133 612 l 1,0,-1
192 0 m 1,12,-1
 497 676 l 1,13,-1
 552 651 l 1,14,-1
 246 -27 l 1,15,-1
 192 0 l 1,12,-1
464 1 m 1,16,-1
 464 44 l 1,17,18
 577 137 577 137 620 192.5 c 128,-1,19
 663 248 663 248 663 298 c 0,20,21
 663 366 663 366 599 366 c 0,22,23
 570 366 570 366 553.5 350.5 c 128,-1,24
 537 335 537 335 537 315 c 128,-1,25
 537 295 537 295 552 274 c 1,26,27
 535 257 535 257 513.5 257 c 128,-1,28
 492 257 492 257 478.5 269.5 c 128,-1,29
 465 282 465 282 465 309 c 0,30,31
 465 348 465 348 504.5 378 c 128,-1,32
 544 408 544 408 603.5 408 c 128,-1,33
 663 408 663 408 699.5 377 c 128,-1,34
 736 346 736 346 736 294 c 128,-1,35
 736 242 736 242 694 187 c 128,-1,36
 652 132 652 132 553 57 c 1,37,-1
 753 57 l 1,38,-1
 753 1 l 1,39,-1
 464 1 l 1,16,-1
EndSplineSet
EndChar

StartChar: threequarters
Encoding: 190 190 128
Width: 797
GlyphClass: 2
Flags: W
LayerCount: 2
Fore
SplineSet
141 501 m 1,0,1
 248 505 248 505 248 581 c 0,2,3
 248 638 248 638 189 638 c 0,4,5
 161 638 161 638 145.5 624 c 128,-1,6
 130 610 130 610 130 594 c 128,-1,7
 130 578 130 578 138 564 c 1,8,9
 118 550 118 550 99.5 550 c 128,-1,10
 81 550 81 550 71 562.5 c 128,-1,11
 61 575 61 575 61 596 c 0,12,13
 61 631 61 631 97.5 655.5 c 128,-1,14
 134 680 134 680 191 680 c 128,-1,15
 248 680 248 680 283 652.5 c 128,-1,16
 318 625 318 625 318 581 c 0,17,18
 318 516 318 516 240 486 c 1,19,20
 328 462 328 462 328 385 c 0,21,22
 328 335 328 335 288 302 c 128,-1,23
 248 269 248 269 184 269 c 128,-1,24
 120 269 120 269 82 296 c 128,-1,25
 44 323 44 323 44 366 c 0,26,27
 44 385 44 385 57 395.5 c 128,-1,28
 70 406 70 406 89.5 406 c 128,-1,29
 109 406 109 406 126 392 c 1,30,31
 120 376 120 376 120 357.5 c 128,-1,32
 120 339 120 339 138 325 c 128,-1,33
 156 311 156 311 187 311 c 0,34,35
 256 311 256 311 256 385 c 0,36,37
 256 422 256 422 227.5 444.5 c 128,-1,38
 199 467 199 467 145 468 c 1,39,-1
 141 468 l 1,40,-1
 141 501 l 1,0,1
224 0 m 1,41,-1
 529 676 l 1,42,-1
 584 651 l 1,43,-1
 278 -27 l 1,44,-1
 224 0 l 1,41,-1
636 141 m 1,45,-1
 636 249 l 1,46,47
 674 249 674 249 682 276 c 1,48,-1
 706 276 l 1,49,-1
 706 140 l 1,50,-1
 765 130 l 1,51,-1
 765 98 l 1,52,-1
 704 98 l 1,53,-1
 704 0 l 1,54,-1
 636 0 l 1,55,-1
 636 98 l 1,56,-1
 446 98 l 1,57,-1
 440 125 l 1,58,-1
 581 399 l 1,59,60
 625 399 625 399 647 381 c 1,61,-1
 507 141 l 1,62,-1
 636 141 l 1,45,-1
EndSplineSet
EndChar

StartChar: questiondown
Encoding: 191 191 129
Width: 392
GlyphClass: 2
Flags: W
LayerCount: 2
Fore
SplineSet
314 -63 m 0,0,1
 367 -63 367 -63 367 -121 c 128,-1,2
 367 -179 367 -179 317.5 -207 c 128,-1,3
 268 -235 268 -235 195 -235 c 128,-1,4
 122 -235 122 -235 73.5 -202 c 128,-1,5
 25 -169 25 -169 25 -98 c 0,6,7
 25 -21 25 -21 86 40 c 0,8,9
 111 65 111 65 136 88 c 0,10,11
 198 143 198 143 198 189 c 0,12,13
 198 210 198 210 192 236 c 1,14,15
 214 254 214 254 239 254 c 128,-1,16
 264 254 264 254 278 234.5 c 128,-1,17
 292 215 292 215 292 181 c 128,-1,18
 292 147 292 147 273.5 114.5 c 128,-1,19
 255 82 255 82 228 59 c 128,-1,20
 201 36 201 36 174 13 c 0,21,22
 110 -42 110 -42 110 -111 c 0,23,24
 110 -146 110 -146 135.5 -167.5 c 128,-1,25
 161 -189 161 -189 196 -189 c 128,-1,26
 231 -189 231 -189 252.5 -175.5 c 128,-1,27
 274 -162 274 -162 274 -139 c 128,-1,28
 274 -116 274 -116 262 -95 c 1,29,30
 283 -63 283 -63 314 -63 c 0,0,1
240 352 m 128,-1,32
 216 352 216 352 202 368 c 128,-1,33
 188 384 188 384 188 407 c 128,-1,34
 188 430 188 430 202.5 445.5 c 128,-1,35
 217 461 217 461 240.5 461 c 128,-1,36
 264 461 264 461 278.5 445.5 c 128,-1,37
 293 430 293 430 293 407 c 128,-1,38
 293 384 293 384 278.5 368 c 128,-1,31
 264 352 264 352 240 352 c 128,-1,32
EndSplineSet
EndChar

StartChar: Agrave
Encoding: 192 192 130
Width: 709
GlyphClass: 2
Flags: W
LayerCount: 2
Fore
SplineSet
0 0 m 1,0,-1
 6 40 l 1,1,2
 59 47 59 47 88 68 c 1,3,-1
 310 677 l 1,4,-1
 392 677 l 1,5,-1
 632 67 l 1,6,7
 657 48 657 48 709 40 c 1,8,-1
 704 0 l 1,9,-1
 419 0 l 1,10,-1
 425 40 l 1,11,12
 489 47 489 47 520 67 c 1,13,-1
 459 227 l 1,14,-1
 216 227 l 1,15,-1
 159 66 l 1,16,17
 192 48 192 48 259 40 c 1,18,-1
 254 0 l 1,19,-1
 0 0 l 1,0,-1
236 283 m 1,20,-1
 438 283 l 1,21,-1
 333 557 l 1,22,-1
 236 283 l 1,20,-1
273 795 m 2,23,24
 246 817 246 817 246 834 c 128,-1,25
 246 851 246 851 257.5 862.5 c 128,-1,26
 269 874 269 874 288.5 874 c 128,-1,27
 308 874 308 874 319 856 c 1,28,-1
 409 731 l 1,29,-1
 385 705 l 1,30,-1
 273 795 l 2,23,24
EndSplineSet
EndChar

StartChar: Aacute
Encoding: 193 193 131
Width: 709
GlyphClass: 2
Flags: W
LayerCount: 2
Fore
SplineSet
0 0 m 1,0,-1
 6 40 l 1,1,2
 59 47 59 47 88 68 c 1,3,-1
 310 677 l 1,4,-1
 392 677 l 1,5,-1
 632 67 l 1,6,7
 657 48 657 48 709 40 c 1,8,-1
 704 0 l 1,9,-1
 419 0 l 1,10,-1
 425 40 l 1,11,12
 489 47 489 47 520 67 c 1,13,-1
 459 227 l 1,14,-1
 216 227 l 1,15,-1
 159 66 l 1,16,17
 192 48 192 48 259 40 c 1,18,-1
 254 0 l 1,19,-1
 0 0 l 1,0,-1
236 283 m 1,20,-1
 438 283 l 1,21,-1
 333 557 l 1,22,-1
 236 283 l 1,20,-1
377 856 m 1,23,24
 388 874 388 874 407.5 874 c 128,-1,25
 427 874 427 874 438.5 862.5 c 128,-1,26
 450 851 450 851 450 834 c 128,-1,27
 450 817 450 817 423 795 c 2,28,-1
 311 705 l 1,29,-1
 287 731 l 1,30,-1
 377 856 l 1,23,24
EndSplineSet
EndChar

StartChar: Acircumflex
Encoding: 194 194 132
Width: 709
GlyphClass: 2
Flags: W
LayerCount: 2
Fore
SplineSet
0 0 m 1,0,-1
 6 40 l 1,1,2
 59 47 59 47 88 68 c 1,3,-1
 310 677 l 1,4,-1
 392 677 l 1,5,-1
 632 67 l 1,6,7
 657 48 657 48 709 40 c 1,8,-1
 704 0 l 1,9,-1
 419 0 l 1,10,-1
 425 40 l 1,11,12
 489 47 489 47 520 67 c 1,13,-1
 459 227 l 1,14,-1
 216 227 l 1,15,-1
 159 66 l 1,16,17
 192 48 192 48 259 40 c 1,18,-1
 254 0 l 1,19,-1
 0 0 l 1,0,-1
236 283 m 1,20,-1
 438 283 l 1,21,-1
 333 557 l 1,22,-1
 236 283 l 1,20,-1
316 856 m 2,23,24
 330 873 330 873 349.5 873 c 128,-1,25
 369 873 369 873 383 856 c 2,26,-1
 483 741 l 1,27,-1
 459 715 l 1,28,-1
 349 798 l 1,29,-1
 240 715 l 1,30,-1
 216 741 l 1,31,-1
 316 856 l 2,23,24
EndSplineSet
EndChar

StartChar: Atilde
Encoding: 195 195 133
Width: 709
GlyphClass: 2
Flags: W
LayerCount: 2
Fore
SplineSet
0 0 m 1,0,-1
 6 40 l 1,1,2
 59 47 59 47 88 68 c 1,3,-1
 310 677 l 1,4,-1
 392 677 l 1,5,-1
 632 67 l 1,6,7
 657 48 657 48 709 40 c 1,8,-1
 704 0 l 1,9,-1
 419 0 l 1,10,-1
 425 40 l 1,11,12
 489 47 489 47 520 67 c 1,13,-1
 459 227 l 1,14,-1
 216 227 l 1,15,-1
 159 66 l 1,16,17
 192 48 192 48 259 40 c 1,18,-1
 254 0 l 1,19,-1
 0 0 l 1,0,-1
236 283 m 1,20,-1
 438 283 l 1,21,-1
 333 557 l 1,22,-1
 236 283 l 1,20,-1
223 819 m 128,-1,24
 251 848 251 848 282.5 848 c 128,-1,25
 314 848 314 848 353.5 826.5 c 128,-1,26
 393 805 393 805 413 805 c 0,27,28
 447 805 447 805 484 848 c 1,29,30
 502 841 502 841 519 827 c 1,31,32
 506 795 506 795 478 766.5 c 128,-1,33
 450 738 450 738 418 738 c 128,-1,34
 386 738 386 738 347 759.5 c 128,-1,35
 308 781 308 781 287 781 c 0,36,37
 254 781 254 781 217 738 c 1,38,39
 200 742 200 742 182 759 c 1,40,23
 195 790 195 790 223 819 c 128,-1,24
EndSplineSet
EndChar

StartChar: Adieresis
Encoding: 196 196 134
Width: 709
GlyphClass: 2
Flags: W
LayerCount: 2
Fore
SplineSet
0 0 m 1,0,-1
 6 40 l 1,1,2
 59 47 59 47 88 68 c 1,3,-1
 310 677 l 1,4,-1
 392 677 l 1,5,-1
 632 67 l 1,6,7
 657 48 657 48 709 40 c 1,8,-1
 704 0 l 1,9,-1
 419 0 l 1,10,-1
 425 40 l 1,11,12
 489 47 489 47 520 67 c 1,13,-1
 459 227 l 1,14,-1
 216 227 l 1,15,-1
 159 66 l 1,16,17
 192 48 192 48 259 40 c 1,18,-1
 254 0 l 1,19,-1
 0 0 l 1,0,-1
236 283 m 1,20,-1
 438 283 l 1,21,-1
 333 557 l 1,22,-1
 236 283 l 1,20,-1
259 736 m 128,-1,24
 208 736 208 736 208 792.5 c 128,-1,25
 208 849 208 849 259 849 c 128,-1,26
 310 849 310 849 310 792.5 c 128,-1,23
 310 736 310 736 259 736 c 128,-1,24
438 736 m 0,27,28
 388 736 388 736 388 792.5 c 128,-1,29
 388 849 388 849 438 849 c 0,30,31
 490 849 490 849 490 792.5 c 128,-1,32
 490 736 490 736 438 736 c 0,27,28
EndSplineSet
EndChar

StartChar: Aring
Encoding: 197 197 135
Width: 709
GlyphClass: 2
Flags: W
LayerCount: 2
Fore
SplineSet
0 0 m 1,0,-1
 6 40 l 1,1,2
 59 47 59 47 88 68 c 1,3,-1
 310 677 l 1,4,-1
 392 677 l 1,5,-1
 632 67 l 1,6,7
 657 48 657 48 709 40 c 1,8,-1
 704 0 l 1,9,-1
 419 0 l 1,10,-1
 425 40 l 1,11,12
 489 47 489 47 520 67 c 1,13,-1
 459 227 l 1,14,-1
 216 227 l 1,15,-1
 159 66 l 1,16,17
 192 48 192 48 259 40 c 1,18,-1
 254 0 l 1,19,-1
 0 0 l 1,0,-1
236 283 m 1,20,-1
 438 283 l 1,21,-1
 333 557 l 1,22,-1
 236 283 l 1,20,-1
257 790 m 128,-1,24
 257 829 257 829 282 854 c 128,-1,25
 307 879 307 879 348.5 879 c 128,-1,26
 390 879 390 879 416 854 c 128,-1,27
 442 829 442 829 442 790 c 128,-1,28
 442 751 442 751 416 726 c 128,-1,29
 390 701 390 701 348.5 701 c 128,-1,30
 307 701 307 701 282 726 c 128,-1,23
 257 751 257 751 257 790 c 128,-1,24
348 743 m 128,-1,32
 368 743 368 743 382.5 757 c 128,-1,33
 397 771 397 771 397 790.5 c 128,-1,34
 397 810 397 810 382.5 824 c 128,-1,35
 368 838 368 838 348 838 c 128,-1,36
 328 838 328 838 315 824 c 128,-1,37
 302 810 302 810 302 790 c 128,-1,38
 302 770 302 770 315 756.5 c 128,-1,31
 328 743 328 743 348 743 c 128,-1,32
EndSplineSet
EndChar

StartChar: AE
Encoding: 198 198 136
Width: 889
GlyphClass: 2
Flags: W
LayerCount: 2
Fore
SplineSet
834 514 m 1,0,1
 819 509 819 509 806 509 c 128,-1,2
 793 509 793 509 788 510 c 1,3,4
 774 575 774 575 738 619 c 1,5,-1
 533 619 l 1,6,-1
 533 374 l 1,7,-1
 663 374 l 2,8,9
 686 374 686 374 702 394 c 128,-1,10
 718 414 718 414 723 447 c 1,11,-1
 757 447 l 1,12,-1
 757 237 l 1,13,-1
 723 237 l 1,14,15
 714 318 714 318 663 318 c 2,16,-1
 533 318 l 1,17,-1
 533 61 l 1,18,-1
 753 61 l 1,19,20
 789 109 789 109 804 182 c 1,21,22
 818 184 818 184 824 184 c 128,-1,23
 830 184 830 184 848 182 c 1,24,-1
 838 0 l 1,25,-1
 335 0 l 1,26,-1
 341 40 l 1,27,28
 412 48 412 48 438 68 c 1,29,-1
 438 318 l 1,30,-1
 285 318 l 1,31,-1
 146 61 l 1,32,33
 183 45 183 45 237 40 c 1,34,-1
 232 0 l 1,35,-1
 0 0 l 1,36,-1
 6 40 l 1,37,38
 35 45 35 45 54 60 c 128,-1,39
 73 75 73 75 91 106 c 2,40,-1
 410 676 l 1,41,-1
 825 676 l 1,42,-1
 834 514 l 1,0,1
438 374 m 1,43,-1
 438 598 l 1,44,-1
 316 374 l 1,45,-1
 438 374 l 1,43,-1
EndSplineSet
EndChar

StartChar: Ccedilla
Encoding: 199 199 137
Width: 605
GlyphClass: 2
Flags: W
LayerCount: 2
Fore
SplineSet
48 336 m 0,0,1
 48 682 48 682 354 682 c 0,2,3
 474 682 474 682 536 623 c 0,4,5
 570 590 570 590 570 548 c 128,-1,6
 570 506 570 506 551.5 482 c 128,-1,7
 533 458 533 458 509.5 458 c 128,-1,8
 486 458 486 458 468.5 469.5 c 128,-1,9
 451 481 451 481 446 500 c 1,10,11
 466 529 466 529 466 559.5 c 128,-1,12
 466 590 466 590 435.5 608.5 c 128,-1,13
 405 627 405 627 355 627 c 0,14,15
 248 627 248 627 201 558.5 c 128,-1,16
 154 490 154 490 154 336 c 128,-1,17
 154 182 154 182 200 115 c 128,-1,18
 246 48 246 48 354 48 c 0,19,20
 389 48 389 48 428 62 c 0,21,22
 503 90 503 90 533 173 c 1,23,-1
 583 155 l 1,24,25
 567 112 567 112 540 79.5 c 128,-1,26
 513 47 513 47 487 31 c 128,-1,27
 461 15 461 15 430 6 c 0,28,29
 373 -11 373 -11 327 -6 c 1,30,-1
 312 -50 l 1,31,32
 352 -57 352 -57 373 -76.5 c 128,-1,33
 394 -96 394 -96 394 -133.5 c 128,-1,34
 394 -171 394 -171 364.5 -195.5 c 128,-1,35
 335 -220 335 -220 289 -220 c 128,-1,36
 243 -220 243 -220 218 -198.5 c 128,-1,37
 193 -177 193 -177 193 -154.5 c 128,-1,38
 193 -132 193 -132 202.5 -119.5 c 128,-1,39
 212 -107 212 -107 225.5 -107 c 128,-1,40
 239 -107 239 -107 248 -111 c 1,41,42
 244 -127 244 -127 244 -133 c 0,43,44
 244 -156 244 -156 258 -170 c 128,-1,45
 272 -184 272 -184 292 -184 c 0,46,47
 339 -184 339 -184 339 -130 c 0,48,49
 339 -90 339 -90 280 -82 c 1,50,-1
 260 -60 l 1,51,-1
 294 -3 l 1,52,53
 166 11 166 11 107 93.5 c 128,-1,54
 48 176 48 176 48 336 c 0,0,1
EndSplineSet
EndChar

StartChar: Egrave
Encoding: 200 200 138
Width: 633
GlyphClass: 2
Flags: W
LayerCount: 2
Fore
SplineSet
567 514 m 1,0,1
 552 509 552 509 539 509 c 128,-1,2
 526 509 526 509 521 510 c 1,3,4
 507 575 507 575 471 619 c 1,5,-1
 241 619 l 1,6,-1
 241 370 l 1,7,-1
 396 381 l 2,8,9
 439 384 439 384 456 452 c 1,10,-1
 490 452 l 1,11,-1
 490 242 l 1,12,-1
 456 242 l 1,13,14
 441 317 441 317 395 320 c 2,15,-1
 241 331 l 1,16,-1
 241 61 l 1,17,-1
 497 61 l 1,18,19
 533 109 533 109 548 182 c 1,20,21
 562 184 562 184 568 184 c 128,-1,22
 574 184 574 184 592 182 c 1,23,-1
 582 0 l 1,24,-1
 43 0 l 1,25,-1
 49 40 l 1,26,27
 120 48 120 48 146 68 c 1,28,-1
 146 608 l 1,29,30
 110 628 110 628 43 636 c 1,31,-1
 48 676 l 1,32,-1
 558 676 l 1,33,-1
 567 514 l 1,0,1
261 795 m 2,34,35
 234 817 234 817 234 834 c 128,-1,36
 234 851 234 851 245.5 862.5 c 128,-1,37
 257 874 257 874 276.5 874 c 128,-1,38
 296 874 296 874 307 856 c 1,39,-1
 397 731 l 1,40,-1
 373 705 l 1,41,-1
 261 795 l 2,34,35
EndSplineSet
EndChar

StartChar: Eacute
Encoding: 201 201 139
Width: 633
GlyphClass: 2
Flags: W
LayerCount: 2
Fore
SplineSet
365 856 m 1,0,1
 376 874 376 874 395.5 874 c 128,-1,2
 415 874 415 874 426.5 862.5 c 128,-1,3
 438 851 438 851 438 834 c 128,-1,4
 438 817 438 817 411 795 c 2,5,-1
 299 705 l 1,6,-1
 275 731 l 1,7,-1
 365 856 l 1,0,1
567 514 m 1,8,9
 552 509 552 509 539 509 c 128,-1,10
 526 509 526 509 521 510 c 1,11,12
 507 575 507 575 471 619 c 1,13,-1
 241 619 l 1,14,-1
 241 370 l 1,15,-1
 396 381 l 2,16,17
 439 384 439 384 456 452 c 1,18,-1
 490 452 l 1,19,-1
 490 242 l 1,20,-1
 456 242 l 1,21,22
 441 317 441 317 395 320 c 2,23,-1
 241 331 l 1,24,-1
 241 61 l 1,25,-1
 497 61 l 1,26,27
 533 109 533 109 548 182 c 1,28,29
 562 184 562 184 568 184 c 128,-1,30
 574 184 574 184 592 182 c 1,31,-1
 582 0 l 1,32,-1
 43 0 l 1,33,-1
 49 40 l 1,34,35
 120 48 120 48 146 68 c 1,36,-1
 146 608 l 1,37,38
 110 628 110 628 43 636 c 1,39,-1
 48 676 l 1,40,-1
 558 676 l 1,41,-1
 567 514 l 1,8,9
EndSplineSet
EndChar

StartChar: Ecircumflex
Encoding: 202 202 140
Width: 633
GlyphClass: 2
Flags: W
LayerCount: 2
Fore
SplineSet
304 856 m 2,0,1
 318 873 318 873 337.5 873 c 128,-1,2
 357 873 357 873 371 856 c 2,3,-1
 471 741 l 1,4,-1
 447 715 l 1,5,-1
 337 798 l 1,6,-1
 228 715 l 1,7,-1
 204 741 l 1,8,-1
 304 856 l 2,0,1
567 514 m 1,9,10
 552 509 552 509 539 509 c 128,-1,11
 526 509 526 509 521 510 c 1,12,13
 507 575 507 575 471 619 c 1,14,-1
 241 619 l 1,15,-1
 241 370 l 1,16,-1
 396 381 l 2,17,18
 439 384 439 384 456 452 c 1,19,-1
 490 452 l 1,20,-1
 490 242 l 1,21,-1
 456 242 l 1,22,23
 441 317 441 317 395 320 c 2,24,-1
 241 331 l 1,25,-1
 241 61 l 1,26,-1
 497 61 l 1,27,28
 533 109 533 109 548 182 c 1,29,30
 562 184 562 184 568 184 c 128,-1,31
 574 184 574 184 592 182 c 1,32,-1
 582 0 l 1,33,-1
 43 0 l 1,34,-1
 49 40 l 1,35,36
 120 48 120 48 146 68 c 1,37,-1
 146 608 l 1,38,39
 110 628 110 628 43 636 c 1,40,-1
 48 676 l 1,41,-1
 558 676 l 1,42,-1
 567 514 l 1,9,10
EndSplineSet
EndChar

StartChar: Edieresis
Encoding: 203 203 141
Width: 633
GlyphClass: 2
Flags: W
LayerCount: 2
Fore
SplineSet
247 736 m 128,-1,1
 196 736 196 736 196 792.5 c 128,-1,2
 196 849 196 849 247 849 c 128,-1,3
 298 849 298 849 298 792.5 c 128,-1,0
 298 736 298 736 247 736 c 128,-1,1
426 736 m 0,4,5
 376 736 376 736 376 792.5 c 128,-1,6
 376 849 376 849 426 849 c 0,7,8
 478 849 478 849 478 792.5 c 128,-1,9
 478 736 478 736 426 736 c 0,4,5
567 514 m 1,10,11
 552 509 552 509 539 509 c 128,-1,12
 526 509 526 509 521 510 c 1,13,14
 507 575 507 575 471 619 c 1,15,-1
 241 619 l 1,16,-1
 241 370 l 1,17,-1
 396 381 l 2,18,19
 439 384 439 384 456 452 c 1,20,-1
 490 452 l 1,21,-1
 490 242 l 1,22,-1
 456 242 l 1,23,24
 441 317 441 317 395 320 c 2,25,-1
 241 331 l 1,26,-1
 241 61 l 1,27,-1
 497 61 l 1,28,29
 533 109 533 109 548 182 c 1,30,31
 562 184 562 184 568 184 c 128,-1,32
 574 184 574 184 592 182 c 1,33,-1
 582 0 l 1,34,-1
 43 0 l 1,35,-1
 49 40 l 1,36,37
 120 48 120 48 146 68 c 1,38,-1
 146 608 l 1,39,40
 110 628 110 628 43 636 c 1,41,-1
 48 676 l 1,42,-1
 558 676 l 1,43,-1
 567 514 l 1,10,11
EndSplineSet
EndChar

StartChar: Igrave
Encoding: 204 204 142
Width: 401
GlyphClass: 2
Flags: W
LayerCount: 2
Fore
SplineSet
50 0 m 1,0,-1
 56 40 l 1,1,2
 118 47 118 47 153 68 c 1,3,-1
 153 608 l 1,4,5
 117 628 117 628 50 636 c 1,6,-1
 55 676 l 1,7,-1
 351 676 l 1,8,-1
 345 636 l 1,9,10
 283 629 283 629 248 608 c 1,11,-1
 248 68 l 1,12,13
 284 48 284 48 351 40 c 1,14,-1
 346 0 l 1,15,-1
 50 0 l 1,0,-1
119 795 m 2,16,17
 92 817 92 817 92 834 c 128,-1,18
 92 851 92 851 103.5 862.5 c 128,-1,19
 115 874 115 874 134.5 874 c 128,-1,20
 154 874 154 874 165 856 c 1,21,-1
 255 731 l 1,22,-1
 231 705 l 1,23,-1
 119 795 l 2,16,17
EndSplineSet
EndChar

StartChar: Iacute
Encoding: 205 205 143
Width: 401
GlyphClass: 2
Flags: W
LayerCount: 2
Fore
SplineSet
50 0 m 1,0,-1
 56 40 l 1,1,2
 118 47 118 47 153 68 c 1,3,-1
 153 608 l 1,4,5
 117 628 117 628 50 636 c 1,6,-1
 55 676 l 1,7,-1
 351 676 l 1,8,-1
 345 636 l 1,9,10
 283 629 283 629 248 608 c 1,11,-1
 248 68 l 1,12,13
 284 48 284 48 351 40 c 1,14,-1
 346 0 l 1,15,-1
 50 0 l 1,0,-1
223 856 m 1,16,17
 234 874 234 874 253.5 874 c 128,-1,18
 273 874 273 874 284.5 862.5 c 128,-1,19
 296 851 296 851 296 834 c 128,-1,20
 296 817 296 817 269 795 c 2,21,-1
 157 705 l 1,22,-1
 133 731 l 1,23,-1
 223 856 l 1,16,17
EndSplineSet
EndChar

StartChar: Icircumflex
Encoding: 206 206 144
Width: 401
GlyphClass: 2
Flags: W
LayerCount: 2
Fore
SplineSet
162 856 m 2,0,1
 176 873 176 873 195.5 873 c 128,-1,2
 215 873 215 873 229 856 c 2,3,-1
 329 741 l 1,4,-1
 305 715 l 1,5,-1
 195 798 l 1,6,-1
 86 715 l 1,7,-1
 62 741 l 1,8,-1
 162 856 l 2,0,1
50 0 m 1,9,-1
 56 40 l 1,10,11
 118 47 118 47 153 68 c 1,12,-1
 153 608 l 1,13,14
 117 628 117 628 50 636 c 1,15,-1
 55 676 l 1,16,-1
 351 676 l 1,17,-1
 345 636 l 1,18,19
 283 629 283 629 248 608 c 1,20,-1
 248 68 l 1,21,22
 284 48 284 48 351 40 c 1,23,-1
 346 0 l 1,24,-1
 50 0 l 1,9,-1
EndSplineSet
EndChar

StartChar: Idieresis
Encoding: 207 207 145
Width: 401
GlyphClass: 2
Flags: W
LayerCount: 2
Fore
SplineSet
105 736 m 128,-1,1
 54 736 54 736 54 792.5 c 128,-1,2
 54 849 54 849 105 849 c 128,-1,3
 156 849 156 849 156 792.5 c 128,-1,0
 156 736 156 736 105 736 c 128,-1,1
284 736 m 0,4,5
 234 736 234 736 234 792.5 c 128,-1,6
 234 849 234 849 284 849 c 0,7,8
 336 849 336 849 336 792.5 c 128,-1,9
 336 736 336 736 284 736 c 0,4,5
50 0 m 1,10,-1
 56 40 l 1,11,12
 118 47 118 47 153 68 c 1,13,-1
 153 608 l 1,14,15
 117 628 117 628 50 636 c 1,16,-1
 55 676 l 1,17,-1
 351 676 l 1,18,-1
 345 636 l 1,19,20
 283 629 283 629 248 608 c 1,21,-1
 248 68 l 1,22,23
 284 48 284 48 351 40 c 1,24,-1
 346 0 l 1,25,-1
 50 0 l 1,10,-1
EndSplineSet
EndChar

StartChar: Eth
Encoding: 208 208 146
Width: 713
GlyphClass: 2
Flags: W
LayerCount: 2
Fore
SplineSet
149 319 m 1,0,-1
 43 319 l 1,1,-1
 43 370 l 1,2,-1
 149 370 l 1,3,-1
 149 608 l 1,4,5
 113 628 113 628 46 636 c 1,6,-1
 51 676 l 1,7,-1
 295 676 l 2,8,9
 481 676 481 676 573.5 594.5 c 128,-1,10
 666 513 666 513 666 336.5 c 128,-1,11
 666 160 666 160 573 80 c 128,-1,12
 480 0 480 0 289 0 c 2,13,-1
 46 0 l 1,14,-1
 52 40 l 1,15,16
 114 47 114 47 149 67 c 1,17,-1
 149 319 l 1,0,-1
310 623 m 1,18,-1
 244 622 l 1,19,-1
 244 370 l 1,20,-1
 373 370 l 1,21,-1
 380 363 l 1,22,23
 375 341 375 341 362 319 c 1,24,-1
 244 319 l 1,25,-1
 244 53 l 1,26,-1
 307 53 l 2,27,28
 434 53 434 53 496.5 117 c 128,-1,29
 559 181 559 181 559 337 c 128,-1,30
 559 493 559 493 497.5 558 c 128,-1,31
 436 623 436 623 310 623 c 1,18,-1
EndSplineSet
EndChar

StartChar: Ntilde
Encoding: 209 209 147
Width: 773
GlyphClass: 2
Flags: W
LayerCount: 2
Fore
SplineSet
649 0 m 1,0,-1
 584 0 l 1,1,-1
 210 520 l 1,2,-1
 210 68 l 1,3,4
 246 48 246 48 313 40 c 1,5,-1
 308 0 l 1,6,-1
 38 0 l 1,7,-1
 44 40 l 1,8,9
 106 47 106 47 141 68 c 1,10,-1
 141 608 l 1,11,12
 105 628 105 628 38 636 c 1,13,-1
 43 676 l 1,14,-1
 221 676 l 1,15,-1
 580 177 l 1,16,-1
 580 608 l 1,17,18
 544 628 544 628 477 636 c 1,19,-1
 482 676 l 1,20,-1
 752 676 l 1,21,-1
 746 636 l 1,22,23
 684 629 684 629 649 608 c 1,24,-1
 649 0 l 1,0,-1
264 819 m 128,-1,26
 292 848 292 848 323.5 848 c 128,-1,27
 355 848 355 848 394.5 826.5 c 128,-1,28
 434 805 434 805 454 805 c 0,29,30
 488 805 488 805 525 848 c 1,31,32
 542 841 542 841 560 827 c 1,33,34
 547 795 547 795 519 766.5 c 128,-1,35
 491 738 491 738 459 738 c 128,-1,36
 427 738 427 738 388 759.5 c 128,-1,37
 349 781 349 781 328 781 c 0,38,39
 295 781 295 781 258 738 c 1,40,41
 241 742 241 742 223 759 c 1,42,25
 236 790 236 790 264 819 c 128,-1,26
EndSplineSet
EndChar

StartChar: Ograve
Encoding: 210 210 148
Width: 688
GlyphClass: 2
Flags: W
LayerCount: 2
Fore
SplineSet
344 48 m 128,-1,1
 449 48 449 48 492 116 c 128,-1,2
 535 184 535 184 535 338 c 128,-1,3
 535 492 535 492 492 559.5 c 128,-1,4
 449 627 449 627 344 627 c 128,-1,5
 239 627 239 627 196.5 559.5 c 128,-1,6
 154 492 154 492 154 338 c 128,-1,7
 154 184 154 184 196.5 116 c 128,-1,0
 239 48 239 48 344 48 c 128,-1,1
344 -6 m 128,-1,9
 48 -6 48 -6 48 337.5 c 128,-1,10
 48 681 48 681 344 681 c 128,-1,11
 640 681 640 681 640 337.5 c 128,-1,8
 640 -6 640 -6 344 -6 c 128,-1,9
268 795 m 2,12,13
 241 817 241 817 241 834 c 128,-1,14
 241 851 241 851 252.5 862.5 c 128,-1,15
 264 874 264 874 283.5 874 c 128,-1,16
 303 874 303 874 314 856 c 1,17,-1
 404 731 l 1,18,-1
 380 705 l 1,19,-1
 268 795 l 2,12,13
EndSplineSet
EndChar

StartChar: Oacute
Encoding: 211 211 149
Width: 688
GlyphClass: 2
Flags: W
LayerCount: 2
Fore
SplineSet
344 48 m 128,-1,1
 449 48 449 48 492 116 c 128,-1,2
 535 184 535 184 535 338 c 128,-1,3
 535 492 535 492 492 559.5 c 128,-1,4
 449 627 449 627 344 627 c 128,-1,5
 239 627 239 627 196.5 559.5 c 128,-1,6
 154 492 154 492 154 338 c 128,-1,7
 154 184 154 184 196.5 116 c 128,-1,0
 239 48 239 48 344 48 c 128,-1,1
344 -6 m 128,-1,9
 48 -6 48 -6 48 337.5 c 128,-1,10
 48 681 48 681 344 681 c 128,-1,11
 640 681 640 681 640 337.5 c 128,-1,8
 640 -6 640 -6 344 -6 c 128,-1,9
372 856 m 1,12,13
 383 874 383 874 402.5 874 c 128,-1,14
 422 874 422 874 433.5 862.5 c 128,-1,15
 445 851 445 851 445 834 c 128,-1,16
 445 817 445 817 418 795 c 2,17,-1
 306 705 l 1,18,-1
 282 731 l 1,19,-1
 372 856 l 1,12,13
EndSplineSet
EndChar

StartChar: Ocircumflex
Encoding: 212 212 150
Width: 688
GlyphClass: 2
Flags: W
LayerCount: 2
Fore
SplineSet
344 48 m 128,-1,1
 449 48 449 48 492 116 c 128,-1,2
 535 184 535 184 535 338 c 128,-1,3
 535 492 535 492 492 559.5 c 128,-1,4
 449 627 449 627 344 627 c 128,-1,5
 239 627 239 627 196.5 559.5 c 128,-1,6
 154 492 154 492 154 338 c 128,-1,7
 154 184 154 184 196.5 116 c 128,-1,0
 239 48 239 48 344 48 c 128,-1,1
344 -6 m 128,-1,9
 48 -6 48 -6 48 337.5 c 128,-1,10
 48 681 48 681 344 681 c 128,-1,11
 640 681 640 681 640 337.5 c 128,-1,8
 640 -6 640 -6 344 -6 c 128,-1,9
311 856 m 2,12,13
 325 873 325 873 344.5 873 c 128,-1,14
 364 873 364 873 378 856 c 2,15,-1
 478 741 l 1,16,-1
 454 715 l 1,17,-1
 344 798 l 1,18,-1
 235 715 l 1,19,-1
 211 741 l 1,20,-1
 311 856 l 2,12,13
EndSplineSet
EndChar

StartChar: Otilde
Encoding: 213 213 151
Width: 688
GlyphClass: 2
Flags: W
LayerCount: 2
Fore
SplineSet
344 48 m 128,-1,1
 449 48 449 48 492 116 c 128,-1,2
 535 184 535 184 535 338 c 128,-1,3
 535 492 535 492 492 559.5 c 128,-1,4
 449 627 449 627 344 627 c 128,-1,5
 239 627 239 627 196.5 559.5 c 128,-1,6
 154 492 154 492 154 338 c 128,-1,7
 154 184 154 184 196.5 116 c 128,-1,0
 239 48 239 48 344 48 c 128,-1,1
344 -6 m 128,-1,9
 48 -6 48 -6 48 337.5 c 128,-1,10
 48 681 48 681 344 681 c 128,-1,11
 640 681 640 681 640 337.5 c 128,-1,8
 640 -6 640 -6 344 -6 c 128,-1,9
218 819 m 128,-1,13
 246 848 246 848 277.5 848 c 128,-1,14
 309 848 309 848 348.5 826.5 c 128,-1,15
 388 805 388 805 408 805 c 0,16,17
 442 805 442 805 479 848 c 1,18,19
 497 841 497 841 514 827 c 1,20,21
 501 795 501 795 473 766.5 c 128,-1,22
 445 738 445 738 413 738 c 128,-1,23
 381 738 381 738 342 759.5 c 128,-1,24
 303 781 303 781 282 781 c 0,25,26
 249 781 249 781 212 738 c 1,27,28
 195 742 195 742 177 759 c 1,29,12
 190 790 190 790 218 819 c 128,-1,13
EndSplineSet
EndChar

StartChar: Odieresis
Encoding: 214 214 152
Width: 688
GlyphClass: 2
Flags: W
LayerCount: 2
Fore
SplineSet
344 48 m 128,-1,1
 449 48 449 48 492 116 c 128,-1,2
 535 184 535 184 535 338 c 128,-1,3
 535 492 535 492 492 559.5 c 128,-1,4
 449 627 449 627 344 627 c 128,-1,5
 239 627 239 627 196.5 559.5 c 128,-1,6
 154 492 154 492 154 338 c 128,-1,7
 154 184 154 184 196.5 116 c 128,-1,0
 239 48 239 48 344 48 c 128,-1,1
344 -6 m 128,-1,9
 48 -6 48 -6 48 337.5 c 128,-1,10
 48 681 48 681 344 681 c 128,-1,11
 640 681 640 681 640 337.5 c 128,-1,8
 640 -6 640 -6 344 -6 c 128,-1,9
254 736 m 128,-1,13
 203 736 203 736 203 792.5 c 128,-1,14
 203 849 203 849 254 849 c 128,-1,15
 305 849 305 849 305 792.5 c 128,-1,12
 305 736 305 736 254 736 c 128,-1,13
433 736 m 0,16,17
 383 736 383 736 383 792.5 c 128,-1,18
 383 849 383 849 433 849 c 0,19,20
 485 849 485 849 485 792.5 c 128,-1,21
 485 736 485 736 433 736 c 0,16,17
EndSplineSet
EndChar

StartChar: multiply
Encoding: 215 215 153
Width: 545
GlyphClass: 2
Flags: W
LayerCount: 2
Fore
SplineSet
119 90 m 1,0,-1
 75 136 l 1,1,-1
 227 286 l 1,2,-1
 78 434 l 1,3,-1
 122 480 l 1,4,-1
 272 331 l 1,5,-1
 423 480 l 1,6,-1
 467 434 l 1,7,-1
 318 286 l 1,8,-1
 470 136 l 1,9,-1
 426 90 l 1,10,-1
 272 241 l 1,11,-1
 119 90 l 1,0,-1
EndSplineSet
EndChar

StartChar: Oslash
Encoding: 216 216 154
Width: 688
GlyphClass: 2
Flags: W
LayerCount: 2
Fore
SplineSet
48 338 m 0,0,1
 48 681 48 681 344 681 c 0,2,3
 460 681 460 681 530 630 c 1,4,-1
 578 696 l 1,5,-1
 586 697 l 1,6,7
 597 690 597 690 614 671 c 1,8,-1
 562 600 l 1,9,10
 640 515 640 515 640 338 c 0,11,12
 640 -6 640 -6 344 -6 c 0,13,14
 227 -6 227 -6 158 45 c 1,15,-1
 108 -23 l 1,16,-1
 100 -24 l 1,17,18
 86 -14 86 -14 72 2 c 1,19,-1
 125 75 l 1,20,21
 48 159 48 159 48 338 c 0,0,1
203 107 m 1,22,23
 247 48 247 48 348 48 c 128,-1,24
 449 48 449 48 492 116 c 128,-1,25
 535 184 535 184 535 322.5 c 128,-1,26
 535 461 535 461 509 527 c 1,27,-1
 203 107 l 1,22,23
485 569 m 1,28,29
 440 627 440 627 339.5 627 c 128,-1,30
 239 627 239 627 196.5 559.5 c 128,-1,31
 154 492 154 492 154 352.5 c 128,-1,32
 154 213 154 213 179 149 c 1,33,-1
 485 569 l 1,28,29
EndSplineSet
EndChar

StartChar: Ugrave
Encoding: 217 217 155
Width: 772
GlyphClass: 2
Flags: W
LayerCount: 2
Fore
SplineSet
137 223 m 2,0,-1
 137 608 l 1,1,2
 102 629 102 629 34 636 c 1,3,-1
 39 676 l 1,4,-1
 337 676 l 1,5,-1
 331 636 l 1,6,7
 269 628 269 628 234 608 c 1,8,-1
 234 223 l 2,9,10
 234 130 234 130 274.5 89 c 128,-1,11
 315 48 315 48 401.5 48 c 128,-1,12
 488 48 488 48 535 95 c 128,-1,13
 582 142 582 142 582 229 c 2,14,-1
 582 608 l 1,15,16
 547 629 547 629 479 636 c 1,17,-1
 484 676 l 1,18,-1
 754 676 l 1,19,-1
 748 636 l 1,20,21
 686 628 686 628 651 608 c 1,22,-1
 651 229 l 2,23,24
 651 115 651 115 586.5 53.5 c 128,-1,25
 522 -8 522 -8 392.5 -8 c 128,-1,26
 263 -8 263 -8 200 47 c 128,-1,27
 137 102 137 102 137 223 c 2,0,-1
333 795 m 2,28,29
 306 817 306 817 306 834 c 128,-1,30
 306 851 306 851 317.5 862.5 c 128,-1,31
 329 874 329 874 348.5 874 c 128,-1,32
 368 874 368 874 379 856 c 1,33,-1
 469 731 l 1,34,-1
 445 705 l 1,35,-1
 333 795 l 2,28,29
EndSplineSet
EndChar

StartChar: Uacute
Encoding: 218 218 156
Width: 772
GlyphClass: 2
Flags: W
LayerCount: 2
Fore
SplineSet
137 223 m 2,0,-1
 137 608 l 1,1,2
 102 629 102 629 34 636 c 1,3,-1
 39 676 l 1,4,-1
 337 676 l 1,5,-1
 331 636 l 1,6,7
 269 628 269 628 234 608 c 1,8,-1
 234 223 l 2,9,10
 234 130 234 130 274.5 89 c 128,-1,11
 315 48 315 48 401.5 48 c 128,-1,12
 488 48 488 48 535 95 c 128,-1,13
 582 142 582 142 582 229 c 2,14,-1
 582 608 l 1,15,16
 547 629 547 629 479 636 c 1,17,-1
 484 676 l 1,18,-1
 754 676 l 1,19,-1
 748 636 l 1,20,21
 686 628 686 628 651 608 c 1,22,-1
 651 229 l 2,23,24
 651 115 651 115 586.5 53.5 c 128,-1,25
 522 -8 522 -8 392.5 -8 c 128,-1,26
 263 -8 263 -8 200 47 c 128,-1,27
 137 102 137 102 137 223 c 2,0,-1
437 856 m 1,28,29
 448 874 448 874 467.5 874 c 128,-1,30
 487 874 487 874 498.5 862.5 c 128,-1,31
 510 851 510 851 510 834 c 128,-1,32
 510 817 510 817 483 795 c 2,33,-1
 371 705 l 1,34,-1
 347 731 l 1,35,-1
 437 856 l 1,28,29
EndSplineSet
EndChar

StartChar: Ucircumflex
Encoding: 219 219 157
Width: 772
GlyphClass: 2
Flags: W
LayerCount: 2
Fore
SplineSet
137 223 m 2,0,-1
 137 608 l 1,1,2
 102 629 102 629 34 636 c 1,3,-1
 39 676 l 1,4,-1
 337 676 l 1,5,-1
 331 636 l 1,6,7
 269 628 269 628 234 608 c 1,8,-1
 234 223 l 2,9,10
 234 130 234 130 274.5 89 c 128,-1,11
 315 48 315 48 401.5 48 c 128,-1,12
 488 48 488 48 535 95 c 128,-1,13
 582 142 582 142 582 229 c 2,14,-1
 582 608 l 1,15,16
 547 629 547 629 479 636 c 1,17,-1
 484 676 l 1,18,-1
 754 676 l 1,19,-1
 748 636 l 1,20,21
 686 628 686 628 651 608 c 1,22,-1
 651 229 l 2,23,24
 651 115 651 115 586.5 53.5 c 128,-1,25
 522 -8 522 -8 392.5 -8 c 128,-1,26
 263 -8 263 -8 200 47 c 128,-1,27
 137 102 137 102 137 223 c 2,0,-1
376 856 m 2,28,29
 390 873 390 873 409.5 873 c 128,-1,30
 429 873 429 873 443 856 c 2,31,-1
 543 741 l 1,32,-1
 519 715 l 1,33,-1
 409 798 l 1,34,-1
 300 715 l 1,35,-1
 276 741 l 1,36,-1
 376 856 l 2,28,29
EndSplineSet
EndChar

StartChar: Udieresis
Encoding: 220 220 158
Width: 772
GlyphClass: 2
Flags: W
LayerCount: 2
Fore
SplineSet
137 223 m 2,0,-1
 137 608 l 1,1,2
 102 629 102 629 34 636 c 1,3,-1
 39 676 l 1,4,-1
 337 676 l 1,5,-1
 331 636 l 1,6,7
 269 628 269 628 234 608 c 1,8,-1
 234 223 l 2,9,10
 234 130 234 130 274.5 89 c 128,-1,11
 315 48 315 48 401.5 48 c 128,-1,12
 488 48 488 48 535 95 c 128,-1,13
 582 142 582 142 582 229 c 2,14,-1
 582 608 l 1,15,16
 547 629 547 629 479 636 c 1,17,-1
 484 676 l 1,18,-1
 754 676 l 1,19,-1
 748 636 l 1,20,21
 686 628 686 628 651 608 c 1,22,-1
 651 229 l 2,23,24
 651 115 651 115 586.5 53.5 c 128,-1,25
 522 -8 522 -8 392.5 -8 c 128,-1,26
 263 -8 263 -8 200 47 c 128,-1,27
 137 102 137 102 137 223 c 2,0,-1
319 736 m 128,-1,29
 268 736 268 736 268 792.5 c 128,-1,30
 268 849 268 849 319 849 c 128,-1,31
 370 849 370 849 370 792.5 c 128,-1,28
 370 736 370 736 319 736 c 128,-1,29
498 736 m 0,32,33
 448 736 448 736 448 792.5 c 128,-1,34
 448 849 448 849 498 849 c 0,35,36
 550 849 550 849 550 792.5 c 128,-1,37
 550 736 550 736 498 736 c 0,32,33
EndSplineSet
EndChar

StartChar: Yacute
Encoding: 221 221 159
Width: 646
GlyphClass: 2
Flags: W
LayerCount: 2
Fore
SplineSet
171 0 m 1,0,-1
 177 40 l 1,1,2
 242 47 242 47 279 68 c 1,3,-1
 279 264 l 1,4,-1
 89 600 l 1,5,6
 67 629 67 629 -2 636 c 1,7,-1
 3 676 l 1,8,-1
 294 676 l 1,9,-1
 288 636 l 1,10,11
 224 628 224 628 194 612 c 1,12,-1
 340 347 l 1,13,-1
 488 611 l 1,14,15
 454 628 454 628 386 636 c 1,16,-1
 391 676 l 1,17,-1
 648 676 l 1,18,-1
 642 636 l 1,19,20
 578 634 578 634 556 604 c 1,21,-1
 374 271 l 1,22,-1
 374 68 l 1,23,24
 411 48 411 48 482 40 c 1,25,-1
 477 0 l 1,26,-1
 171 0 l 1,0,-1
371 856 m 1,27,28
 382 874 382 874 401.5 874 c 128,-1,29
 421 874 421 874 432.5 862.5 c 128,-1,30
 444 851 444 851 444 834 c 128,-1,31
 444 817 444 817 417 795 c 2,32,-1
 305 705 l 1,33,-1
 281 731 l 1,34,-1
 371 856 l 1,27,28
EndSplineSet
EndChar

StartChar: Thorn
Encoding: 222 222 160
Width: 610
GlyphClass: 2
Flags: W
LayerCount: 2
Fore
SplineSet
242 532 m 1,0,-1
 326 532 l 2,1,2
 574 532 574 532 574 340 c 128,-1,3
 574 148 574 148 302 148 c 2,4,-1
 242 148 l 1,5,-1
 242 68 l 1,6,7
 278 48 278 48 345 40 c 1,8,-1
 340 0 l 1,9,-1
 44 0 l 1,10,-1
 50 40 l 1,11,12
 112 47 112 47 147 68 c 1,13,-1
 147 608 l 1,14,15
 111 628 111 628 44 636 c 1,16,-1
 49 676 l 1,17,-1
 345 676 l 1,18,-1
 339 636 l 1,19,20
 277 629 277 629 242 608 c 1,21,-1
 242 532 l 1,0,-1
242 197 m 1,22,-1
 312 197 l 2,23,24
 390 197 390 197 434 232 c 128,-1,25
 478 267 478 267 478 340 c 0,26,27
 478 483 478 483 321 483 c 0,28,29
 297 483 297 483 242 478 c 1,30,-1
 242 197 l 1,22,-1
EndSplineSet
EndChar

StartChar: germandbls
Encoding: 223 223 161
Width: 608
GlyphClass: 2
Flags: W
LayerCount: 2
Fore
SplineSet
110 555 m 2,0,1
 110 644 110 644 161.5 691.5 c 128,-1,2
 213 739 213 739 308.5 739 c 128,-1,3
 404 739 404 739 456.5 696.5 c 128,-1,4
 509 654 509 654 509 577 c 0,5,6
 509 526 509 526 467.5 477.5 c 128,-1,7
 426 429 426 429 360 400 c 1,8,9
 459 378 459 378 517 320.5 c 128,-1,10
 575 263 575 263 575 183 c 128,-1,11
 575 103 575 103 523 48.5 c 128,-1,12
 471 -6 471 -6 392 -6 c 0,13,14
 247 -6 247 -6 247 82 c 0,15,16
 247 110 247 110 264 127 c 128,-1,17
 281 144 281 144 304.5 144 c 128,-1,18
 328 144 328 144 347 133 c 1,19,20
 338 112 338 112 338 91 c 128,-1,21
 338 70 338 70 353.5 55.5 c 128,-1,22
 369 41 369 41 403.5 41 c 128,-1,23
 438 41 438 41 459 78 c 128,-1,24
 480 115 480 115 480 189 c 128,-1,25
 480 263 480 263 432.5 306 c 128,-1,26
 385 349 385 349 280 364 c 1,27,-1
 280 421 l 1,28,29
 331 430 331 430 372.5 478 c 128,-1,30
 414 526 414 526 414 579.5 c 128,-1,31
 414 633 414 633 387 662.5 c 128,-1,32
 360 692 360 692 305 692 c 128,-1,33
 250 692 250 692 226 650.5 c 128,-1,34
 202 609 202 609 202 506 c 2,35,-1
 202 0 l 1,36,-1
 35 0 l 1,37,-1
 39 39 l 1,38,39
 83 45 83 45 110 66 c 1,40,-1
 110 555 l 2,0,1
EndSplineSet
EndChar

StartChar: agrave
Encoding: 224 224 162
Width: 515
GlyphClass: 2
Flags: W
LayerCount: 2
Fore
SplineSet
189 -8 m 0,0,1
 125 -8 125 -8 89.5 24.5 c 128,-1,2
 54 57 54 57 54 121.5 c 128,-1,3
 54 186 54 186 103.5 226 c 128,-1,4
 153 266 153 266 248 273 c 2,5,-1
 333 279 l 1,6,-1
 333 367 l 2,7,8
 333 421 333 421 311.5 445.5 c 128,-1,9
 290 470 290 470 243 470 c 0,10,11
 158 470 158 470 158 421 c 0,12,13
 158 394 158 394 191 381 c 1,14,15
 191 330 191 330 129 330 c 0,16,17
 101 330 101 330 84 347 c 128,-1,18
 67 364 67 364 67 392 c 0,19,20
 67 448 67 448 114.5 480.5 c 128,-1,21
 162 513 162 513 245.5 513 c 128,-1,22
 329 513 329 513 377 474.5 c 128,-1,23
 425 436 425 436 425 367 c 2,24,-1
 425 66 l 1,25,26
 450 47 450 47 500 37 c 1,27,-1
 496 0 l 1,28,-1
 347 0 l 1,29,-1
 336 48 l 1,30,31
 277 -8 277 -8 189 -8 c 0,0,1
149 125 m 0,32,33
 149 37 149 37 217 37 c 0,34,35
 271 37 271 37 333 99 c 1,36,-1
 333 235 l 1,37,-1
 252 228 l 2,38,39
 204 224 204 224 176.5 196 c 128,-1,40
 149 168 149 168 149 125 c 0,32,33
176 655 m 2,41,42
 149 677 149 677 149 694 c 128,-1,43
 149 711 149 711 160.5 722.5 c 128,-1,44
 172 734 172 734 191.5 734 c 128,-1,45
 211 734 211 734 222 716 c 1,46,-1
 312 591 l 1,47,-1
 288 565 l 1,48,-1
 176 655 l 2,41,42
EndSplineSet
EndChar

StartChar: aacute
Encoding: 225 225 163
Width: 515
GlyphClass: 2
Flags: W
LayerCount: 2
Fore
SplineSet
189 -8 m 0,0,1
 125 -8 125 -8 89.5 24.5 c 128,-1,2
 54 57 54 57 54 121.5 c 128,-1,3
 54 186 54 186 103.5 226 c 128,-1,4
 153 266 153 266 248 273 c 2,5,-1
 333 279 l 1,6,-1
 333 367 l 2,7,8
 333 421 333 421 311.5 445.5 c 128,-1,9
 290 470 290 470 243 470 c 0,10,11
 158 470 158 470 158 421 c 0,12,13
 158 394 158 394 191 381 c 1,14,15
 191 330 191 330 129 330 c 0,16,17
 101 330 101 330 84 347 c 128,-1,18
 67 364 67 364 67 392 c 0,19,20
 67 448 67 448 114.5 480.5 c 128,-1,21
 162 513 162 513 245.5 513 c 128,-1,22
 329 513 329 513 377 474.5 c 128,-1,23
 425 436 425 436 425 367 c 2,24,-1
 425 66 l 1,25,26
 450 47 450 47 500 37 c 1,27,-1
 496 0 l 1,28,-1
 347 0 l 1,29,-1
 336 48 l 1,30,31
 277 -8 277 -8 189 -8 c 0,0,1
149 125 m 0,32,33
 149 37 149 37 217 37 c 0,34,35
 271 37 271 37 333 99 c 1,36,-1
 333 235 l 1,37,-1
 252 228 l 2,38,39
 204 224 204 224 176.5 196 c 128,-1,40
 149 168 149 168 149 125 c 0,32,33
280 716 m 1,41,42
 291 734 291 734 310.5 734 c 128,-1,43
 330 734 330 734 341.5 722.5 c 128,-1,44
 353 711 353 711 353 694 c 128,-1,45
 353 677 353 677 326 655 c 2,46,-1
 214 565 l 1,47,-1
 190 591 l 1,48,-1
 280 716 l 1,41,42
EndSplineSet
EndChar

StartChar: acircumflex
Encoding: 226 226 164
Width: 515
GlyphClass: 2
Flags: W
LayerCount: 2
Fore
SplineSet
189 -8 m 0,0,1
 125 -8 125 -8 89.5 24.5 c 128,-1,2
 54 57 54 57 54 121.5 c 128,-1,3
 54 186 54 186 103.5 226 c 128,-1,4
 153 266 153 266 248 273 c 2,5,-1
 333 279 l 1,6,-1
 333 367 l 2,7,8
 333 421 333 421 311.5 445.5 c 128,-1,9
 290 470 290 470 243 470 c 0,10,11
 158 470 158 470 158 421 c 0,12,13
 158 394 158 394 191 381 c 1,14,15
 191 330 191 330 129 330 c 0,16,17
 101 330 101 330 84 347 c 128,-1,18
 67 364 67 364 67 392 c 0,19,20
 67 448 67 448 114.5 480.5 c 128,-1,21
 162 513 162 513 245.5 513 c 128,-1,22
 329 513 329 513 377 474.5 c 128,-1,23
 425 436 425 436 425 367 c 2,24,-1
 425 66 l 1,25,26
 450 47 450 47 500 37 c 1,27,-1
 496 0 l 1,28,-1
 347 0 l 1,29,-1
 336 48 l 1,30,31
 277 -8 277 -8 189 -8 c 0,0,1
149 125 m 0,32,33
 149 37 149 37 217 37 c 0,34,35
 271 37 271 37 333 99 c 1,36,-1
 333 235 l 1,37,-1
 252 228 l 2,38,39
 204 224 204 224 176.5 196 c 128,-1,40
 149 168 149 168 149 125 c 0,32,33
219 716 m 2,41,42
 233 733 233 733 252.5 733 c 128,-1,43
 272 733 272 733 286 716 c 2,44,-1
 386 601 l 1,45,-1
 362 575 l 1,46,-1
 252 658 l 1,47,-1
 143 575 l 1,48,-1
 119 601 l 1,49,-1
 219 716 l 2,41,42
EndSplineSet
EndChar

StartChar: atilde
Encoding: 227 227 165
Width: 515
GlyphClass: 2
Flags: W
LayerCount: 2
Fore
SplineSet
189 -8 m 0,0,1
 125 -8 125 -8 89.5 24.5 c 128,-1,2
 54 57 54 57 54 121.5 c 128,-1,3
 54 186 54 186 103.5 226 c 128,-1,4
 153 266 153 266 248 273 c 2,5,-1
 333 279 l 1,6,-1
 333 367 l 2,7,8
 333 421 333 421 311.5 445.5 c 128,-1,9
 290 470 290 470 243 470 c 0,10,11
 158 470 158 470 158 421 c 0,12,13
 158 394 158 394 191 381 c 1,14,15
 191 330 191 330 129 330 c 0,16,17
 101 330 101 330 84 347 c 128,-1,18
 67 364 67 364 67 392 c 0,19,20
 67 448 67 448 114.5 480.5 c 128,-1,21
 162 513 162 513 245.5 513 c 128,-1,22
 329 513 329 513 377 474.5 c 128,-1,23
 425 436 425 436 425 367 c 2,24,-1
 425 66 l 1,25,26
 450 47 450 47 500 37 c 1,27,-1
 496 0 l 1,28,-1
 347 0 l 1,29,-1
 336 48 l 1,30,31
 277 -8 277 -8 189 -8 c 0,0,1
149 125 m 0,32,33
 149 37 149 37 217 37 c 0,34,35
 271 37 271 37 333 99 c 1,36,-1
 333 235 l 1,37,-1
 252 228 l 2,38,39
 204 224 204 224 176.5 196 c 128,-1,40
 149 168 149 168 149 125 c 0,32,33
126 679 m 128,-1,42
 154 708 154 708 185.5 708 c 128,-1,43
 217 708 217 708 256.5 686.5 c 128,-1,44
 296 665 296 665 316 665 c 0,45,46
 350 665 350 665 387 708 c 1,47,48
 405 701 405 701 422 687 c 1,49,50
 409 655 409 655 381 626.5 c 128,-1,51
 353 598 353 598 321 598 c 128,-1,52
 289 598 289 598 250 619.5 c 128,-1,53
 211 641 211 641 190 641 c 0,54,55
 157 641 157 641 120 598 c 1,56,57
 103 602 103 602 85 619 c 1,58,41
 98 650 98 650 126 679 c 128,-1,42
EndSplineSet
EndChar

StartChar: adieresis
Encoding: 228 228 166
Width: 515
GlyphClass: 2
Flags: W
LayerCount: 2
Fore
SplineSet
189 -8 m 0,0,1
 125 -8 125 -8 89.5 24.5 c 128,-1,2
 54 57 54 57 54 121.5 c 128,-1,3
 54 186 54 186 103.5 226 c 128,-1,4
 153 266 153 266 248 273 c 2,5,-1
 333 279 l 1,6,-1
 333 367 l 2,7,8
 333 421 333 421 311.5 445.5 c 128,-1,9
 290 470 290 470 243 470 c 0,10,11
 158 470 158 470 158 421 c 0,12,13
 158 394 158 394 191 381 c 1,14,15
 191 330 191 330 129 330 c 0,16,17
 101 330 101 330 84 347 c 128,-1,18
 67 364 67 364 67 392 c 0,19,20
 67 448 67 448 114.5 480.5 c 128,-1,21
 162 513 162 513 245.5 513 c 128,-1,22
 329 513 329 513 377 474.5 c 128,-1,23
 425 436 425 436 425 367 c 2,24,-1
 425 66 l 1,25,26
 450 47 450 47 500 37 c 1,27,-1
 496 0 l 1,28,-1
 347 0 l 1,29,-1
 336 48 l 1,30,31
 277 -8 277 -8 189 -8 c 0,0,1
149 125 m 0,32,33
 149 37 149 37 217 37 c 0,34,35
 271 37 271 37 333 99 c 1,36,-1
 333 235 l 1,37,-1
 252 228 l 2,38,39
 204 224 204 224 176.5 196 c 128,-1,40
 149 168 149 168 149 125 c 0,32,33
162 596 m 128,-1,42
 111 596 111 596 111 652.5 c 128,-1,43
 111 709 111 709 162 709 c 128,-1,44
 213 709 213 709 213 652.5 c 128,-1,41
 213 596 213 596 162 596 c 128,-1,42
341 596 m 0,45,46
 291 596 291 596 291 652.5 c 128,-1,47
 291 709 291 709 341 709 c 0,48,49
 393 709 393 709 393 652.5 c 128,-1,50
 393 596 393 596 341 596 c 0,45,46
EndSplineSet
EndChar

StartChar: aring
Encoding: 229 229 167
Width: 515
GlyphClass: 2
Flags: W
LayerCount: 2
Fore
SplineSet
189 -8 m 0,0,1
 125 -8 125 -8 89.5 24.5 c 128,-1,2
 54 57 54 57 54 121.5 c 128,-1,3
 54 186 54 186 103.5 226 c 128,-1,4
 153 266 153 266 248 273 c 2,5,-1
 333 279 l 1,6,-1
 333 367 l 2,7,8
 333 421 333 421 311.5 445.5 c 128,-1,9
 290 470 290 470 243 470 c 0,10,11
 158 470 158 470 158 421 c 0,12,13
 158 394 158 394 191 381 c 1,14,15
 191 330 191 330 129 330 c 0,16,17
 101 330 101 330 84 347 c 128,-1,18
 67 364 67 364 67 392 c 0,19,20
 67 448 67 448 114.5 480.5 c 128,-1,21
 162 513 162 513 245.5 513 c 128,-1,22
 329 513 329 513 377 474.5 c 128,-1,23
 425 436 425 436 425 367 c 2,24,-1
 425 66 l 1,25,26
 450 47 450 47 500 37 c 1,27,-1
 496 0 l 1,28,-1
 347 0 l 1,29,-1
 336 48 l 1,30,31
 277 -8 277 -8 189 -8 c 0,0,1
149 125 m 0,32,33
 149 37 149 37 217 37 c 0,34,35
 271 37 271 37 333 99 c 1,36,-1
 333 235 l 1,37,-1
 252 228 l 2,38,39
 204 224 204 224 176.5 196 c 128,-1,40
 149 168 149 168 149 125 c 0,32,33
160 650 m 128,-1,42
 160 689 160 689 185 714 c 128,-1,43
 210 739 210 739 251.5 739 c 128,-1,44
 293 739 293 739 319 714 c 128,-1,45
 345 689 345 689 345 650 c 128,-1,46
 345 611 345 611 319 586 c 128,-1,47
 293 561 293 561 251.5 561 c 128,-1,48
 210 561 210 561 185 586 c 128,-1,41
 160 611 160 611 160 650 c 128,-1,42
251 603 m 128,-1,50
 271 603 271 603 285.5 617 c 128,-1,51
 300 631 300 631 300 650.5 c 128,-1,52
 300 670 300 670 285.5 684 c 128,-1,53
 271 698 271 698 251 698 c 128,-1,54
 231 698 231 698 218 684 c 128,-1,55
 205 670 205 670 205 650 c 128,-1,56
 205 630 205 630 218 616.5 c 128,-1,49
 231 603 231 603 251 603 c 128,-1,50
EndSplineSet
EndChar

StartChar: ae
Encoding: 230 230 168
Width: 776
GlyphClass: 2
Flags: W
LayerCount: 2
Fore
SplineSet
333 367 m 2,0,1
 333 421 333 421 311.5 445.5 c 128,-1,2
 290 470 290 470 243 470 c 0,3,4
 158 470 158 470 158 421 c 0,5,6
 158 394 158 394 191 381 c 1,7,8
 191 330 191 330 129 330 c 0,9,10
 101 330 101 330 84 347 c 128,-1,11
 67 364 67 364 67 392 c 0,12,13
 67 448 67 448 114.5 480.5 c 128,-1,14
 162 513 162 513 243 513 c 0,15,16
 353 513 353 513 398 452 c 1,17,18
 454 513 454 513 555 513 c 128,-1,19
 656 513 656 513 698 457 c 128,-1,20
 740 401 740 401 743 290 c 1,21,-1
 721 261 l 1,22,-1
 431 261 l 1,23,-1
 431 245 l 2,24,25
 431 121 431 121 464 78 c 0,26,27
 495 38 495 38 565.5 38 c 128,-1,28
 636 38 636 38 686 97 c 1,29,-1
 720 63 l 1,30,31
 659 -8 659 -8 556 -8 c 0,32,33
 421 -8 421 -8 371 82 c 1,34,35
 330 34 330 34 287.5 13 c 128,-1,36
 245 -8 245 -8 185 -8 c 128,-1,37
 125 -8 125 -8 89.5 24.5 c 128,-1,38
 54 57 54 57 54 121.5 c 128,-1,39
 54 186 54 186 103.5 226 c 128,-1,40
 153 266 153 266 248 273 c 2,41,-1
 333 279 l 1,42,-1
 333 367 l 2,0,1
149 125 m 0,43,44
 149 37 149 37 217 37 c 0,45,46
 277 37 277 37 333 99 c 1,47,-1
 333 235 l 1,48,-1
 252 228 l 2,49,50
 204 224 204 224 176.5 196 c 128,-1,51
 149 168 149 168 149 125 c 0,43,44
548 469 m 0,52,53
 434 469 434 469 431 301 c 1,54,-1
 646 309 l 1,55,56
 646 393 646 393 625 431 c 128,-1,57
 604 469 604 469 548 469 c 0,52,53
EndSplineSet
EndChar

StartChar: ccedilla
Encoding: 231 231 169
Width: 469
GlyphClass: 2
Flags: W
LayerCount: 2
Fore
SplineSet
41 251 m 0,0,1
 41 510 41 510 272 510 c 0,2,3
 346 510 346 510 392 478.5 c 128,-1,4
 438 447 438 447 438 396 c 0,5,6
 438 370 438 370 421 351 c 128,-1,7
 404 332 404 332 382.5 332 c 128,-1,8
 361 332 361 332 345 343 c 128,-1,9
 329 354 329 354 325 371 c 1,10,11
 339 393 339 393 339 415 c 128,-1,12
 339 437 339 437 320.5 454 c 128,-1,13
 302 471 302 471 272 471 c 0,14,15
 204 471 204 471 172.5 418.5 c 128,-1,16
 141 366 141 366 141 251.5 c 128,-1,17
 141 137 141 137 170.5 87.5 c 128,-1,18
 200 38 200 38 267 38 c 0,19,20
 356 38 356 38 391 133 c 1,21,-1
 435 118 l 1,22,23
 417 63 417 63 374 30 c 128,-1,24
 331 -3 331 -3 273 -5 c 1,25,-1
 257 -50 l 1,26,27
 297 -57 297 -57 318 -76.5 c 128,-1,28
 339 -96 339 -96 339 -133.5 c 128,-1,29
 339 -171 339 -171 309.5 -195.5 c 128,-1,30
 280 -220 280 -220 234 -220 c 128,-1,31
 188 -220 188 -220 163 -198.5 c 128,-1,32
 138 -177 138 -177 138 -154.5 c 128,-1,33
 138 -132 138 -132 147.5 -119.5 c 128,-1,34
 157 -107 157 -107 170.5 -107 c 128,-1,35
 184 -107 184 -107 193 -111 c 1,36,37
 189 -127 189 -127 189 -133 c 0,38,39
 189 -156 189 -156 203 -170 c 128,-1,40
 217 -184 217 -184 237 -184 c 0,41,42
 284 -184 284 -184 284 -130 c 0,43,44
 284 -90 284 -90 225 -82 c 1,45,-1
 205 -60 l 1,46,-1
 239 -4 l 1,47,48
 136 3 136 3 88.5 64.5 c 128,-1,49
 41 126 41 126 41 251 c 0,0,1
EndSplineSet
EndChar

StartChar: egrave
Encoding: 232 232 170
Width: 486
GlyphClass: 2
Flags: W
LayerCount: 2
Fore
SplineSet
141 261 m 1,0,-1
 141 245 l 2,1,2
 141 121 141 121 174 78 c 0,3,4
 205 38 205 38 275.5 38 c 128,-1,5
 346 38 346 38 396 97 c 1,6,-1
 430 63 l 1,7,8
 369 -8 369 -8 266 -8 c 0,9,10
 145 -8 145 -8 93.5 59 c 128,-1,11
 42 126 42 126 42 251 c 128,-1,12
 42 376 42 376 98 444.5 c 128,-1,13
 154 513 154 513 260 513 c 128,-1,14
 366 513 366 513 408 457 c 128,-1,15
 450 401 450 401 453 290 c 1,16,-1
 431 261 l 1,17,-1
 141 261 l 1,0,-1
258 469 m 0,18,19
 144 469 144 469 141 301 c 1,20,-1
 356 309 l 1,21,22
 356 393 356 393 335 431 c 128,-1,23
 314 469 314 469 258 469 c 0,18,19
186 655 m 2,24,25
 159 677 159 677 159 694 c 128,-1,26
 159 711 159 711 170.5 722.5 c 128,-1,27
 182 734 182 734 201.5 734 c 128,-1,28
 221 734 221 734 232 716 c 1,29,-1
 322 591 l 1,30,-1
 298 565 l 1,31,-1
 186 655 l 2,24,25
EndSplineSet
EndChar

StartChar: eacute
Encoding: 233 233 171
Width: 486
GlyphClass: 2
Flags: W
LayerCount: 2
Fore
SplineSet
141 261 m 1,0,-1
 141 245 l 2,1,2
 141 121 141 121 174 78 c 0,3,4
 205 38 205 38 275.5 38 c 128,-1,5
 346 38 346 38 396 97 c 1,6,-1
 430 63 l 1,7,8
 369 -8 369 -8 266 -8 c 0,9,10
 145 -8 145 -8 93.5 59 c 128,-1,11
 42 126 42 126 42 251 c 128,-1,12
 42 376 42 376 98 444.5 c 128,-1,13
 154 513 154 513 260 513 c 128,-1,14
 366 513 366 513 408 457 c 128,-1,15
 450 401 450 401 453 290 c 1,16,-1
 431 261 l 1,17,-1
 141 261 l 1,0,-1
258 469 m 0,18,19
 144 469 144 469 141 301 c 1,20,-1
 356 309 l 1,21,22
 356 393 356 393 335 431 c 128,-1,23
 314 469 314 469 258 469 c 0,18,19
290 716 m 1,24,25
 301 734 301 734 320.5 734 c 128,-1,26
 340 734 340 734 351.5 722.5 c 128,-1,27
 363 711 363 711 363 694 c 128,-1,28
 363 677 363 677 336 655 c 2,29,-1
 224 565 l 1,30,-1
 200 591 l 1,31,-1
 290 716 l 1,24,25
EndSplineSet
EndChar

StartChar: ecircumflex
Encoding: 234 234 172
Width: 486
GlyphClass: 2
Flags: W
LayerCount: 2
Fore
SplineSet
141 261 m 1,0,-1
 141 245 l 2,1,2
 141 121 141 121 174 78 c 0,3,4
 205 38 205 38 275.5 38 c 128,-1,5
 346 38 346 38 396 97 c 1,6,-1
 430 63 l 1,7,8
 369 -8 369 -8 266 -8 c 0,9,10
 145 -8 145 -8 93.5 59 c 128,-1,11
 42 126 42 126 42 251 c 128,-1,12
 42 376 42 376 98 444.5 c 128,-1,13
 154 513 154 513 260 513 c 128,-1,14
 366 513 366 513 408 457 c 128,-1,15
 450 401 450 401 453 290 c 1,16,-1
 431 261 l 1,17,-1
 141 261 l 1,0,-1
258 469 m 0,18,19
 144 469 144 469 141 301 c 1,20,-1
 356 309 l 1,21,22
 356 393 356 393 335 431 c 128,-1,23
 314 469 314 469 258 469 c 0,18,19
229 716 m 2,24,25
 243 733 243 733 262.5 733 c 128,-1,26
 282 733 282 733 296 716 c 2,27,-1
 396 601 l 1,28,-1
 372 575 l 1,29,-1
 262 658 l 1,30,-1
 153 575 l 1,31,-1
 129 601 l 1,32,-1
 229 716 l 2,24,25
EndSplineSet
EndChar

StartChar: edieresis
Encoding: 235 235 173
Width: 486
GlyphClass: 2
Flags: W
LayerCount: 2
Fore
SplineSet
141 261 m 1,0,-1
 141 245 l 2,1,2
 141 121 141 121 174 78 c 0,3,4
 205 38 205 38 275.5 38 c 128,-1,5
 346 38 346 38 396 97 c 1,6,-1
 430 63 l 1,7,8
 369 -8 369 -8 266 -8 c 0,9,10
 145 -8 145 -8 93.5 59 c 128,-1,11
 42 126 42 126 42 251 c 128,-1,12
 42 376 42 376 98 444.5 c 128,-1,13
 154 513 154 513 260 513 c 128,-1,14
 366 513 366 513 408 457 c 128,-1,15
 450 401 450 401 453 290 c 1,16,-1
 431 261 l 1,17,-1
 141 261 l 1,0,-1
258 469 m 0,18,19
 144 469 144 469 141 301 c 1,20,-1
 356 309 l 1,21,22
 356 393 356 393 335 431 c 128,-1,23
 314 469 314 469 258 469 c 0,18,19
172 596 m 128,-1,25
 121 596 121 596 121 652.5 c 128,-1,26
 121 709 121 709 172 709 c 128,-1,27
 223 709 223 709 223 652.5 c 128,-1,24
 223 596 223 596 172 596 c 128,-1,25
351 596 m 0,28,29
 301 596 301 596 301 652.5 c 128,-1,30
 301 709 301 709 351 709 c 0,31,32
 403 709 403 709 403 652.5 c 128,-1,33
 403 596 403 596 351 596 c 0,28,29
EndSplineSet
EndChar

StartChar: igrave
Encoding: 236 236 174
Width: 299
GlyphClass: 2
Flags: W
LayerCount: 2
Fore
SplineSet
112 376 m 2,0,1
 112 416 112 416 95.5 430.5 c 128,-1,2
 79 445 79 445 37 447 c 1,3,-1
 40 479 l 1,4,5
 81 486 81 486 183 516 c 1,6,-1
 204 505 l 1,7,-1
 204 66 l 1,8,9
 231 46 231 46 279 37 c 1,10,-1
 275 0 l 1,11,-1
 37 0 l 1,12,-1
 41 39 l 1,13,14
 84 46 84 46 112 66 c 1,15,-1
 112 376 l 2,0,1
67 655 m 2,16,17
 40 677 40 677 40 694 c 128,-1,18
 40 711 40 711 51.5 722.5 c 128,-1,19
 63 734 63 734 82.5 734 c 128,-1,20
 102 734 102 734 113 716 c 1,21,-1
 203 591 l 1,22,-1
 179 565 l 1,23,-1
 67 655 l 2,16,17
EndSplineSet
EndChar

StartChar: iacute
Encoding: 237 237 175
Width: 299
GlyphClass: 2
Flags: W
LayerCount: 2
Fore
SplineSet
112 376 m 2,0,1
 112 416 112 416 95.5 430.5 c 128,-1,2
 79 445 79 445 37 447 c 1,3,-1
 40 479 l 1,4,5
 81 486 81 486 183 516 c 1,6,-1
 204 505 l 1,7,-1
 204 66 l 1,8,9
 231 46 231 46 279 37 c 1,10,-1
 275 0 l 1,11,-1
 37 0 l 1,12,-1
 41 39 l 1,13,14
 84 46 84 46 112 66 c 1,15,-1
 112 376 l 2,0,1
171 716 m 1,16,17
 182 734 182 734 201.5 734 c 128,-1,18
 221 734 221 734 232.5 722.5 c 128,-1,19
 244 711 244 711 244 694 c 128,-1,20
 244 677 244 677 217 655 c 2,21,-1
 105 565 l 1,22,-1
 81 591 l 1,23,-1
 171 716 l 1,16,17
EndSplineSet
EndChar

StartChar: icircumflex
Encoding: 238 238 176
Width: 299
GlyphClass: 2
Flags: W
LayerCount: 2
Fore
SplineSet
112 376 m 2,0,1
 112 416 112 416 95.5 430.5 c 128,-1,2
 79 445 79 445 37 447 c 1,3,-1
 40 479 l 1,4,5
 81 486 81 486 183 516 c 1,6,-1
 204 505 l 1,7,-1
 204 66 l 1,8,9
 231 46 231 46 279 37 c 1,10,-1
 275 0 l 1,11,-1
 37 0 l 1,12,-1
 41 39 l 1,13,14
 84 46 84 46 112 66 c 1,15,-1
 112 376 l 2,0,1
110 716 m 2,16,17
 124 733 124 733 143.5 733 c 128,-1,18
 163 733 163 733 177 716 c 2,19,-1
 277 601 l 1,20,-1
 253 575 l 1,21,-1
 143 658 l 1,22,-1
 34 575 l 1,23,-1
 10 601 l 1,24,-1
 110 716 l 2,16,17
EndSplineSet
EndChar

StartChar: idieresis
Encoding: 239 239 177
Width: 299
GlyphClass: 2
Flags: W
LayerCount: 2
Fore
SplineSet
112 376 m 2,0,1
 112 416 112 416 95.5 430.5 c 128,-1,2
 79 445 79 445 37 447 c 1,3,-1
 40 479 l 1,4,5
 81 486 81 486 183 516 c 1,6,-1
 204 505 l 1,7,-1
 204 66 l 1,8,9
 231 46 231 46 279 37 c 1,10,-1
 275 0 l 1,11,-1
 37 0 l 1,12,-1
 41 39 l 1,13,14
 84 46 84 46 112 66 c 1,15,-1
 112 376 l 2,0,1
53 596 m 128,-1,17
 2 596 2 596 2 652.5 c 128,-1,18
 2 709 2 709 53 709 c 128,-1,19
 104 709 104 709 104 652.5 c 128,-1,16
 104 596 104 596 53 596 c 128,-1,17
232 596 m 0,20,21
 182 596 182 596 182 652.5 c 128,-1,22
 182 709 182 709 232 709 c 0,23,24
 284 709 284 709 284 652.5 c 128,-1,25
 284 596 284 596 232 596 c 0,20,21
EndSplineSet
EndChar

StartChar: eth
Encoding: 240 240 178
Width: 537
GlyphClass: 2
Flags: W
LayerCount: 2
Fore
SplineSet
487 253 m 0,0,1
 487 126 487 126 430.5 59.5 c 128,-1,2
 374 -7 374 -7 264 -7 c 128,-1,3
 154 -7 154 -7 98 57.5 c 128,-1,4
 42 122 42 122 42 248 c 128,-1,5
 42 374 42 374 103 443.5 c 128,-1,6
 164 513 164 513 279 513 c 0,7,8
 322 513 322 513 364 497 c 1,9,10
 338 570 338 570 281 618 c 1,11,-1
 123 559 l 1,12,-1
 105 602 l 1,13,-1
 232 653 l 1,14,15
 189 679 189 679 130 702 c 1,16,-1
 149 748 l 1,17,18
 240 716 240 716 300 681 c 1,19,-1
 423 731 l 1,20,-1
 445 680 l 1,21,-1
 352 645 l 1,22,23
 423 588 423 588 455 499 c 128,-1,24
 487 410 487 410 487 253 c 0,0,1
380 439 m 1,25,26
 333 467 333 467 272 467 c 128,-1,27
 211 467 211 467 174 408 c 128,-1,28
 137 349 137 349 137 244.5 c 128,-1,29
 137 140 137 140 167 91.5 c 128,-1,30
 197 43 197 43 264.5 43 c 128,-1,31
 332 43 332 43 362 92.5 c 128,-1,32
 392 142 392 142 392 260.5 c 128,-1,33
 392 379 392 379 380 439 c 1,25,26
EndSplineSet
EndChar

StartChar: ntilde
Encoding: 241 241 179
Width: 594
GlyphClass: 2
Flags: W
LayerCount: 2
Fore
SplineSet
108 374 m 2,0,1
 108 414 108 414 91.5 428.5 c 128,-1,2
 75 443 75 443 33 445 c 1,3,-1
 36 477 l 1,4,5
 58 481 58 481 168 513 c 1,6,-1
 187 503 l 1,7,-1
 197 436 l 1,8,9
 253 513 253 513 335 513 c 128,-1,10
 417 513 417 513 461 473.5 c 128,-1,11
 505 434 505 434 505 364 c 2,12,-1
 505 66 l 1,13,14
 530 47 530 47 580 37 c 1,15,-1
 576 0 l 1,16,-1
 339 0 l 1,17,-1
 342 37 l 1,18,19
 382 43 382 43 413 66 c 1,20,-1
 413 354 l 2,21,22
 413 461 413 461 321 461 c 0,23,24
 284 461 284 461 250 436 c 128,-1,25
 216 411 216 411 200 371 c 1,26,-1
 200 66 l 1,27,28
 227 46 227 46 275 37 c 1,29,-1
 271 0 l 1,30,-1
 33 0 l 1,31,-1
 37 39 l 1,32,33
 80 46 80 46 108 66 c 1,34,-1
 108 374 l 2,0,1
180 679 m 128,-1,36
 208 708 208 708 239.5 708 c 128,-1,37
 271 708 271 708 310.5 686.5 c 128,-1,38
 350 665 350 665 370 665 c 0,39,40
 404 665 404 665 441 708 c 1,41,42
 459 701 459 701 476 687 c 1,43,44
 463 655 463 655 435 626.5 c 128,-1,45
 407 598 407 598 375 598 c 128,-1,46
 343 598 343 598 304 619.5 c 128,-1,47
 265 641 265 641 244 641 c 0,48,49
 211 641 211 641 174 598 c 1,50,51
 157 602 157 602 139 619 c 1,52,35
 152 650 152 650 180 679 c 128,-1,36
EndSplineSet
EndChar

StartChar: ograve
Encoding: 242 242 180
Width: 528
GlyphClass: 2
Flags: W
LayerCount: 2
Fore
SplineSet
167 91.5 m 128,-1,1
 197 42 197 42 264.5 42 c 128,-1,2
 332 42 332 42 362 91.5 c 128,-1,3
 392 141 392 141 392 252.5 c 128,-1,4
 392 364 392 364 362 413.5 c 128,-1,5
 332 463 332 463 264 463 c 128,-1,6
 196 463 196 463 166.5 414 c 128,-1,7
 137 365 137 365 137 253 c 128,-1,0
 137 141 137 141 167 91.5 c 128,-1,1
264 -8 m 128,-1,9
 154 -8 154 -8 97.5 58.5 c 128,-1,10
 41 125 41 125 41 252.5 c 128,-1,11
 41 380 41 380 97.5 446.5 c 128,-1,12
 154 513 154 513 264 513 c 128,-1,13
 374 513 374 513 430.5 446.5 c 128,-1,14
 487 380 487 380 487 252.5 c 128,-1,15
 487 125 487 125 430.5 58.5 c 128,-1,8
 374 -8 374 -8 264 -8 c 128,-1,9
188 655 m 2,16,17
 161 677 161 677 161 694 c 128,-1,18
 161 711 161 711 172.5 722.5 c 128,-1,19
 184 734 184 734 203.5 734 c 128,-1,20
 223 734 223 734 234 716 c 1,21,-1
 324 591 l 1,22,-1
 300 565 l 1,23,-1
 188 655 l 2,16,17
EndSplineSet
EndChar

StartChar: oacute
Encoding: 243 243 181
Width: 528
GlyphClass: 2
Flags: W
LayerCount: 2
Fore
SplineSet
167 91.5 m 128,-1,1
 197 42 197 42 264.5 42 c 128,-1,2
 332 42 332 42 362 91.5 c 128,-1,3
 392 141 392 141 392 252.5 c 128,-1,4
 392 364 392 364 362 413.5 c 128,-1,5
 332 463 332 463 264 463 c 128,-1,6
 196 463 196 463 166.5 414 c 128,-1,7
 137 365 137 365 137 253 c 128,-1,0
 137 141 137 141 167 91.5 c 128,-1,1
264 -8 m 128,-1,9
 154 -8 154 -8 97.5 58.5 c 128,-1,10
 41 125 41 125 41 252.5 c 128,-1,11
 41 380 41 380 97.5 446.5 c 128,-1,12
 154 513 154 513 264 513 c 128,-1,13
 374 513 374 513 430.5 446.5 c 128,-1,14
 487 380 487 380 487 252.5 c 128,-1,15
 487 125 487 125 430.5 58.5 c 128,-1,8
 374 -8 374 -8 264 -8 c 128,-1,9
292 716 m 1,16,17
 303 734 303 734 322.5 734 c 128,-1,18
 342 734 342 734 353.5 722.5 c 128,-1,19
 365 711 365 711 365 694 c 128,-1,20
 365 677 365 677 338 655 c 2,21,-1
 226 565 l 1,22,-1
 202 591 l 1,23,-1
 292 716 l 1,16,17
EndSplineSet
EndChar

StartChar: ocircumflex
Encoding: 244 244 182
Width: 528
GlyphClass: 2
Flags: W
LayerCount: 2
Fore
SplineSet
167 91.5 m 128,-1,1
 197 42 197 42 264.5 42 c 128,-1,2
 332 42 332 42 362 91.5 c 128,-1,3
 392 141 392 141 392 252.5 c 128,-1,4
 392 364 392 364 362 413.5 c 128,-1,5
 332 463 332 463 264 463 c 128,-1,6
 196 463 196 463 166.5 414 c 128,-1,7
 137 365 137 365 137 253 c 128,-1,0
 137 141 137 141 167 91.5 c 128,-1,1
264 -8 m 128,-1,9
 154 -8 154 -8 97.5 58.5 c 128,-1,10
 41 125 41 125 41 252.5 c 128,-1,11
 41 380 41 380 97.5 446.5 c 128,-1,12
 154 513 154 513 264 513 c 128,-1,13
 374 513 374 513 430.5 446.5 c 128,-1,14
 487 380 487 380 487 252.5 c 128,-1,15
 487 125 487 125 430.5 58.5 c 128,-1,8
 374 -8 374 -8 264 -8 c 128,-1,9
231 716 m 2,16,17
 245 733 245 733 264.5 733 c 128,-1,18
 284 733 284 733 298 716 c 2,19,-1
 398 601 l 1,20,-1
 374 575 l 1,21,-1
 264 658 l 1,22,-1
 155 575 l 1,23,-1
 131 601 l 1,24,-1
 231 716 l 2,16,17
EndSplineSet
EndChar

StartChar: otilde
Encoding: 245 245 183
Width: 528
GlyphClass: 2
Flags: W
LayerCount: 2
Fore
SplineSet
167 91.5 m 128,-1,1
 197 42 197 42 264.5 42 c 128,-1,2
 332 42 332 42 362 91.5 c 128,-1,3
 392 141 392 141 392 252.5 c 128,-1,4
 392 364 392 364 362 413.5 c 128,-1,5
 332 463 332 463 264 463 c 128,-1,6
 196 463 196 463 166.5 414 c 128,-1,7
 137 365 137 365 137 253 c 128,-1,0
 137 141 137 141 167 91.5 c 128,-1,1
264 -8 m 128,-1,9
 154 -8 154 -8 97.5 58.5 c 128,-1,10
 41 125 41 125 41 252.5 c 128,-1,11
 41 380 41 380 97.5 446.5 c 128,-1,12
 154 513 154 513 264 513 c 128,-1,13
 374 513 374 513 430.5 446.5 c 128,-1,14
 487 380 487 380 487 252.5 c 128,-1,15
 487 125 487 125 430.5 58.5 c 128,-1,8
 374 -8 374 -8 264 -8 c 128,-1,9
138 679 m 128,-1,17
 166 708 166 708 197.5 708 c 128,-1,18
 229 708 229 708 268.5 686.5 c 128,-1,19
 308 665 308 665 328 665 c 0,20,21
 362 665 362 665 399 708 c 1,22,23
 417 701 417 701 434 687 c 1,24,25
 421 655 421 655 393 626.5 c 128,-1,26
 365 598 365 598 333 598 c 128,-1,27
 301 598 301 598 262 619.5 c 128,-1,28
 223 641 223 641 202 641 c 0,29,30
 169 641 169 641 132 598 c 1,31,32
 115 602 115 602 97 619 c 1,33,16
 110 650 110 650 138 679 c 128,-1,17
EndSplineSet
EndChar

StartChar: odieresis
Encoding: 246 246 184
Width: 528
GlyphClass: 2
Flags: W
LayerCount: 2
Fore
SplineSet
167 91.5 m 128,-1,1
 197 42 197 42 264.5 42 c 128,-1,2
 332 42 332 42 362 91.5 c 128,-1,3
 392 141 392 141 392 252.5 c 128,-1,4
 392 364 392 364 362 413.5 c 128,-1,5
 332 463 332 463 264 463 c 128,-1,6
 196 463 196 463 166.5 414 c 128,-1,7
 137 365 137 365 137 253 c 128,-1,0
 137 141 137 141 167 91.5 c 128,-1,1
264 -8 m 128,-1,9
 154 -8 154 -8 97.5 58.5 c 128,-1,10
 41 125 41 125 41 252.5 c 128,-1,11
 41 380 41 380 97.5 446.5 c 128,-1,12
 154 513 154 513 264 513 c 128,-1,13
 374 513 374 513 430.5 446.5 c 128,-1,14
 487 380 487 380 487 252.5 c 128,-1,15
 487 125 487 125 430.5 58.5 c 128,-1,8
 374 -8 374 -8 264 -8 c 128,-1,9
174 596 m 128,-1,17
 123 596 123 596 123 652.5 c 128,-1,18
 123 709 123 709 174 709 c 128,-1,19
 225 709 225 709 225 652.5 c 128,-1,16
 225 596 225 596 174 596 c 128,-1,17
353 596 m 0,20,21
 303 596 303 596 303 652.5 c 128,-1,22
 303 709 303 709 353 709 c 0,23,24
 405 709 405 709 405 652.5 c 128,-1,25
 405 596 405 596 353 596 c 0,20,21
EndSplineSet
EndChar

StartChar: divide
Encoding: 247 247 185
Width: 545
GlyphClass: 2
Flags: W
LayerCount: 2
Fore
SplineSet
305 421.5 m 128,-1,1
 290 407 290 407 270.5 407 c 128,-1,2
 251 407 251 407 236.5 421.5 c 128,-1,3
 222 436 222 436 222 455 c 128,-1,4
 222 474 222 474 236.5 489 c 128,-1,5
 251 504 251 504 270.5 504 c 128,-1,6
 290 504 290 504 305 489.5 c 128,-1,7
 320 475 320 475 320 455.5 c 128,-1,0
 320 436 320 436 305 421.5 c 128,-1,1
236.5 102.5 m 128,-1,9
 222 117 222 117 222 136.5 c 128,-1,10
 222 156 222 156 236.5 171 c 128,-1,11
 251 186 251 186 270.5 186 c 128,-1,12
 290 186 290 186 305 171 c 128,-1,13
 320 156 320 156 320 136.5 c 128,-1,14
 320 117 320 117 305 102.5 c 128,-1,15
 290 88 290 88 270.5 88 c 128,-1,8
 251 88 251 88 236.5 102.5 c 128,-1,9
62 268 m 1,16,-1
 62 325 l 1,17,-1
 483 325 l 1,18,-1
 483 268 l 1,19,-1
 62 268 l 1,16,-1
EndSplineSet
EndChar

StartChar: oslash
Encoding: 248 248 186
Width: 528
GlyphClass: 2
Flags: W
LayerCount: 2
Fore
SplineSet
89 69 m 1,0,1
 41 135 41 135 41 257.5 c 128,-1,2
 41 380 41 380 97.5 446.5 c 128,-1,3
 154 513 154 513 256.5 513 c 128,-1,4
 359 513 359 513 415 463 c 1,5,-1
 463 521 l 1,6,-1
 471 522 l 1,7,8
 481 516 481 516 494 500 c 1,9,-1
 440 435 l 1,10,11
 487 368 487 368 487 246.5 c 128,-1,12
 487 125 487 125 430.5 58.5 c 128,-1,13
 374 -8 374 -8 271.5 -8 c 128,-1,14
 169 -8 169 -8 113 42 c 1,15,-1
 64 -18 l 1,16,-1
 57 -19 l 1,17,18
 45 -9 45 -9 34 3 c 1,19,-1
 89 69 l 1,0,1
367 405 m 1,20,21
 337 463 337 463 266.5 463 c 128,-1,22
 196 463 196 463 166.5 414 c 128,-1,23
 137 365 137 365 137 253 c 0,24,25
 137 181 137 181 148 140 c 1,26,-1
 367 405 l 1,20,21
162 100 m 1,27,28
 191 42 191 42 261.5 42 c 128,-1,29
 332 42 332 42 362 91.5 c 128,-1,30
 392 141 392 141 392 253 c 0,31,32
 392 324 392 324 381 364 c 1,33,-1
 162 100 l 1,27,28
EndSplineSet
EndChar

StartChar: ugrave
Encoding: 249 249 187
Width: 588
GlyphClass: 2
Flags: W
LayerCount: 2
Fore
SplineSet
89 166 m 2,0,-1
 89 376 l 2,1,2
 89 416 89 416 72.5 430.5 c 128,-1,3
 56 445 56 445 14 447 c 1,4,-1
 17 479 l 1,5,6
 58 486 58 486 160 516 c 1,7,-1
 181 505 l 1,8,-1
 181 154 l 2,9,10
 181 41 181 41 274 41 c 0,11,12
 302 41 302 41 333 61.5 c 128,-1,13
 364 82 364 82 388 126 c 1,14,-1
 388 376 l 2,15,16
 388 416 388 416 371.5 430.5 c 128,-1,17
 355 445 355 445 313 447 c 1,18,-1
 316 479 l 1,19,20
 357 486 357 486 459 516 c 1,21,-1
 480 505 l 1,22,-1
 480 66 l 1,23,24
 505 47 505 47 555 37 c 1,25,-1
 551 0 l 1,26,-1
 408 0 l 1,27,-1
 397 68 l 1,28,29
 339 -8 339 -8 262 -8 c 0,30,31
 89 -8 89 -8 89 166 c 2,0,-1
208 655 m 2,32,33
 181 677 181 677 181 694 c 128,-1,34
 181 711 181 711 192.5 722.5 c 128,-1,35
 204 734 204 734 223.5 734 c 128,-1,36
 243 734 243 734 254 716 c 1,37,-1
 344 591 l 1,38,-1
 320 565 l 1,39,-1
 208 655 l 2,32,33
EndSplineSet
EndChar

StartChar: uacute
Encoding: 250 250 188
Width: 588
GlyphClass: 2
Flags: W
LayerCount: 2
Fore
SplineSet
89 166 m 2,0,-1
 89 376 l 2,1,2
 89 416 89 416 72.5 430.5 c 128,-1,3
 56 445 56 445 14 447 c 1,4,-1
 17 479 l 1,5,6
 58 486 58 486 160 516 c 1,7,-1
 181 505 l 1,8,-1
 181 154 l 2,9,10
 181 41 181 41 274 41 c 0,11,12
 302 41 302 41 333 61.5 c 128,-1,13
 364 82 364 82 388 126 c 1,14,-1
 388 376 l 2,15,16
 388 416 388 416 371.5 430.5 c 128,-1,17
 355 445 355 445 313 447 c 1,18,-1
 316 479 l 1,19,20
 357 486 357 486 459 516 c 1,21,-1
 480 505 l 1,22,-1
 480 66 l 1,23,24
 505 47 505 47 555 37 c 1,25,-1
 551 0 l 1,26,-1
 408 0 l 1,27,-1
 397 68 l 1,28,29
 339 -8 339 -8 262 -8 c 0,30,31
 89 -8 89 -8 89 166 c 2,0,-1
312 716 m 1,32,33
 323 734 323 734 342.5 734 c 128,-1,34
 362 734 362 734 373.5 722.5 c 128,-1,35
 385 711 385 711 385 694 c 128,-1,36
 385 677 385 677 358 655 c 2,37,-1
 246 565 l 1,38,-1
 222 591 l 1,39,-1
 312 716 l 1,32,33
EndSplineSet
EndChar

StartChar: ucircumflex
Encoding: 251 251 189
Width: 588
GlyphClass: 2
Flags: W
LayerCount: 2
Fore
SplineSet
89 166 m 2,0,-1
 89 376 l 2,1,2
 89 416 89 416 72.5 430.5 c 128,-1,3
 56 445 56 445 14 447 c 1,4,-1
 17 479 l 1,5,6
 58 486 58 486 160 516 c 1,7,-1
 181 505 l 1,8,-1
 181 154 l 2,9,10
 181 41 181 41 274 41 c 0,11,12
 302 41 302 41 333 61.5 c 128,-1,13
 364 82 364 82 388 126 c 1,14,-1
 388 376 l 2,15,16
 388 416 388 416 371.5 430.5 c 128,-1,17
 355 445 355 445 313 447 c 1,18,-1
 316 479 l 1,19,20
 357 486 357 486 459 516 c 1,21,-1
 480 505 l 1,22,-1
 480 66 l 1,23,24
 505 47 505 47 555 37 c 1,25,-1
 551 0 l 1,26,-1
 408 0 l 1,27,-1
 397 68 l 1,28,29
 339 -8 339 -8 262 -8 c 0,30,31
 89 -8 89 -8 89 166 c 2,0,-1
251 716 m 2,32,33
 265 733 265 733 284.5 733 c 128,-1,34
 304 733 304 733 318 716 c 2,35,-1
 418 601 l 1,36,-1
 394 575 l 1,37,-1
 284 658 l 1,38,-1
 175 575 l 1,39,-1
 151 601 l 1,40,-1
 251 716 l 2,32,33
EndSplineSet
EndChar

StartChar: udieresis
Encoding: 252 252 190
Width: 588
GlyphClass: 2
Flags: W
LayerCount: 2
Fore
SplineSet
89 166 m 2,0,-1
 89 376 l 2,1,2
 89 416 89 416 72.5 430.5 c 128,-1,3
 56 445 56 445 14 447 c 1,4,-1
 17 479 l 1,5,6
 58 486 58 486 160 516 c 1,7,-1
 181 505 l 1,8,-1
 181 154 l 2,9,10
 181 41 181 41 274 41 c 0,11,12
 302 41 302 41 333 61.5 c 128,-1,13
 364 82 364 82 388 126 c 1,14,-1
 388 376 l 2,15,16
 388 416 388 416 371.5 430.5 c 128,-1,17
 355 445 355 445 313 447 c 1,18,-1
 316 479 l 1,19,20
 357 486 357 486 459 516 c 1,21,-1
 480 505 l 1,22,-1
 480 66 l 1,23,24
 505 47 505 47 555 37 c 1,25,-1
 551 0 l 1,26,-1
 408 0 l 1,27,-1
 397 68 l 1,28,29
 339 -8 339 -8 262 -8 c 0,30,31
 89 -8 89 -8 89 166 c 2,0,-1
194 596 m 128,-1,33
 143 596 143 596 143 652.5 c 128,-1,34
 143 709 143 709 194 709 c 128,-1,35
 245 709 245 709 245 652.5 c 128,-1,32
 245 596 245 596 194 596 c 128,-1,33
373 596 m 0,36,37
 323 596 323 596 323 652.5 c 128,-1,38
 323 709 323 709 373 709 c 0,39,40
 425 709 425 709 425 652.5 c 128,-1,41
 425 596 425 596 373 596 c 0,36,37
EndSplineSet
EndChar

StartChar: yacute
Encoding: 253 253 191
Width: 550
GlyphClass: 2
Flags: W
LayerCount: 2
Fore
SplineSet
222 -210 m 128,-1,1
 188 -243 188 -243 141.5 -243 c 128,-1,2
 95 -243 95 -243 66.5 -219.5 c 128,-1,3
 38 -196 38 -196 38 -163.5 c 128,-1,4
 38 -131 38 -131 53 -115 c 128,-1,5
 68 -99 68 -99 89.5 -99 c 128,-1,6
 111 -99 111 -99 129 -111 c 1,7,8
 116 -129 116 -129 116 -146.5 c 128,-1,9
 116 -164 116 -164 126 -174.5 c 128,-1,10
 136 -185 136 -185 156 -185 c 0,11,12
 195 -185 195 -185 227 -86 c 2,13,-1
 253 -5 l 1,14,-1
 76 427 l 2,15,16
 62 462 62 462 -1 473 c 1,17,-1
 2 506 l 1,18,-1
 237 506 l 1,19,-1
 234 474 l 1,20,21
 192 469 192 469 170 450 c 1,22,-1
 295 122 l 1,23,-1
 402 450 l 1,24,25
 379 467 379 467 338 474 c 1,26,-1
 341 506 l 1,27,-1
 551 506 l 1,28,-1
 548 474 l 1,29,30
 478 464 478 464 468 437 c 2,31,-1
 283 -99 l 2,32,0
 256 -177 256 -177 222 -210 c 128,-1,1
313 716 m 1,33,34
 324 734 324 734 343.5 734 c 128,-1,35
 363 734 363 734 374.5 722.5 c 128,-1,36
 386 711 386 711 386 694 c 128,-1,37
 386 677 386 677 359 655 c 2,38,-1
 247 565 l 1,39,-1
 223 591 l 1,40,-1
 313 716 l 1,33,34
EndSplineSet
EndChar

StartChar: thorn
Encoding: 254 254 192
Width: 558
GlyphClass: 2
Flags: W
LayerCount: 2
Fore
SplineSet
100 598 m 2,0,1
 100 632 100 632 82.5 645.5 c 128,-1,2
 65 659 65 659 25 661 c 1,3,-1
 28 693 l 1,4,5
 69 700 69 700 171 730 c 1,6,-1
 192 719 l 1,7,-1
 192 443 l 1,8,9
 236 512 236 512 325 512 c 0,10,11
 517 512 517 512 517 263 c 0,12,13
 517 131 517 131 456 61.5 c 128,-1,14
 395 -8 395 -8 280 -8 c 0,15,16
 238 -8 238 -8 192 9 c 1,17,-1
 192 -162 l 1,18,19
 219 -182 219 -182 267 -191 c 1,20,-1
 263 -228 l 1,21,-1
 25 -228 l 1,22,-1
 29 -189 l 1,23,24
 72 -182 72 -182 100 -162 c 1,25,-1
 100 598 l 2,0,1
192 262 m 2,26,-1
 192 59 l 1,27,28
 228 38 228 38 288 38 c 128,-1,29
 348 38 348 38 385 97 c 128,-1,30
 422 156 422 156 422 261.5 c 128,-1,31
 422 367 422 367 396 416.5 c 128,-1,32
 370 466 370 466 315 466 c 0,33,34
 192 466 192 466 192 262 c 2,26,-1
EndSplineSet
EndChar

StartChar: ydieresis
Encoding: 255 255 193
Width: 550
GlyphClass: 2
Flags: W
LayerCount: 2
Fore
SplineSet
222 -210 m 128,-1,1
 188 -243 188 -243 141.5 -243 c 128,-1,2
 95 -243 95 -243 66.5 -219.5 c 128,-1,3
 38 -196 38 -196 38 -163.5 c 128,-1,4
 38 -131 38 -131 53 -115 c 128,-1,5
 68 -99 68 -99 89.5 -99 c 128,-1,6
 111 -99 111 -99 129 -111 c 1,7,8
 116 -129 116 -129 116 -146.5 c 128,-1,9
 116 -164 116 -164 126 -174.5 c 128,-1,10
 136 -185 136 -185 156 -185 c 0,11,12
 195 -185 195 -185 227 -86 c 2,13,-1
 253 -5 l 1,14,-1
 76 427 l 2,15,16
 62 462 62 462 -1 473 c 1,17,-1
 2 506 l 1,18,-1
 237 506 l 1,19,-1
 234 474 l 1,20,21
 192 469 192 469 170 450 c 1,22,-1
 295 122 l 1,23,-1
 402 450 l 1,24,25
 379 467 379 467 338 474 c 1,26,-1
 341 506 l 1,27,-1
 551 506 l 1,28,-1
 548 474 l 1,29,30
 478 464 478 464 470 442 c 2,31,-1
 283 -99 l 2,32,0
 256 -177 256 -177 222 -210 c 128,-1,1
195 596 m 128,-1,34
 144 596 144 596 144 652.5 c 128,-1,35
 144 709 144 709 195 709 c 128,-1,36
 246 709 246 709 246 652.5 c 128,-1,33
 246 596 246 596 195 596 c 128,-1,34
374 596 m 0,37,38
 324 596 324 596 324 652.5 c 128,-1,39
 324 709 324 709 374 709 c 0,40,41
 426 709 426 709 426 652.5 c 128,-1,42
 426 596 426 596 374 596 c 0,37,38
EndSplineSet
EndChar

StartChar: hbar
Encoding: 295 295 194
Width: 587
GlyphClass: 2
Flags: W
LayerCount: 2
Fore
SplineSet
108 552 m 1,0,-1
 37 552 l 1,1,-1
 37 595 l 1,2,-1
 108 595 l 1,3,4
 107 632 107 632 90.5 645.5 c 128,-1,5
 74 659 74 659 33 661 c 1,6,-1
 36 693 l 1,7,8
 77 700 77 700 179 730 c 1,9,-1
 200 719 l 1,10,-1
 200 595 l 1,11,-1
 337 595 l 1,12,-1
 337 552 l 1,13,-1
 200 552 l 1,14,-1
 200 449 l 1,15,16
 256 513 256 513 333 513 c 128,-1,17
 410 513 410 513 454 473.5 c 128,-1,18
 498 434 498 434 498 364 c 2,19,-1
 498 66 l 1,20,21
 523 47 523 47 573 37 c 1,22,-1
 569 0 l 1,23,-1
 332 0 l 1,24,-1
 335 37 l 1,25,26
 375 43 375 43 406 66 c 1,27,-1
 406 354 l 2,28,29
 406 461 406 461 314 461 c 0,30,31
 281 461 281 461 249.5 440 c 128,-1,32
 218 419 218 419 200 385 c 1,33,-1
 200 66 l 1,34,35
 227 46 227 46 275 37 c 1,36,-1
 271 0 l 1,37,-1
 33 0 l 1,38,-1
 37 39 l 1,39,40
 80 46 80 46 108 66 c 1,41,-1
 108 552 l 1,0,-1
EndSplineSet
EndChar

StartChar: Itilde
Encoding: 296 296 195
Width: 401
GlyphClass: 2
Flags: W
LayerCount: 2
Fore
SplineSet
50 0 m 1,0,-1
 56 40 l 1,1,2
 118 47 118 47 153 68 c 1,3,-1
 153 608 l 1,4,5
 117 628 117 628 50 636 c 1,6,-1
 55 676 l 1,7,-1
 351 676 l 1,8,-1
 345 636 l 1,9,10
 283 629 283 629 248 608 c 1,11,-1
 248 68 l 1,12,13
 284 48 284 48 351 40 c 1,14,-1
 346 0 l 1,15,-1
 50 0 l 1,0,-1
69 819 m 128,-1,17
 97 848 97 848 128.5 848 c 128,-1,18
 160 848 160 848 199.5 826.5 c 128,-1,19
 239 805 239 805 259 805 c 0,20,21
 293 805 293 805 330 848 c 1,22,23
 348 841 348 841 365 827 c 1,24,25
 352 795 352 795 324 766.5 c 128,-1,26
 296 738 296 738 264 738 c 128,-1,27
 232 738 232 738 193 759.5 c 128,-1,28
 154 781 154 781 133 781 c 0,29,30
 100 781 100 781 63 738 c 1,31,32
 46 742 46 742 28 759 c 1,33,16
 41 790 41 790 69 819 c 128,-1,17
EndSplineSet
EndChar

StartChar: itilde
Encoding: 297 297 196
Width: 299
GlyphClass: 2
Flags: W
LayerCount: 2
Fore
SplineSet
112 376 m 2,0,1
 112 416 112 416 95.5 430.5 c 128,-1,2
 79 445 79 445 37 447 c 1,3,-1
 40 479 l 1,4,5
 81 486 81 486 183 516 c 1,6,-1
 204 505 l 1,7,-1
 204 66 l 1,8,9
 231 46 231 46 279 37 c 1,10,-1
 275 0 l 1,11,-1
 37 0 l 1,12,-1
 41 39 l 1,13,14
 84 46 84 46 112 66 c 1,15,-1
 112 376 l 2,0,1
24 679 m 128,-1,17
 51 708 51 708 80.5 708 c 128,-1,18
 110 708 110 708 146 686.5 c 128,-1,19
 182 665 182 665 202 665 c 0,20,21
 232 665 232 665 268 708 c 1,22,23
 285 701 285 701 303 687 c 1,24,25
 291 656 291 656 264.5 627 c 128,-1,26
 238 598 238 598 208.5 598 c 128,-1,27
 179 598 179 598 142 619.5 c 128,-1,28
 105 641 105 641 86 641 c 0,29,30
 57 641 57 641 21 598 c 1,31,32
 4 602 4 602 -14 619 c 1,33,16
 -3 650 -3 650 24 679 c 128,-1,17
EndSplineSet
EndChar

StartChar: dotlessi
Encoding: 305 305 197
Width: 299
GlyphClass: 2
Flags: W
LayerCount: 2
Fore
SplineSet
112 376 m 2,0,1
 112 416 112 416 95.5 430.5 c 128,-1,2
 79 445 79 445 37 447 c 1,3,-1
 40 479 l 1,4,5
 81 486 81 486 183 516 c 1,6,-1
 204 505 l 1,7,-1
 204 66 l 1,8,9
 231 46 231 46 279 37 c 1,10,-1
 275 0 l 1,11,-1
 37 0 l 1,12,-1
 41 39 l 1,13,14
 84 46 84 46 112 66 c 1,15,-1
 112 376 l 2,0,1
EndSplineSet
EndChar

StartChar: IJ
Encoding: 306 306 198
Width: 695
GlyphClass: 2
Flags: W
LayerCount: 2
Fore
SplineSet
562 69 m 2,0,1
 562 -118 562 -118 324 -179 c 1,2,-1
 312 -146 l 1,3,4
 467 -78 467 -78 467 53 c 2,5,-1
 467 608 l 1,6,7
 424 634 424 634 357 636 c 1,8,9
 292 634 292 634 248 608 c 1,10,-1
 248 68 l 1,11,12
 284 48 284 48 351 40 c 1,13,-1
 346 0 l 1,14,-1
 50 0 l 1,15,-1
 56 40 l 1,16,17
 118 47 118 47 153 68 c 1,18,-1
 153 608 l 1,19,20
 117 628 117 628 50 636 c 1,21,-1
 55 676 l 1,22,-1
 665 676 l 1,23,-1
 659 636 l 1,24,25
 597 629 597 629 562 608 c 1,26,-1
 562 69 l 2,0,1
EndSplineSet
EndChar

StartChar: ij
Encoding: 307 307 199
Width: 592
GlyphClass: 2
Flags: W
LayerCount: 2
Fore
SplineSet
112 166 m 2,0,-1
 112 376 l 2,1,2
 112 416 112 416 95.5 430.5 c 128,-1,3
 79 445 79 445 37 447 c 1,4,-1
 40 479 l 1,5,6
 81 486 81 486 183 516 c 1,7,-1
 204 505 l 1,8,-1
 204 154 l 2,9,10
 204 41 204 41 297 41 c 0,11,12
 325 41 325 41 356 61.5 c 128,-1,13
 387 82 387 82 411 126 c 1,14,-1
 411 376 l 2,15,16
 411 416 411 416 394.5 430.5 c 128,-1,17
 378 445 378 445 336 447 c 1,18,-1
 339 479 l 1,19,20
 380 486 380 486 482 516 c 1,21,-1
 503 505 l 1,22,-1
 503 -35 l 2,23,24
 503 -178 503 -178 444 -216 c 0,25,26
 418 -233 418 -233 373.5 -233 c 128,-1,27
 329 -233 329 -233 296.5 -213 c 128,-1,28
 264 -193 264 -193 264 -150 c 0,29,30
 264 -125 264 -125 278 -108 c 128,-1,31
 292 -91 292 -91 318.5 -91 c 128,-1,32
 345 -91 345 -91 357 -112 c 1,33,34
 341 -126 341 -126 341 -145 c 128,-1,35
 341 -164 341 -164 353 -175 c 128,-1,36
 365 -186 365 -186 386 -186 c 0,37,38
 432 -186 432 -186 432 -116 c 0,39,40
 432 -83 432 -83 425 -23.5 c 128,-1,41
 418 36 418 36 416 63 c 1,42,43
 359 -8 359 -8 285 -8 c 0,44,45
 112 -8 112 -8 112 166 c 2,0,-1
152.5 593 m 128,-1,47
 96 593 96 593 96 655.5 c 128,-1,48
 96 718 96 718 152.5 718 c 128,-1,49
 209 718 209 718 209 655.5 c 128,-1,46
 209 593 209 593 152.5 593 c 128,-1,47
446.5 593 m 128,-1,51
 390 593 390 593 390 655.5 c 128,-1,52
 390 718 390 718 446.5 718 c 128,-1,53
 503 718 503 718 503 655.5 c 128,-1,50
 503 593 503 593 446.5 593 c 128,-1,51
EndSplineSet
EndChar

StartChar: Jcircumflex
Encoding: 308 308 200
Width: 374
GlyphClass: 2
Flags: W
LayerCount: 2
Fore
SplineSet
146 33 m 2,0,-1
 146 608 l 1,1,2
 110 628 110 628 43 636 c 1,3,-1
 48 676 l 1,4,-1
 344 676 l 1,5,-1
 338 636 l 1,6,7
 276 629 276 629 241 608 c 1,8,-1
 241 49 l 2,9,10
 241 -45 241 -45 187.5 -98.5 c 128,-1,11
 134 -152 134 -152 33 -179 c 1,12,-1
 21 -146 l 1,13,14
 78 -121 78 -121 112 -80 c 128,-1,15
 146 -39 146 -39 146 33 c 2,0,-1
164 856 m 2,16,17
 178 873 178 873 197.5 873 c 128,-1,18
 217 873 217 873 231 856 c 2,19,-1
 331 741 l 1,20,-1
 307 715 l 1,21,-1
 197 798 l 1,22,-1
 88 715 l 1,23,-1
 64 741 l 1,24,-1
 164 856 l 2,16,17
EndSplineSet
EndChar

StartChar: jcircumflex
Encoding: 309 309 201
Width: 306
GlyphClass: 2
Flags: W
LayerCount: 2
Fore
SplineSet
125 79 m 2,0,-1
 125 376 l 2,1,2
 125 416 125 416 108.5 430.5 c 128,-1,3
 92 445 92 445 50 447 c 1,4,-1
 53 479 l 1,5,6
 94 486 94 486 196 516 c 1,7,-1
 217 505 l 1,8,-1
 217 -35 l 2,9,10
 217 -178 217 -178 158 -216 c 0,11,12
 132 -233 132 -233 87.5 -233 c 128,-1,13
 43 -233 43 -233 10.5 -213 c 128,-1,14
 -22 -193 -22 -193 -22 -150 c 0,15,16
 -22 -125 -22 -125 -8 -108 c 128,-1,17
 6 -91 6 -91 32.5 -91 c 128,-1,18
 59 -91 59 -91 71 -112 c 1,19,20
 55 -126 55 -126 55 -145 c 128,-1,21
 55 -164 55 -164 65.5 -175 c 128,-1,22
 76 -186 76 -186 95 -186 c 0,23,24
 138 -186 138 -186 138 -116 c 0,25,26
 138 -81 138 -81 131.5 -26.5 c 128,-1,27
 125 28 125 28 125 79 c 2,0,-1
120 716 m 2,28,29
 134 733 134 733 153.5 733 c 128,-1,30
 173 733 173 733 187 716 c 2,31,-1
 287 601 l 1,32,-1
 263 575 l 1,33,-1
 153 658 l 1,34,-1
 44 575 l 1,35,-1
 20 601 l 1,36,-1
 120 716 l 2,28,29
EndSplineSet
EndChar

StartChar: kcommaaccent
Encoding: 311 311 202
Width: 549
GlyphClass: 2
Flags: W
LayerCount: 2
Fore
SplineSet
110 590 m 2,0,1
 110 630 110 630 93.5 644.5 c 128,-1,2
 77 659 77 659 35 661 c 1,3,-1
 38 693 l 1,4,5
 79 700 79 700 181 730 c 1,6,-1
 202 719 l 1,7,-1
 202 298 l 1,8,-1
 341 446 l 2,9,10
 362 467 362 467 374 506 c 1,11,-1
 518 506 l 1,12,-1
 521 474 l 1,13,14
 448 471 448 471 406 427 c 2,15,-1
 310 328 l 1,16,-1
 467 68 l 1,17,18
 502 46 502 46 564 37 c 1,19,-1
 560 0 l 1,20,-1
 406 0 l 1,21,-1
 249 265 l 1,22,-1
 202 217 l 1,23,-1
 202 66 l 1,24,25
 229 46 229 46 277 37 c 1,26,-1
 273 0 l 1,27,-1
 35 0 l 1,28,-1
 39 39 l 1,29,30
 82 46 82 46 110 66 c 1,31,-1
 110 590 l 2,0,1
270 -219 m 1,32,33
 289 -169 289 -169 289 -129.5 c 128,-1,34
 289 -90 289 -90 265 -69 c 1,35,36
 282 -45 282 -45 307 -45 c 128,-1,37
 332 -45 332 -45 347 -59 c 128,-1,38
 362 -73 362 -73 362 -96 c 0,39,40
 362 -157 362 -157 303 -233 c 1,41,-1
 270 -219 l 1,32,33
EndSplineSet
EndChar

StartChar: Ldotaccent
Encoding: 319 319 203
Width: 566
GlyphClass: 2
Flags: W
LayerCount: 2
Fore
SplineSet
241 61 m 1,0,-1
 471 61 l 1,1,2
 490 85 490 85 499.5 123 c 128,-1,3
 509 161 509 161 510 164 c 1,4,-1
 553 158 l 1,5,-1
 526 0 l 1,6,-1
 43 0 l 1,7,-1
 49 40 l 1,8,9
 111 47 111 47 146 68 c 1,10,-1
 146 608 l 1,11,12
 110 628 110 628 43 636 c 1,13,-1
 48 676 l 1,14,-1
 344 676 l 1,15,-1
 338 636 l 1,16,17
 276 629 276 629 241 608 c 1,18,-1
 241 61 l 1,0,-1
436.5 388 m 128,-1,20
 380 388 380 388 380 450.5 c 128,-1,21
 380 513 380 513 436.5 513 c 128,-1,22
 493 513 493 513 493 450.5 c 128,-1,19
 493 388 493 388 436.5 388 c 128,-1,20
EndSplineSet
EndChar

StartChar: ldot
Encoding: 320 320 204
Width: 369
GlyphClass: 2
Flags: W
LayerCount: 2
Fore
SplineSet
108 590 m 2,0,1
 108 630 108 630 91.5 644.5 c 128,-1,2
 75 659 75 659 33 661 c 1,3,-1
 36 693 l 1,4,5
 77 700 77 700 179 730 c 1,6,-1
 200 719 l 1,7,-1
 200 66 l 1,8,9
 227 46 227 46 275 37 c 1,10,-1
 271 0 l 1,11,-1
 33 0 l 1,12,-1
 37 39 l 1,13,14
 80 46 80 46 108 66 c 1,15,-1
 108 590 l 2,0,1
326 506 m 128,-1,17
 302 506 302 506 288 522 c 128,-1,18
 274 538 274 538 274 561 c 128,-1,19
 274 584 274 584 288.5 599.5 c 128,-1,20
 303 615 303 615 326.5 615 c 128,-1,21
 350 615 350 615 364.5 599.5 c 128,-1,22
 379 584 379 584 379 561 c 128,-1,23
 379 538 379 538 364.5 522 c 128,-1,16
 350 506 350 506 326 506 c 128,-1,17
EndSplineSet
EndChar

StartChar: Lslash
Encoding: 321 321 205
Width: 566
GlyphClass: 2
Flags: W
LayerCount: 2
Fore
SplineSet
241 61 m 1,0,-1
 471 61 l 1,1,2
 490 85 490 85 499.5 123 c 128,-1,3
 509 161 509 161 510 164 c 1,4,-1
 553 158 l 1,5,-1
 526 0 l 1,6,-1
 43 0 l 1,7,-1
 49 40 l 1,8,9
 111 47 111 47 146 68 c 1,10,-1
 146 270 l 1,11,-1
 49 224 l 1,12,-1
 44 268 l 1,13,-1
 146 317 l 1,14,-1
 146 608 l 1,15,16
 110 628 110 628 43 636 c 1,17,-1
 48 676 l 1,18,-1
 344 676 l 1,19,-1
 338 636 l 1,20,21
 276 629 276 629 241 608 c 1,22,-1
 241 362 l 1,23,-1
 404 441 l 1,24,-1
 409 397 l 1,25,-1
 241 316 l 1,26,-1
 241 61 l 1,0,-1
EndSplineSet
EndChar

StartChar: lslash
Encoding: 322 322 206
Width: 306
GlyphClass: 2
Flags: W
LayerCount: 2
Fore
SplineSet
110 590 m 2,0,1
 110 630 110 630 93.5 644.5 c 128,-1,2
 77 659 77 659 35 661 c 1,3,-1
 38 693 l 1,4,5
 79 700 79 700 181 730 c 1,6,-1
 202 719 l 1,7,-1
 202 418 l 1,8,-1
 296 461 l 1,9,-1
 301 417 l 1,10,-1
 202 371 l 1,11,-1
 202 66 l 1,12,13
 229 46 229 46 277 37 c 1,14,-1
 273 0 l 1,15,-1
 35 0 l 1,16,-1
 39 39 l 1,17,18
 82 46 82 46 110 66 c 1,19,-1
 110 329 l 1,20,-1
 11 284 l 1,21,-1
 6 328 l 1,22,-1
 110 375 l 1,23,-1
 110 590 l 2,0,1
EndSplineSet
EndChar

StartChar: Nacute
Encoding: 323 323 207
Width: 773
GlyphClass: 2
Flags: W
LayerCount: 2
Fore
SplineSet
649 0 m 1,0,-1
 584 0 l 1,1,-1
 210 520 l 1,2,-1
 210 68 l 1,3,4
 246 48 246 48 313 40 c 1,5,-1
 308 0 l 1,6,-1
 38 0 l 1,7,-1
 44 40 l 1,8,9
 106 47 106 47 141 68 c 1,10,-1
 141 608 l 1,11,12
 105 628 105 628 38 636 c 1,13,-1
 43 676 l 1,14,-1
 221 676 l 1,15,-1
 580 177 l 1,16,-1
 580 608 l 1,17,18
 544 628 544 628 477 636 c 1,19,-1
 482 676 l 1,20,-1
 752 676 l 1,21,-1
 746 636 l 1,22,23
 684 629 684 629 649 608 c 1,24,-1
 649 0 l 1,0,-1
418 856 m 1,25,26
 429 874 429 874 448.5 874 c 128,-1,27
 468 874 468 874 479.5 862.5 c 128,-1,28
 491 851 491 851 491 834 c 128,-1,29
 491 817 491 817 464 795 c 2,30,-1
 352 705 l 1,31,-1
 328 731 l 1,32,-1
 418 856 l 1,25,26
EndSplineSet
EndChar

StartChar: nacute
Encoding: 324 324 208
Width: 594
GlyphClass: 2
Flags: W
LayerCount: 2
Fore
SplineSet
108 374 m 2,0,1
 108 414 108 414 91.5 428.5 c 128,-1,2
 75 443 75 443 33 445 c 1,3,-1
 36 477 l 1,4,5
 58 481 58 481 168 513 c 1,6,-1
 187 503 l 1,7,-1
 197 436 l 1,8,9
 253 513 253 513 335 513 c 128,-1,10
 417 513 417 513 461 473.5 c 128,-1,11
 505 434 505 434 505 364 c 2,12,-1
 505 66 l 1,13,14
 530 47 530 47 580 37 c 1,15,-1
 576 0 l 1,16,-1
 339 0 l 1,17,-1
 342 37 l 1,18,19
 382 43 382 43 413 66 c 1,20,-1
 413 354 l 2,21,22
 413 461 413 461 321 461 c 0,23,24
 284 461 284 461 250 436 c 128,-1,25
 216 411 216 411 200 371 c 1,26,-1
 200 66 l 1,27,28
 227 46 227 46 275 37 c 1,29,-1
 271 0 l 1,30,-1
 33 0 l 1,31,-1
 37 39 l 1,32,33
 80 46 80 46 108 66 c 1,34,-1
 108 374 l 2,0,1
334 716 m 1,35,36
 345 734 345 734 364.5 734 c 128,-1,37
 384 734 384 734 395.5 722.5 c 128,-1,38
 407 711 407 711 407 694 c 128,-1,39
 407 677 407 677 380 655 c 2,40,-1
 268 565 l 1,41,-1
 244 591 l 1,42,-1
 334 716 l 1,35,36
EndSplineSet
EndChar

StartChar: OE
Encoding: 338 338 209
Width: 912
GlyphClass: 2
Flags: W
LayerCount: 2
Fore
SplineSet
344 681 m 1,0,-1
 461 676 l 1,1,-1
 848 676 l 1,2,-1
 857 514 l 1,3,4
 840 509 840 509 827.5 509 c 128,-1,5
 815 509 815 509 811 510 c 1,6,7
 797 575 797 575 761 619 c 1,8,-1
 556 619 l 1,9,-1
 556 374 l 1,10,-1
 686 374 l 2,11,12
 709 374 709 374 725 394 c 128,-1,13
 741 414 741 414 746 447 c 1,14,-1
 780 447 l 1,15,-1
 780 237 l 1,16,-1
 746 237 l 1,17,18
 736 318 736 318 686 318 c 2,19,-1
 556 318 l 1,20,-1
 556 61 l 1,21,-1
 776 61 l 1,22,23
 812 109 812 109 827 182 c 1,24,25
 841 184 841 184 847 184 c 128,-1,26
 853 184 853 184 871 182 c 1,27,-1
 861 0 l 1,28,-1
 461 0 l 1,29,-1
 344 -6 l 1,30,31
 48 -6 48 -6 48 337.5 c 128,-1,32
 48 681 48 681 344 681 c 1,0,-1
344 627 m 0,33,34
 239 627 239 627 196.5 559.5 c 128,-1,35
 154 492 154 492 154 338 c 128,-1,36
 154 184 154 184 196.5 116 c 128,-1,37
 239 48 239 48 344 48 c 0,38,39
 413 48 413 48 461 68 c 1,40,-1
 461 608 l 1,41,42
 413 627 413 627 344 627 c 0,33,34
EndSplineSet
EndChar

StartChar: oe
Encoding: 339 339 210
Width: 836
GlyphClass: 2
Flags: W
LayerCount: 2
Fore
SplineSet
491 261 m 1,0,-1
 491 245 l 2,1,2
 491 121 491 121 524 78 c 0,3,4
 555 38 555 38 625.5 38 c 128,-1,5
 696 38 696 38 746 97 c 1,6,-1
 780 63 l 1,7,8
 719 -8 719 -8 616 -8 c 0,9,10
 492 -8 492 -8 437 67 c 1,11,12
 380 -8 380 -8 267 -8 c 128,-1,13
 154 -8 154 -8 97.5 58.5 c 128,-1,14
 41 125 41 125 41 252.5 c 128,-1,15
 41 380 41 380 97.5 446.5 c 128,-1,16
 154 513 154 513 269 513 c 128,-1,17
 384 513 384 513 440 434 c 1,18,19
 497 513 497 513 606.5 513 c 128,-1,20
 716 513 716 513 758 457 c 128,-1,21
 800 401 800 401 803 290 c 1,22,-1
 781 261 l 1,23,-1
 491 261 l 1,0,-1
167 91.5 m 128,-1,25
 197 42 197 42 264.5 42 c 128,-1,26
 332 42 332 42 362 92 c 128,-1,27
 392 142 392 142 392 254 c 128,-1,28
 392 366 392 366 361 414.5 c 128,-1,29
 330 463 330 463 263 463 c 128,-1,30
 196 463 196 463 166.5 414 c 128,-1,31
 137 365 137 365 137 253 c 128,-1,24
 137 141 137 141 167 91.5 c 128,-1,25
608 469 m 0,32,33
 494 469 494 469 491 301 c 1,34,-1
 706 309 l 1,35,36
 706 393 706 393 685 431 c 128,-1,37
 664 469 664 469 608 469 c 0,32,33
EndSplineSet
EndChar

StartChar: Racute
Encoding: 340 340 211
Width: 683
GlyphClass: 2
Flags: W
LayerCount: 2
Fore
SplineSet
342 676 m 2,0,1
 588 676 588 676 588 497 c 0,2,3
 588 363 588 363 442 328 c 1,4,5
 474 308 474 308 505 245 c 1,6,-1
 588 68 l 1,7,8
 616 49 616 49 677 41 c 1,9,-1
 671 0 l 1,10,-1
 509 0 l 1,11,-1
 417 225 l 2,12,13
 391 287 391 287 370.5 300.5 c 128,-1,14
 350 314 350 314 283 314 c 2,15,-1
 246 314 l 1,16,-1
 246 68 l 1,17,18
 273 51 273 51 349 40 c 1,19,-1
 344 0 l 1,20,-1
 48 0 l 1,21,-1
 54 40 l 1,22,23
 116 47 116 47 151 68 c 1,24,-1
 151 608 l 1,25,26
 116 629 116 629 48 636 c 1,27,-1
 53 676 l 1,28,-1
 342 676 l 2,0,1
246 363 m 1,29,-1
 295 363 l 2,30,31
 491 363 491 363 491 499 c 0,32,33
 491 631 491 631 342 631 c 0,34,35
 302 631 302 631 246 622 c 1,36,-1
 246 363 l 1,29,-1
370 856 m 1,37,38
 381 874 381 874 400.5 874 c 128,-1,39
 420 874 420 874 431.5 862.5 c 128,-1,40
 443 851 443 851 443 834 c 128,-1,41
 443 817 443 817 416 795 c 2,42,-1
 304 705 l 1,43,-1
 280 731 l 1,44,-1
 370 856 l 1,37,38
EndSplineSet
EndChar

StartChar: Rcommaaccent
Encoding: 342 342 212
Width: 683
GlyphClass: 2
Flags: W
LayerCount: 2
Fore
SplineSet
342 676 m 2,0,1
 588 676 588 676 588 497 c 0,2,3
 588 363 588 363 442 328 c 1,4,5
 474 308 474 308 505 245 c 1,6,-1
 588 68 l 1,7,8
 616 49 616 49 677 41 c 1,9,-1
 671 0 l 1,10,-1
 509 0 l 1,11,-1
 417 225 l 2,12,13
 392 284 392 284 373.5 299 c 128,-1,14
 355 314 355 314 302 314 c 2,15,-1
 246 314 l 1,16,-1
 246 68 l 1,17,18
 273 51 273 51 349 40 c 1,19,-1
 344 0 l 1,20,-1
 48 0 l 1,21,-1
 54 40 l 1,22,23
 116 47 116 47 151 68 c 1,24,-1
 151 608 l 1,25,26
 116 629 116 629 48 636 c 1,27,-1
 53 676 l 1,28,-1
 342 676 l 2,0,1
246 363 m 1,29,-1
 295 363 l 2,30,31
 491 363 491 363 491 499 c 0,32,33
 491 631 491 631 342 631 c 0,34,35
 302 631 302 631 246 622 c 1,36,-1
 246 363 l 1,29,-1
331 -219 m 1,37,38
 350 -169 350 -169 350 -129.5 c 128,-1,39
 350 -90 350 -90 326 -69 c 1,40,41
 343 -45 343 -45 368 -45 c 128,-1,42
 393 -45 393 -45 408 -59 c 128,-1,43
 423 -73 423 -73 423 -96 c 0,44,45
 423 -157 423 -157 364 -233 c 1,46,-1
 331 -219 l 1,37,38
EndSplineSet
EndChar

StartChar: rcommaaccent
Encoding: 343 343 213
Width: 440
GlyphClass: 2
Flags: W
LayerCount: 2
Fore
SplineSet
112 374 m 2,0,1
 112 414 112 414 95.5 428.5 c 128,-1,2
 79 443 79 443 37 445 c 1,3,-1
 40 477 l 1,4,5
 62 481 62 481 172 513 c 1,6,-1
 191 503 l 1,7,-1
 202 428 l 1,8,9
 259 513 259 513 331 513 c 0,10,11
 370 513 370 513 398.5 490 c 128,-1,12
 427 467 427 467 427 432.5 c 128,-1,13
 427 398 427 398 411.5 378 c 128,-1,14
 396 358 396 358 373.5 358 c 128,-1,15
 351 358 351 358 335 367 c 128,-1,16
 319 376 319 376 315 391 c 1,17,18
 326 402 326 402 326 421 c 0,19,20
 326 454 326 454 295.5 454 c 128,-1,21
 265 454 265 454 234.5 410 c 128,-1,22
 204 366 204 366 204 316 c 2,23,-1
 204 66 l 1,24,25
 234 46 234 46 289 37 c 1,26,-1
 285 0 l 1,27,-1
 37 0 l 1,28,-1
 41 39 l 1,29,30
 84 46 84 46 112 66 c 1,31,-1
 112 374 l 2,0,1
120 -219 m 1,32,33
 139 -169 139 -169 139 -129.5 c 128,-1,34
 139 -90 139 -90 115 -69 c 1,35,36
 132 -45 132 -45 157 -45 c 128,-1,37
 182 -45 182 -45 197 -59 c 128,-1,38
 212 -73 212 -73 212 -96 c 0,39,40
 212 -157 212 -157 153 -233 c 1,41,-1
 120 -219 l 1,32,33
EndSplineSet
EndChar

StartChar: Rcaron
Encoding: 344 344 214
Width: 683
GlyphClass: 2
Flags: W
LayerCount: 2
Fore
SplineSet
342 676 m 2,0,1
 588 676 588 676 588 497 c 0,2,3
 588 363 588 363 442 328 c 1,4,5
 474 308 474 308 505 245 c 1,6,-1
 588 68 l 1,7,8
 616 49 616 49 677 41 c 1,9,-1
 671 0 l 1,10,-1
 509 0 l 1,11,-1
 417 225 l 2,12,13
 391 287 391 287 370.5 300.5 c 128,-1,14
 350 314 350 314 283 314 c 2,15,-1
 246 314 l 1,16,-1
 246 68 l 1,17,18
 273 51 273 51 349 40 c 1,19,-1
 344 0 l 1,20,-1
 48 0 l 1,21,-1
 54 40 l 1,22,23
 116 47 116 47 151 68 c 1,24,-1
 151 608 l 1,25,26
 116 629 116 629 48 636 c 1,27,-1
 53 676 l 1,28,-1
 342 676 l 2,0,1
246 363 m 1,29,-1
 295 363 l 2,30,31
 491 363 491 363 491 499 c 0,32,33
 491 631 491 631 342 631 c 0,34,35
 302 631 302 631 246 622 c 1,36,-1
 246 363 l 1,29,-1
376 732 m 2,37,38
 362 715 362 715 342.5 715 c 128,-1,39
 323 715 323 715 309 732 c 2,40,-1
 209 847 l 1,41,-1
 233 873 l 1,42,-1
 342 790 l 1,43,-1
 452 873 l 1,44,-1
 476 847 l 1,45,-1
 376 732 l 2,37,38
EndSplineSet
EndChar

StartChar: rcaron
Encoding: 345 345 215
Width: 440
GlyphClass: 2
Flags: W
LayerCount: 2
Fore
SplineSet
112 374 m 2,0,1
 112 414 112 414 95.5 428.5 c 128,-1,2
 79 443 79 443 37 445 c 1,3,-1
 40 477 l 1,4,5
 62 481 62 481 172 513 c 1,6,-1
 191 503 l 1,7,-1
 202 428 l 1,8,9
 259 513 259 513 331 513 c 0,10,11
 370 513 370 513 398.5 490 c 128,-1,12
 427 467 427 467 427 432.5 c 128,-1,13
 427 398 427 398 411.5 378 c 128,-1,14
 396 358 396 358 373.5 358 c 128,-1,15
 351 358 351 358 335 367 c 128,-1,16
 319 376 319 376 315 391 c 1,17,18
 326 402 326 402 326 421 c 0,19,20
 326 454 326 454 295.5 454 c 128,-1,21
 265 454 265 454 234.5 410 c 128,-1,22
 204 366 204 366 204 316 c 2,23,-1
 204 66 l 1,24,25
 234 46 234 46 289 37 c 1,26,-1
 285 0 l 1,27,-1
 37 0 l 1,28,-1
 41 39 l 1,29,30
 84 46 84 46 112 66 c 1,31,-1
 112 374 l 2,0,1
264 590 m 2,32,33
 250 573 250 573 230.5 573 c 128,-1,34
 211 573 211 573 197 590 c 2,35,-1
 97 705 l 1,36,-1
 121 731 l 1,37,-1
 230 648 l 1,38,-1
 340 731 l 1,39,-1
 364 705 l 1,40,-1
 264 590 l 2,32,33
EndSplineSet
EndChar

StartChar: dotlessj
Encoding: 567 567 216
Width: 306
GlyphClass: 2
Flags: W
LayerCount: 2
Fore
SplineSet
125 79 m 2,0,-1
 125 376 l 2,1,2
 125 416 125 416 108.5 430.5 c 128,-1,3
 92 445 92 445 50 447 c 1,4,-1
 53 479 l 1,5,6
 94 486 94 486 196 516 c 1,7,-1
 217 505 l 1,8,-1
 217 -35 l 2,9,10
 217 -178 217 -178 158 -216 c 0,11,12
 132 -233 132 -233 87.5 -233 c 128,-1,13
 43 -233 43 -233 10.5 -213 c 128,-1,14
 -22 -193 -22 -193 -22 -150 c 0,15,16
 -22 -125 -22 -125 -8 -108 c 128,-1,17
 6 -91 6 -91 32.5 -91 c 128,-1,18
 59 -91 59 -91 71 -112 c 1,19,20
 55 -126 55 -126 55 -145 c 128,-1,21
 55 -164 55 -164 65.5 -175 c 128,-1,22
 76 -186 76 -186 95 -186 c 0,23,24
 138 -186 138 -186 138 -116 c 0,25,26
 138 -81 138 -81 131.5 -26.5 c 128,-1,27
 125 28 125 28 125 79 c 2,0,-1
EndSplineSet
EndChar

StartChar: circumflex
Encoding: 710 710 217
Width: 373
GlyphClass: 2
Flags: W
LayerCount: 2
Fore
SplineSet
153 716 m 2,0,1
 167 733 167 733 186.5 733 c 128,-1,2
 206 733 206 733 220 716 c 2,3,-1
 320 601 l 1,4,-1
 296 575 l 1,5,-1
 186 658 l 1,6,-1
 77 575 l 1,7,-1
 53 601 l 1,8,-1
 153 716 l 2,0,1
EndSplineSet
EndChar

StartChar: caron
Encoding: 711 711 218
Width: 373
GlyphClass: 2
Flags: W
LayerCount: 2
Fore
SplineSet
220 592 m 2,0,1
 206 575 206 575 186.5 575 c 128,-1,2
 167 575 167 575 153 592 c 2,3,-1
 53 707 l 1,4,-1
 77 733 l 1,5,-1
 186 650 l 1,6,-1
 296 733 l 1,7,-1
 320 707 l 1,8,-1
 220 592 l 2,0,1
EndSplineSet
EndChar

StartChar: ring
Encoding: 730 730 219
Width: 285
GlyphClass: 2
Flags: W
LayerCount: 2
Fore
SplineSet
50 650 m 128,-1,1
 50 689 50 689 75 714 c 128,-1,2
 100 739 100 739 141.5 739 c 128,-1,3
 183 739 183 739 209 714 c 128,-1,4
 235 689 235 689 235 650 c 128,-1,5
 235 611 235 611 209 586 c 128,-1,6
 183 561 183 561 141.5 561 c 128,-1,7
 100 561 100 561 75 586 c 128,-1,0
 50 611 50 611 50 650 c 128,-1,1
141 603 m 128,-1,9
 161 603 161 603 175.5 617 c 128,-1,10
 190 631 190 631 190 650.5 c 128,-1,11
 190 670 190 670 175.5 684 c 128,-1,12
 161 698 161 698 141 698 c 128,-1,13
 121 698 121 698 108 684 c 128,-1,14
 95 670 95 670 95 650 c 128,-1,15
 95 630 95 630 108 616.5 c 128,-1,8
 121 603 121 603 141 603 c 128,-1,9
EndSplineSet
EndChar

StartChar: tilde
Encoding: 732 732 220
Width: 398
GlyphClass: 2
Flags: W
LayerCount: 2
Fore
SplineSet
73 679 m 128,-1,1
 101 708 101 708 132.5 708 c 128,-1,2
 164 708 164 708 203.5 686.5 c 128,-1,3
 243 665 243 665 263 665 c 0,4,5
 297 665 297 665 334 708 c 1,6,7
 351 701 351 701 369 687 c 1,8,9
 356 655 356 655 328 626.5 c 128,-1,10
 300 598 300 598 268 598 c 128,-1,11
 236 598 236 598 197 619.5 c 128,-1,12
 158 641 158 641 137 641 c 0,13,14
 104 641 104 641 67 598 c 1,15,16
 50 602 50 602 32 619 c 1,17,0
 45 650 45 650 73 679 c 128,-1,1
EndSplineSet
EndChar

StartChar: endash
Encoding: 8211 8211 221
Width: 500
GlyphClass: 2
Flags: W
LayerCount: 2
Fore
SplineSet
0 241 m 1,0,-1
 0 299 l 1,1,-1
 500 299 l 1,2,-1
 500 241 l 1,3,-1
 0 241 l 1,0,-1
EndSplineSet
EndChar

StartChar: emdash
Encoding: 8212 8212 222
Width: 850
GlyphClass: 2
Flags: W
LayerCount: 2
Fore
SplineSet
0 241 m 1,0,-1
 0 299 l 1,1,-1
 850 299 l 1,2,-1
 850 241 l 1,3,-1
 0 241 l 1,0,-1
EndSplineSet
EndChar

StartChar: quoteleft
Encoding: 8216 8216 223
Width: 173
GlyphClass: 2
Flags: W
LayerCount: 2
Fore
SplineSet
80 635 m 0,0,1
 80 618 80 618 88.5 608 c 128,-1,2
 97 598 97 598 109 598 c 128,-1,3
 121 598 121 598 130 603 c 1,4,5
 143 590 143 590 143 566 c 128,-1,6
 143 542 143 542 126 527.5 c 128,-1,7
 109 513 109 513 81.5 513 c 128,-1,8
 54 513 54 513 37 534 c 128,-1,9
 20 555 20 555 20 589 c 0,10,11
 20 671 20 671 103 727 c 1,12,-1
 124 702 l 1,13,14
 80 671 80 671 80 635 c 0,0,1
EndSplineSet
EndChar

StartChar: quoteright
Encoding: 8217 8217 224
Width: 173
GlyphClass: 2
Flags: W
LayerCount: 2
Fore
SplineSet
93 605 m 0,0,1
 93 622 93 622 84.5 632 c 128,-1,2
 76 642 76 642 64 642 c 128,-1,3
 52 642 52 642 43 637 c 1,4,5
 30 650 30 650 30 674 c 128,-1,6
 30 698 30 698 47 712.5 c 128,-1,7
 64 727 64 727 91.5 727 c 128,-1,8
 119 727 119 727 136 706 c 128,-1,9
 153 685 153 685 153 651 c 0,10,11
 153 569 153 569 70 513 c 1,12,-1
 49 538 l 1,13,14
 93 569 93 569 93 605 c 0,0,1
EndSplineSet
EndChar

StartChar: quotesinglbase
Encoding: 8218 8218 225
Width: 215
GlyphClass: 2
Flags: W
LayerCount: 2
Fore
SplineSet
118.5 -49.5 m 128,-1,1
 124 -33 124 -33 124 -15.5 c 128,-1,2
 124 2 124 2 114 11.5 c 128,-1,3
 104 21 104 21 91 21 c 128,-1,4
 78 21 78 21 73 16 c 1,5,6
 60 26 60 26 60 51 c 128,-1,7
 60 76 60 76 76.5 91 c 128,-1,8
 93 106 93 106 121 106 c 128,-1,9
 149 106 149 106 166 86 c 128,-1,10
 183 66 183 66 183 32 c 0,11,12
 183 -98 183 -98 71 -140 c 1,13,-1
 55 -114 l 1,14,15
 56 -113 56 -113 66.5 -107 c 128,-1,16
 77 -101 77 -101 85 -94.5 c 128,-1,17
 93 -88 93 -88 103 -77 c 128,-1,0
 113 -66 113 -66 118.5 -49.5 c 128,-1,1
EndSplineSet
EndChar

StartChar: quotedblleft
Encoding: 8220 8220 226
Width: 339
GlyphClass: 2
Flags: W
LayerCount: 2
Fore
SplineSet
80 635 m 0,0,1
 80 618 80 618 88.5 608 c 128,-1,2
 97 598 97 598 109 598 c 128,-1,3
 121 598 121 598 130 603 c 1,4,5
 143 590 143 590 143 566 c 128,-1,6
 143 542 143 542 126 527.5 c 128,-1,7
 109 513 109 513 81.5 513 c 128,-1,8
 54 513 54 513 37 534 c 128,-1,9
 20 555 20 555 20 589 c 0,10,11
 20 671 20 671 103 727 c 1,12,-1
 124 702 l 1,13,14
 80 671 80 671 80 635 c 0,0,1
246 635 m 0,15,16
 246 618 246 618 254.5 608 c 128,-1,17
 263 598 263 598 275 598 c 128,-1,18
 287 598 287 598 296 603 c 1,19,20
 309 590 309 590 309 566 c 128,-1,21
 309 542 309 542 292 527.5 c 128,-1,22
 275 513 275 513 247.5 513 c 128,-1,23
 220 513 220 513 203 534 c 128,-1,24
 186 555 186 555 186 589 c 0,25,26
 186 671 186 671 269 727 c 1,27,-1
 290 702 l 1,28,29
 246 671 246 671 246 635 c 0,15,16
EndSplineSet
EndChar

StartChar: quotedblright
Encoding: 8221 8221 227
Width: 339
GlyphClass: 2
Flags: W
LayerCount: 2
Fore
SplineSet
93 605 m 0,0,1
 93 622 93 622 84.5 632 c 128,-1,2
 76 642 76 642 64 642 c 128,-1,3
 52 642 52 642 43 637 c 1,4,5
 30 650 30 650 30 674 c 128,-1,6
 30 698 30 698 47 712.5 c 128,-1,7
 64 727 64 727 91.5 727 c 128,-1,8
 119 727 119 727 136 706 c 128,-1,9
 153 685 153 685 153 651 c 0,10,11
 153 569 153 569 70 513 c 1,12,-1
 49 538 l 1,13,14
 93 569 93 569 93 605 c 0,0,1
259 605 m 0,15,16
 259 622 259 622 250.5 632 c 128,-1,17
 242 642 242 642 230 642 c 128,-1,18
 218 642 218 642 209 637 c 1,19,20
 196 650 196 650 196 674 c 128,-1,21
 196 698 196 698 213 712.5 c 128,-1,22
 230 727 230 727 257.5 727 c 128,-1,23
 285 727 285 727 302 706 c 128,-1,24
 319 685 319 685 319 651 c 0,25,26
 319 569 319 569 236 513 c 1,27,-1
 215 538 l 1,28,29
 259 569 259 569 259 605 c 0,15,16
EndSplineSet
EndChar

StartChar: quotedblbase
Encoding: 8222 8222 228
Width: 384
GlyphClass: 2
Flags: W
LayerCount: 2
Fore
SplineSet
115 -18 m 0,0,1
 115 18 115 18 84 18 c 0,2,3
 81 18 81 18 65 14 c 1,4,5
 52 27 52 27 52 51 c 128,-1,6
 52 75 52 75 69 89.5 c 128,-1,7
 86 104 86 104 113.5 104 c 128,-1,8
 141 104 141 104 158 83 c 128,-1,9
 175 62 175 62 175 28 c 0,10,11
 175 -74 175 -74 72 -137 c 1,12,-1
 54 -112 l 1,13,14
 115 -71 115 -71 115 -18 c 0,0,1
307 -18 m 0,15,16
 307 18 307 18 276 18 c 0,17,18
 273 18 273 18 257 14 c 1,19,20
 244 27 244 27 244 51 c 128,-1,21
 244 75 244 75 261 89.5 c 128,-1,22
 278 104 278 104 305.5 104 c 128,-1,23
 333 104 333 104 350 83 c 128,-1,24
 367 62 367 62 367 28 c 0,25,26
 367 -74 367 -74 264 -137 c 1,27,-1
 246 -112 l 1,28,29
 307 -71 307 -71 307 -18 c 0,15,16
EndSplineSet
EndChar

StartChar: bullet
Encoding: 8226 8226 229
Width: 255
GlyphClass: 2
Flags: W
LayerCount: 2
Fore
SplineSet
192.5 255.5 m 128,-1,1
 165 227 165 227 128.5 227 c 128,-1,2
 92 227 92 227 63.5 256 c 128,-1,3
 35 285 35 285 35 322 c 128,-1,4
 35 359 35 359 63 386.5 c 128,-1,5
 91 414 91 414 128.5 414 c 128,-1,6
 166 414 166 414 193 386.5 c 128,-1,7
 220 359 220 359 220 321.5 c 128,-1,0
 220 284 220 284 192.5 255.5 c 128,-1,1
EndSplineSet
EndChar

StartChar: guilsinglleft
Encoding: 8249 8249 230
Width: 240
GlyphClass: 2
Flags: W
LayerCount: 2
Fore
SplineSet
166 85 m 1,0,-1
 25 253 l 1,1,-1
 168 414 l 1,2,-1
 200 392 l 1,3,-1
 117 253 l 1,4,-1
 200 107 l 1,5,-1
 166 85 l 1,0,-1
EndSplineSet
EndChar

StartChar: guilsinglright
Encoding: 8250 8250 231
Width: 240
GlyphClass: 2
Flags: W
LayerCount: 2
Fore
SplineSet
40 107 m 1,0,-1
 122 253 l 1,1,-1
 40 392 l 1,2,-1
 72 414 l 1,3,-1
 215 253 l 1,4,-1
 74 85 l 1,5,-1
 40 107 l 1,0,-1
EndSplineSet
EndChar

StartChar: Euro
Encoding: 8364 8364 232
Width: 604
GlyphClass: 2
Flags: W
LayerCount: 2
Fore
SplineSet
101 318 m 2,0,-1
 101 335 l 1,1,-1
 38 335 l 1,2,3
 33 355 33 355 33 371 c 1,4,-1
 40 378 l 1,5,-1
 103 378 l 1,6,7
 127 647 127 647 372 647 c 0,8,9
 440 647 440 647 498.5 613 c 128,-1,10
 557 579 557 579 557 514 c 0,11,12
 557 479 557 479 539.5 456.5 c 128,-1,13
 522 434 522 434 499.5 434 c 128,-1,14
 477 434 477 434 462 445 c 128,-1,15
 447 456 447 456 443 474 c 1,16,17
 458 500 458 500 458 528.5 c 128,-1,18
 458 557 458 557 432.5 573.5 c 128,-1,19
 407 590 407 590 368 590 c 0,20,21
 287 590 287 590 248.5 539.5 c 128,-1,22
 210 489 210 489 203 378 c 1,23,-1
 373 378 l 1,24,25
 378 358 378 358 378 342 c 1,26,-1
 371 335 l 1,27,-1
 202 335 l 1,28,-1
 202 318 l 2,29,30
 202 284 202 284 203 268 c 1,31,-1
 343 268 l 1,32,33
 348 248 348 248 348 232 c 1,34,-1
 341 225 l 1,35,-1
 206 225 l 1,36,37
 217 132 217 132 254.5 91 c 128,-1,38
 292 50 292 50 368 50 c 0,39,40
 407 50 407 50 432.5 66.5 c 128,-1,41
 458 83 458 83 458 111.5 c 128,-1,42
 458 140 458 140 443 166 c 1,43,44
 447 184 447 184 462 195 c 128,-1,45
 477 206 477 206 499.5 206 c 128,-1,46
 522 206 522 206 539.5 183.5 c 128,-1,47
 557 161 557 161 557 126 c 0,48,49
 557 61 557 61 498 26.5 c 128,-1,50
 439 -8 439 -8 372 -8 c 0,51,52
 252 -8 252 -8 187.5 49 c 128,-1,53
 123 106 123 106 106 225 c 1,54,-1
 38 225 l 1,55,56
 33 245 33 245 33 261 c 1,57,-1
 40 268 l 1,58,-1
 102 268 l 1,59,60
 101 284 101 284 101 318 c 2,0,-1
EndSplineSet
EndChar

StartChar: commaaccent
Encoding: 63171 63171 233
Width: 109
GlyphClass: 2
Flags: W
LayerCount: 2
Fore
SplineSet
11 -219 m 1,0,1
 30 -169 30 -169 30 -129.5 c 128,-1,2
 30 -90 30 -90 6 -69 c 1,3,4
 23 -45 23 -45 48 -45 c 128,-1,5
 73 -45 73 -45 88 -59 c 128,-1,6
 103 -73 103 -73 103 -96 c 0,7,8
 103 -157 103 -157 44 -233 c 1,9,-1
 11 -219 l 1,0,1
EndSplineSet
EndChar

StartChar: foundryicon
Encoding: 65539 -1 234
Width: 756
GlyphClass: 2
Flags: W
LayerCount: 2
Fore
SplineSet
147 161 m 1,0,-1
 233 161 l 1,1,-1
 233 370 l 2,2,3
 233 384 233 384 260 384 c 0,4,5
 310 384 310 384 310 319 c 2,6,-1
 310 161 l 1,7,-1
 396 161 l 1,8,-1
 396 368 l 2,9,10
 396 405 396 405 370.5 428.5 c 128,-1,11
 345 452 345 452 306 452 c 1,12,-1
 250 419 l 1,13,14
 241 416 241 416 239 416 c 0,15,16
 233 416 233 416 233 425 c 2,17,-1
 233 561 l 1,18,-1
 147 561 l 1,19,-1
 147 161 l 1,0,-1
604 221 m 0,20,21
 558 221 558 221 558 288 c 2,22,-1
 558 392 l 2,23,24
 558 403 558 403 569 403 c 2,25,-1
 636 403 l 1,26,-1
 636 445 l 1,27,-1
 569 445 l 2,28,29
 558 445 558 445 558 457 c 2,30,-1
 558 489 l 1,31,-1
 533 489 l 1,32,-1
 430 424 l 1,33,-1
 430 403 l 1,34,-1
 459 403 l 2,35,36
 472 403 472 403 472 392 c 2,37,-1
 472 239 l 2,38,39
 472 203 472 203 497.5 178.5 c 128,-1,40
 523 154 523 154 562 154 c 1,41,-1
 635 197 l 1,42,-1
 635 226 l 1,43,44
 617 221 617 221 604 221 c 0,20,21
40 92 m 2,45,-1
 40 583 l 2,46,47
 40 676 40 676 132 676 c 2,48,-1
 623 676 l 2,49,50
 716 676 716 676 716 583 c 2,51,-1
 716 92 l 2,52,53
 716 0 716 0 623 0 c 2,54,-1
 132 0 l 2,55,56
 40 0 40 0 40 92 c 2,45,-1
EndSplineSet
EndChar
